<svg version="1" xmlns="http://www.w3.org/2000/svg" width="1325.333" height="1325.333" viewBox="0 0 994.000000 994.000000"><path d="M207.7 57c-55.4 31.2-101 57-101.4 57.4-.4.3.3 1.4 1.6 2.2 9.5 6.7 97.3 75.4 148.6 116.3 137.3 109.4 249.1 204.2 341 289 25.7 23.7 94.2 92.3 109.8 109.9 27.1 30.6 44 53.3 51.1 68.4 5.9 12.4 7.6 19.1 8.3 32.5 1.5 28.3-9.9 53-37.7 81.7C685.6 859.1 611.8 901 491.2 949c-12.7 5-13.4 5.2-15.2 3.5-8.2-7.4-16.2-71-23-182-3.8-62.7-6.2-114.7-11-234-3.8-96.6-4.5-109.1-6-106.4-6.5 11.5-7.7 185.7-3 432.9 1.6 79.8 2.8 130.2 3.3 130.6 1.6 1.7 83.6-22.1 128.7-37.3 180.7-60.8 291.4-129.1 317.1-195.6 4.6-12.2 6.2-22.1 5.6-35.7-.9-21-7.6-36.4-32.2-74-39-59.5-98.2-119.6-193-195.9-43.6-35.1-61.1-48.5-302.5-230.6-53.1-40-107.6-81.1-121.1-91.3l-24.7-18.5 47.5-56.9C287.9 26.5 309.1.8 308.9.6c-.2-.2-45.7 25.2-101.2 56.4z"/></svg>