<svg enable-background="new 0 0 500 500" version="1.1" viewBox="0 0 500 500" xml:space="preserve" xmlns="http://www.w3.org/2000/svg">
  <path d="m158.48 7.719l-46.409 55.346c12.095 9.258 24.188 18.516 36.279 27.778 20.634 15.807 41.217 31.687 61.922 47.4 16.611 12.606 33.525 24.797 50.247 37.254 36.106 26.897 71.366 55.039 105.03 84.949 9.877 8.776 19.606 17.723 29.124 26.888 72 69.333 54 104-12.667 142.67s-162 62.282-162 62.282-5.333-264.28 0.667-274.28c0 0 7.708 233.25 17.833 252.75 0 0 0.938 2.875 4.25 1.5 11.81-4.902 23.656-9.61 35.331-14.863 27.52-12.382 54.251-24.696 76.408-45.711 9.579-9.086 20.407-19.414 25.886-31.652 3.657-8.17 3.427-16.931 0.472-25.291-4.957-14.026-15.186-26.1-25.01-36.976-15.177-16.804-31.996-32.091-48.702-47.34-9.621-8.782-19.222-17.587-28.946-26.255-11.457-10.213-23.019-20.312-34.627-30.354-15.752-13.626-31.65-27.081-47.678-40.382-19.349-16.057-38.826-31.961-58.453-47.677-23.023-18.436-46.323-36.516-69.713-54.483-0.892-0.685-8.219-7.106-8.813-6.767l99.571-56.78z" fill="#5485CB"/>
</svg>