<svg xmlns="http://www.w3.org/2000/svg" xmlns:xlink="http://www.w3.org/1999/xlink" viewBox="0 0 60 60">
    <defs>
        <symbol xmlns="http://www.w3.org/2000/svg" id="a" clip-rule="evenodd" viewBox="0 0 64 80">
            <rect width="64" height="64" fill="none"/>
            <path d="m46.127 21.505c0.112 0.015 0.141 0.015 0.251 0.043 0.288 0.075 0.551 0.237 0.748 0.461 0.112 0.128 0.203 0.274 0.266 0.432 0.063 0.157 0.099 0.326 0.107 0.495 0.023 0.561-0.278 1.1-0.767 1.374-0.149 0.082-0.311 0.14-0.478 0.168-0.112 0.02-0.141 0.017-0.254 0.022h-28c-0.113-5e-3 -0.142-2e-3 -0.253-0.022-0.294-0.05-0.57-0.189-0.785-0.395-0.123-0.118-0.225-0.256-0.301-0.408-0.077-0.151-0.127-0.316-0.149-0.484-0.06-0.468 0.11-0.948 0.45-1.274 0.092-0.088 0.195-0.164 0.306-0.227 0.149-0.082 0.311-0.14 0.479-0.168 0.111-0.02 0.14-0.017 0.253-0.022h28c0.042 2e-3 0.085 4e-3 0.127 5e-3z"/>
            <path d="m46.127 30.505c0.112 0.015 0.141 0.015 0.251 0.043 0.288 0.075 0.551 0.237 0.748 0.461 0.112 0.128 0.203 0.274 0.266 0.432 0.209 0.52 0.104 1.129-0.266 1.55-0.112 0.128-0.246 0.236-0.394 0.319-0.149 0.082-0.311 0.14-0.478 0.168-0.112 0.02-0.141 0.017-0.254 0.022h-28c-0.113-5e-3 -0.142-2e-3 -0.253-0.022-0.168-0.028-0.33-0.086-0.479-0.168-0.411-0.231-0.696-0.652-0.756-1.119-0.016-0.127-0.016-0.255 0-0.382 0.022-0.168 0.072-0.333 0.149-0.484 0.076-0.152 0.178-0.29 0.301-0.408 0.215-0.206 0.491-0.345 0.785-0.395 0.111-0.02 0.14-0.017 0.253-0.022h28c0.042 2e-3 0.085 4e-3 0.127 5e-3z"/>
            <path d="m46.127 39.505c0.112 0.015 0.141 0.015 0.251 0.043 0.288 0.075 0.551 0.237 0.748 0.461 0.37 0.421 0.475 1.03 0.266 1.55-0.063 0.158-0.154 0.304-0.266 0.432s-0.246 0.236-0.394 0.319c-0.149 0.082-0.311 0.14-0.478 0.168-0.112 0.02-0.141 0.017-0.254 0.022h-28c-0.113-5e-3 -0.142-2e-3 -0.253-0.022-0.294-0.05-0.57-0.189-0.785-0.395-0.092-0.088-0.172-0.188-0.239-0.297-0.248-0.401-0.291-0.908-0.115-1.345 0.064-0.158 0.154-0.304 0.266-0.432s0.246-0.236 0.394-0.319c0.149-0.082 0.311-0.14 0.479-0.168 0.111-0.02 0.14-0.017 0.253-0.022h28c0.042 2e-3 0.085 4e-3 0.127 5e-3z"/>
        </symbol>
    </defs>
    <g>
        <title>
            Layer 1
        </title>
        <use x="-38.7919" y="-118.20647" transform="matrix(2.5257 0 0 2.5257 52.205 267.93)" xlink:href="#a"/>
    </g>
</svg>
