<?xml version="1.0" encoding="utf-8"?>
<!-- Generator: Adobe Illustrator 16.0.0, SVG Export Plug-In . SVG Version: 6.00 Build 0)  -->
<!DOCTYPE svg PUBLIC "-//W3C//DTD SVG 1.1//EN" "http://www.w3.org/Graphics/SVG/1.1/DTD/svg11.dtd">
<svg version="1.1" id="Layer_1" xmlns="http://www.w3.org/2000/svg" xmlns:xlink="http://www.w3.org/1999/xlink" x="0px" y="0px"
	 width="1400px" height="980px" viewBox="0 0 1400 980" enable-background="new 0 0 1400 980" xml:space="preserve">
<g>
	<g>
		<rect x="-6804.6" y="-1485.2" fill="#FFFFFF" width="371.8" height="260.3"/>
	</g>
	<g>
		<rect x="-6693.9" y="-1419.2" fill="#E6E7E8" width="144.3" height="86.4"/>
		<path d="M-6549.5-1332.3h-144.3c-0.3,0-0.5-0.2-0.5-0.5v-86.4c0-0.3,0.2-0.5,0.5-0.5h144.3c0.3,0,0.5,0.2,0.5,0.5v86.4
			C-6549-1332.6-6549.2-1332.3-6549.5-1332.3z M-6693.4-1333.3h143.3v-85.4h-143.3V-1333.3z"/>
	</g>
	<g>
		<rect x="-6689.3" y="-1414.6" fill="#DBF2FF" width="135.1" height="77.2"/>
		<path d="M-6554.1-1336.9h-135.1c-0.3,0-0.5-0.2-0.5-0.5v-77.2c0-0.3,0.2-0.5,0.5-0.5h135.1c0.3,0,0.5,0.2,0.5,0.5v77.2
			C-6553.6-1337.2-6553.9-1336.9-6554.1-1336.9z M-6688.8-1337.9h134.1v-76.2h-134.1V-1337.9z"/>
	</g>
	<g>
		<path d="M-6549.5-1315.1h-144.3c-0.3,0-0.5-0.2-0.5-0.5v-17.3c0-0.3,0.2-0.5,0.5-0.5h144.3c0.3,0,0.5,0.2,0.5,0.5v17.3
			C-6549-1315.3-6549.2-1315.1-6549.5-1315.1z M-6693.4-1316.1h143.3v-16.3h-143.3V-1316.1z"/>
	</g>
	<g>
		<rect x="-6681" y="-1408.1" fill="#FFD1C8" width="15.8" height="15.8"/>
		<path d="M-6665.2-1391.8h-15.8c-0.3,0-0.5-0.2-0.5-0.5v-15.8c0-0.3,0.2-0.5,0.5-0.5h15.8c0.3,0,0.5,0.2,0.5,0.5v15.8
			C-6664.7-1392-6664.9-1391.8-6665.2-1391.8z M-6680.5-1392.8h14.8v-14.8h-14.8V-1392.8z"/>
	</g>
	<g>
		<rect x="-6625.7" y="-1408.1" fill="#FFEAB3" width="38" height="38"/>
		<path d="M-6587.7-1369.6h-38c-0.3,0-0.5-0.2-0.5-0.5v-38c0-0.3,0.2-0.5,0.5-0.5h38c0.3,0,0.5,0.2,0.5,0.5v38
			C-6587.2-1369.8-6587.4-1369.6-6587.7-1369.6z M-6625.2-1370.6h37v-37h-37V-1370.6z"/>
	</g>
	<g>
		<rect x="-6599.7" y="-1382.1" fill="#FFD1C8" width="38" height="38"/>
		<path d="M-6561.7-1343.5h-38c-0.3,0-0.5-0.2-0.5-0.5v-38c0-0.3,0.2-0.5,0.5-0.5h38c0.3,0,0.5,0.2,0.5,0.5v38
			C-6561.2-1343.8-6561.4-1343.5-6561.7-1343.5z M-6599.2-1344.5h37v-37h-37V-1344.5z"/>
	</g>
	<g>
		<rect x="-6681" y="-1385.9" fill="#E6E7E8" width="15.8" height="15.8"/>
		<path d="M-6665.2-1369.6h-15.8c-0.3,0-0.5-0.2-0.5-0.5v-15.8c0-0.3,0.2-0.5,0.5-0.5h15.8c0.3,0,0.5,0.2,0.5,0.5v15.8
			C-6664.7-1369.8-6664.9-1369.6-6665.2-1369.6z M-6680.5-1370.6h14.8v-14.8h-14.8V-1370.6z"/>
	</g>
	<g>
		<rect x="-6681" y="-1363.7" fill="#FFEAB3" width="15.8" height="15.8"/>
		<path d="M-6665.2-1347.4h-15.8c-0.3,0-0.5-0.2-0.5-0.5v-15.8c0-0.3,0.2-0.5,0.5-0.5h15.8c0.3,0,0.5,0.2,0.5,0.5v15.8
			C-6664.7-1347.6-6664.9-1347.4-6665.2-1347.4z M-6680.5-1348.4h14.8v-14.8h-14.8V-1348.4z"/>
	</g>
	<g>
		<g>
			<polygon fill="#FFFFFF" points="-6576.2,-1349.1 -6582.8,-1365.9 -6566.1,-1359.2 -6573.7,-1356.7 			"/>
			<path d="M-6576.2-1348.6c-0.2,0-0.4-0.1-0.5-0.3l-6.6-16.7c-0.1-0.2,0-0.4,0.1-0.5c0.1-0.1,0.4-0.2,0.5-0.1l16.7,6.6
				c0.2,0.1,0.3,0.3,0.3,0.5c0,0.2-0.1,0.4-0.3,0.5l-7.4,2.4l-2.4,7.4C-6575.8-1348.8-6576-1348.6-6576.2-1348.6
				C-6576.2-1348.6-6576.2-1348.6-6576.2-1348.6z M-6581.9-1365l5.7,14.4l2.1-6.3c0-0.2,0.2-0.3,0.3-0.3l6.3-2.1L-6581.9-1365z"/>
		</g>
		<g>
			<path d="M-6564.5-1347c-0.1,0-0.3,0-0.4-0.1l-9.2-9.2c-0.2-0.2-0.2-0.5,0-0.7c0.2-0.2,0.5-0.2,0.7,0l9.2,9.2
				c0.2,0.2,0.2,0.5,0,0.7C-6564.2-1347.1-6564.4-1347-6564.5-1347z"/>
		</g>
	</g>
	<g>
		<rect x="-6638.9" y="-1315.6" fill="#E6E7E8" width="34.3" height="15.5"/>
		<path d="M-6604.5-1299.6h-34.3c-0.3,0-0.5-0.2-0.5-0.5v-15.5c0-0.3,0.2-0.5,0.5-0.5h34.3c0.3,0,0.5,0.2,0.5,0.5v15.5
			C-6604-1299.8-6604.2-1299.6-6604.5-1299.6z M-6638.4-1300.6h33.3v-14.5h-33.3V-1300.6z"/>
	</g>
	<g>
		<path d="M-6599.4-1299.6h-44.6c-0.3,0-0.5-0.2-0.5-0.5s0.2-0.5,0.5-0.5h44.6c0.3,0,0.5,0.2,0.5,0.5S-6599.1-1299.6-6599.4-1299.6z
			"/>
	</g>
	<g>
		<g>
			<rect x="-6759.6" y="-1328" fill="#E6E7E8" width="51.2" height="12.5"/>
			<path d="M-6708.4-1315.1h-51.2c-0.3,0-0.5-0.2-0.5-0.5v-12.5c0-0.3,0.2-0.5,0.5-0.5h51.2c0.3,0,0.5,0.2,0.5,0.5v12.5
				C-6707.9-1315.3-6708.1-1315.1-6708.4-1315.1z M-6759.1-1316.1h50.2v-11.5h-50.2V-1316.1z"/>
		</g>
		<g>
			<polygon fill="#D2FFCF" points="-6741.1,-1368.2 -6721,-1356.6 -6741.1,-1345 			"/>
			<path d="M-6741.1-1344.5c-0.1,0-0.2,0-0.3-0.1c-0.2-0.1-0.3-0.3-0.3-0.4v-23.2c0-0.2,0.1-0.3,0.3-0.4c0.2-0.1,0.3-0.1,0.5,0
				l20.1,11.6c0.2,0.1,0.3,0.3,0.3,0.4s-0.1,0.3-0.3,0.4l-20.1,11.6C-6740.9-1344.5-6741-1344.5-6741.1-1344.5z M-6740.6-1367.3
				v21.5l18.6-10.7L-6740.6-1367.3z"/>
		</g>
		<g>
			<path d="M-6734-1338c-10.2,0-18.6-8.3-18.6-18.6s8.3-18.6,18.6-18.6s18.6,8.3,18.6,18.6S-6723.7-1338-6734-1338z M-6734-1374.1
				c-9.7,0-17.6,7.9-17.6,17.6s7.9,17.6,17.6,17.6s17.6-7.9,17.6-17.6S-6724.3-1374.1-6734-1374.1z"/>
		</g>
		<g>
			<path d="M-6729.2-1321.3h-9.4c-0.3,0-0.5-0.2-0.5-0.5s0.2-0.5,0.5-0.5h9.4c0.3,0,0.5,0.2,0.5,0.5S-6729-1321.3-6729.2-1321.3z"/>
		</g>
		<g>
			<rect x="-6759.6" y="-1393.6" fill="#E6E7E8" width="51.2" height="8.5"/>
			<path d="M-6708.4-1384.6h-51.2c-0.3,0-0.5-0.2-0.5-0.5v-8.5c0-0.3,0.2-0.5,0.5-0.5h51.2c0.3,0,0.5,0.2,0.5,0.5v8.5
				C-6707.9-1384.8-6708.1-1384.6-6708.4-1384.6z M-6759.1-1385.6h50.2v-7.5h-50.2V-1385.6z"/>
		</g>
		<g>
			<path d="M-6708.4-1327.5h-51.2c-0.3,0-0.5-0.2-0.5-0.5v-57.1c0-0.3,0.2-0.5,0.5-0.5h51.2c0.3,0,0.5,0.2,0.5,0.5v57.1
				C-6707.9-1327.8-6708.1-1327.5-6708.4-1327.5z M-6759.1-1328.5h50.2v-56.1h-50.2V-1328.5z"/>
		</g>
		<g>
			<path d="M-6741.1-1386.4c-0.3,0-0.5-0.2-0.5-0.5v-5c0-0.3,0.2-0.5,0.5-0.5s0.5,0.2,0.5,0.5v5
				C-6740.6-1386.6-6740.8-1386.4-6741.1-1386.4z"/>
		</g>
		<g>
			<path d="M-6734-1386.4c-0.3,0-0.5-0.2-0.5-0.5v-5c0-0.3,0.2-0.5,0.5-0.5s0.5,0.2,0.5,0.5v5
				C-6733.5-1386.6-6733.7-1386.4-6734-1386.4z"/>
		</g>
		<g>
			<path d="M-6726.8-1386.4c-0.3,0-0.5-0.2-0.5-0.5v-5c0-0.3,0.2-0.5,0.5-0.5s0.5,0.2,0.5,0.5v5
				C-6726.3-1386.6-6726.5-1386.4-6726.8-1386.4z"/>
		</g>
	</g>
	<g>
		<path d="M-6605.6-1362.6h-50.5c-0.3,0-0.5-0.2-0.5-0.5s0.2-0.5,0.5-0.5h50.5c0.3,0,0.5,0.2,0.5,0.5S-6605.3-1362.6-6605.6-1362.6z
			"/>
	</g>
	<g>
		<path d="M-6605.6-1355h-50.5c-0.3,0-0.5-0.2-0.5-0.5s0.2-0.5,0.5-0.5h50.5c0.3,0,0.5,0.2,0.5,0.5S-6605.3-1355-6605.6-1355z"/>
	</g>
	<g>
		<path d="M-6629.2-1347.4h-26.8c-0.3,0-0.5-0.2-0.5-0.5s0.2-0.5,0.5-0.5h26.8c0.3,0,0.5,0.2,0.5,0.5S-6629-1347.4-6629.2-1347.4z"
			/>
	</g>
	<g>
		<path d="M-6637.9-1369.6h-18.2c-0.3,0-0.5-0.2-0.5-0.5s0.2-0.5,0.5-0.5h18.2c0.3,0,0.5,0.2,0.5,0.5S-6637.6-1369.6-6637.9-1369.6z
			"/>
	</g>
	<g>
		<path d="M-6637.9-1377.5h-18.2c-0.3,0-0.5-0.2-0.5-0.5s0.2-0.5,0.5-0.5h18.2c0.3,0,0.5,0.2,0.5,0.5S-6637.6-1377.5-6637.9-1377.5z
			"/>
	</g>
	<g>
		<path d="M-6637.9-1407.6h-18.2c-0.3,0-0.5-0.2-0.5-0.5s0.2-0.5,0.5-0.5h18.2c0.3,0,0.5,0.2,0.5,0.5S-6637.6-1407.6-6637.9-1407.6z
			"/>
	</g>
	<g>
		<path d="M-6645.3-1399.7h-10.7c-0.3,0-0.5-0.2-0.5-0.5s0.2-0.5,0.5-0.5h10.7c0.3,0,0.5,0.2,0.5,0.5S-6645.1-1399.7-6645.3-1399.7z
			"/>
	</g>
	<g>
		<path d="M-6636.8-1399.7h-4.1c-0.3,0-0.5-0.2-0.5-0.5s0.2-0.5,0.5-0.5h4.1c0.3,0,0.5,0.2,0.5,0.5S-6636.5-1399.7-6636.8-1399.7z"
			/>
	</g>
	<g>
		<path d="M-6625.7-1385.4h-30.3c-0.3,0-0.5-0.2-0.5-0.5s0.2-0.5,0.5-0.5h30.3c0.3,0,0.5,0.2,0.5,0.5S-6625.5-1385.4-6625.7-1385.4z
			"/>
	</g>
	<g>
		<g>
			<g>
				<path d="M-6722.6-1271.6h-25.5c-6.9,0-12.5-5.6-12.5-12.5v-4c0-6.9,5.6-12.5,12.5-12.5h25.5c6.9,0,12.5,5.6,12.5,12.5v4
					C-6710.1-1277.2-6715.8-1271.6-6722.6-1271.6z M-6748.1-1299.6c-6.3,0-11.5,5.2-11.5,11.5v4c0,6.3,5.2,11.5,11.5,11.5h25.5
					c6.3,0,11.5-5.2,11.5-11.5v-4c0-6.3-5.2-11.5-11.5-11.5H-6748.1z"/>
			</g>
			<g>
				<path fill="#DBF2FF" d="M-6728.4-1283.8c-1.3,0-2.3-1-2.3-2.3l0,0c0-1.3,1-2.3,2.3-2.3h10.1c1.3,0,2.3,1,2.3,2.3l0,0
					c0,1.3-1,2.3-2.3,2.3H-6728.4z"/>
				<path d="M-6718.4-1283.3h-10.1c-1.5,0-2.8-1.3-2.8-2.8c0-1.5,1.3-2.8,2.8-2.8h10.1c1.5,0,2.8,1.3,2.8,2.8
					C-6715.6-1284.6-6716.8-1283.3-6718.4-1283.3z M-6728.4-1287.9c-1,0-1.8,0.8-1.8,1.8c0,1,0.8,1.8,1.8,1.8h10.1
					c1,0,1.8-0.8,1.8-1.8c0-1-0.8-1.8-1.8-1.8H-6728.4z"/>
			</g>
			<g>
				<path d="M-6733.2-1285.6c-0.3,0-0.5-0.2-0.5-0.5c0-2.7,2-4.8,4.6-5.1v-8.9c0-0.3,0.2-0.5,0.5-0.5s0.5,0.2,0.5,0.5v9.4
					c0,0.3-0.2,0.5-0.5,0.5c-2.3,0-4.1,1.9-4.1,4.1C-6732.7-1285.8-6733-1285.6-6733.2-1285.6z"/>
			</g>
			<g>
				<path d="M-6728.6-1271.6c-0.3,0-0.5-0.2-0.5-0.5v-4.7c0-0.3,0.2-0.5,0.5-0.5s0.5,0.2,0.5,0.5v4.7
					C-6728.1-1271.8-6728.3-1271.6-6728.6-1271.6z"/>
			</g>
		</g>
		<g>
			<path d="M-6705.8-1285.6h-4.8c-0.3,0-0.5-0.2-0.5-0.5s0.2-0.5,0.5-0.5h4.8c0.3,0,0.5,0.2,0.5,0.5S-6705.5-1285.6-6705.8-1285.6z"
				/>
		</g>
		<g>
			<path d="M-6698.3-1285.6h-4.7c-0.3,0-0.5-0.2-0.5-0.5s0.2-0.5,0.5-0.5h4.7c0.3,0,0.5,0.2,0.5,0.5S-6698-1285.6-6698.3-1285.6z"/>
		</g>
	</g>
	<g>
		<g>
			<polygon fill="#FFEAB3" points="-6526,-1365 -6519.5,-1365 -6519.5,-1362.3 -6507.5,-1362.3 -6495.7,-1362.3 -6495.7,-1365 
				-6489.2,-1365 -6489.2,-1362.3 -6489.1,-1362.3 -6479,-1368.6 -6479,-1385.2 -6536,-1385.2 -6536,-1368.6 -6526,-1362.4 			"/>
			<path d="M-6489.1-1361.8L-6489.1-1361.8c-0.4,0-0.6-0.2-0.6-0.5v-2.2h-5.5v2.2c0,0.3-0.2,0.5-0.5,0.5h-23.8
				c-0.3,0-0.5-0.2-0.5-0.5v-2.2h-5.5v2.1c0,0.2-0.1,0.3-0.3,0.4c-0.2,0.1-0.4,0.1-0.5,0l-10-6.2c-0.1-0.1-0.2-0.3-0.2-0.4v-16.7
				c0-0.3,0.2-0.5,0.5-0.5h57c0.3,0,0.5,0.2,0.5,0.5v16.7c0,0.2-0.1,0.3-0.2,0.4l-10.1,6.3
				C-6488.9-1361.8-6489-1361.8-6489.1-1361.8z M-6519-1362.8h22.8v-2.2c0-0.3,0.2-0.5,0.5-0.5h6.5c0.3,0,0.5,0.2,0.5,0.5v1.8
				l9.2-5.7v-15.9h-56v15.9l9,5.6v-1.7c0-0.3,0.2-0.5,0.5-0.5h6.5c0.3,0,0.5,0.2,0.5,0.5V-1362.8z"/>
		</g>
		<g>
			<polygon fill="#FFEAB3" points="-6489.1,-1362.3 -6489.2,-1362.3 -6489.2,-1357.2 -6495.7,-1357.2 -6495.7,-1362.3 
				-6507.5,-1362.3 -6519.5,-1362.3 -6519.5,-1357.2 -6526,-1357.2 -6526,-1362.4 -6536,-1368.6 -6536,-1344.7 -6479,-1344.7 
				-6479,-1368.6 			"/>
			<path d="M-6479-1344.2h-57c-0.3,0-0.5-0.2-0.5-0.5v-23.8c0-0.2,0.1-0.3,0.3-0.4c0.2-0.1,0.4-0.1,0.5,0l10,6.2
				c0.1,0.1,0.2,0.3,0.2,0.4v4.6h5.5v-4.6c0-0.3,0.2-0.5,0.5-0.5h23.8c0.3,0,0.5,0.2,0.5,0.5v4.6h5.5v-4.6c0-0.3,0.2-0.5,0.4-0.5
				l10-6.2c0.2-0.1,0.3-0.1,0.5,0c0.2,0.1,0.3,0.3,0.3,0.4v23.8C-6478.5-1344.5-6478.7-1344.2-6479-1344.2z M-6535.5-1345.2h56
				v-22.4l-9.2,5.7v4.7c0,0.3-0.2,0.5-0.5,0.5h-6.5c-0.3,0-0.5-0.2-0.5-0.5v-4.6h-22.8v4.6c0,0.3-0.2,0.5-0.5,0.5h-6.5
				c-0.3,0-0.5-0.2-0.5-0.5v-4.9l-9-5.6V-1345.2z"/>
		</g>
		<g>
			<path d="M-6519.5-1356.7h-6.5c-0.3,0-0.5-0.2-0.5-0.5v-7.8c0-0.3,0.2-0.5,0.5-0.5h6.5c0.3,0,0.5,0.2,0.5,0.5v7.8
				C-6519-1357-6519.2-1356.7-6519.5-1356.7z M-6525.5-1357.7h5.5v-6.8h-5.5V-1357.7z"/>
		</g>
		<g>
			<path d="M-6489.2-1356.7h-6.5c-0.3,0-0.5-0.2-0.5-0.5v-7.8c0-0.3,0.2-0.5,0.5-0.5h6.5c0.3,0,0.5,0.2,0.5,0.5v7.8
				C-6488.7-1357-6488.9-1356.7-6489.2-1356.7z M-6495.2-1357.7h5.5v-6.8h-5.5V-1357.7z"/>
		</g>
		<g>
			<path d="M-6494.6-1384.7c-0.3,0-0.5-0.2-0.5-0.5v-4.8c0-2.7-2.2-4.9-4.9-4.9h-15.1c-2.7,0-4.9,2.2-4.9,4.9v4.8
				c0,0.3-0.2,0.5-0.5,0.5s-0.5-0.2-0.5-0.5v-4.8c0-3.2,2.6-5.9,5.9-5.9h15.1c3.2,0,5.9,2.6,5.9,5.9v4.8
				C-6494.1-1385-6494.3-1384.7-6494.6-1384.7z"/>
		</g>
	</g>
	<g>
		<rect x="-6535.4" y="-1328.8" fill="#DBF2FF" width="52.4" height="67.6"/>
		<path d="M-6483.1-1260.7h-52.4c-0.3,0-0.5-0.2-0.5-0.5v-67.6c0-0.3,0.2-0.5,0.5-0.5h52.4c0.3,0,0.5,0.2,0.5,0.5v67.6
			C-6482.6-1260.9-6482.8-1260.7-6483.1-1260.7z M-6534.9-1261.7h51.4v-66.6h-51.4V-1261.7z"/>
	</g>
	<g>
		<rect x="-6528.3" y="-1321.8" fill="#FFD1C8" width="9.8" height="9.8"/>
		<path d="M-6518.4-1311.5h-9.8c-0.3,0-0.5-0.2-0.5-0.5v-9.8c0-0.3,0.2-0.5,0.5-0.5h9.8c0.3,0,0.5,0.2,0.5,0.5v9.8
			C-6517.9-1311.7-6518.1-1311.5-6518.4-1311.5z M-6527.8-1312.5h8.8v-8.8h-8.8V-1312.5z"/>
	</g>
	<g>
		<rect x="-6528.3" y="-1304" fill="#FFD1C8" width="9.8" height="9.8"/>
		<path d="M-6518.4-1293.6h-9.8c-0.3,0-0.5-0.2-0.5-0.5v-9.8c0-0.3,0.2-0.5,0.5-0.5h9.8c0.3,0,0.5,0.2,0.5,0.5v9.8
			C-6517.9-1293.8-6518.1-1293.6-6518.4-1293.6z M-6527.8-1294.6h8.8v-8.8h-8.8V-1294.6z"/>
	</g>
	<g>
		<path d="M-6518.4-1275.7h-9.8c-0.3,0-0.5-0.2-0.5-0.5v-9.8c0-0.3,0.2-0.5,0.5-0.5h9.8c0.3,0,0.5,0.2,0.5,0.5v9.8
			C-6517.9-1276-6518.1-1275.7-6518.4-1275.7z M-6527.8-1276.7h8.8v-8.8h-8.8V-1276.7z"/>
	</g>
	<g>
		<path d="M-6490.6-1321.3h-22.7c-0.3,0-0.5-0.2-0.5-0.5s0.2-0.5,0.5-0.5h22.7c0.3,0,0.5,0.2,0.5,0.5S-6490.3-1321.3-6490.6-1321.3z
			"/>
	</g>
	<g>
		<path d="M-6490.6-1297.4h-22.7c-0.3,0-0.5-0.2-0.5-0.5s0.2-0.5,0.5-0.5h22.7c0.3,0,0.5,0.2,0.5,0.5S-6490.3-1297.4-6490.6-1297.4z
			"/>
	</g>
	<g>
		<path d="M-6499.1-1280.2h-14.2c-0.3,0-0.5-0.2-0.5-0.5s0.2-0.5,0.5-0.5h14.2c0.3,0,0.5,0.2,0.5,0.5S-6498.8-1280.2-6499.1-1280.2z
			"/>
	</g>
	<g>
		<path d="M-6484.5-1284.9h-28.8c-0.3,0-0.5-0.2-0.5-0.5s0.2-0.5,0.5-0.5h28.8c0.3,0,0.5,0.2,0.5,0.5S-6484.2-1284.9-6484.5-1284.9z
			"/>
	</g>
	<g>
		<path d="M-6499.1-1275.7h-14.2c-0.3,0-0.5-0.2-0.5-0.5s0.2-0.5,0.5-0.5h14.2c0.3,0,0.5,0.2,0.5,0.5S-6498.8-1275.7-6499.1-1275.7z
			"/>
	</g>
	<g>
		<path d="M-6500.1-1311.5h-13.2c-0.3,0-0.5-0.2-0.5-0.5s0.2-0.5,0.5-0.5h13.2c0.3,0,0.5,0.2,0.5,0.5S-6499.8-1311.5-6500.1-1311.5z
			"/>
	</g>
	<g>
		<path fill="#E6E7E8" d="M-6539.1-1304c-11.1,0-20.4,7.8-22.7,18.2h-37.6c-2.8,0-5.1,2.3-5.1,5.1c0,2.8,2.3,5.1,5.1,5.1h37.6
			c2.3,10.4,11.6,18.2,22.7,18.2c12.9,0,23.3-10.4,23.3-23.3S-6526.3-1304-6539.1-1304z M-6539.1-1263.5c-9.5,0-17.2-7.7-17.2-17.2
			c0-9.5,7.7-17.2,17.2-17.2c9.5,0,17.2,7.7,17.2,17.2C-6521.9-1271.2-6529.6-1263.5-6539.1-1263.5z"/>
		<path d="M-6539.1-1256.9c-10.9,0-20.6-7.6-23.1-18.2h-37.2c-3.1,0-5.6-2.5-5.6-5.6c0-3.1,2.5-5.6,5.6-5.6h37.2
			c2.5-10.6,12.2-18.2,23.1-18.2c13.1,0,23.8,10.7,23.8,23.8C-6515.4-1267.6-6526-1256.9-6539.1-1256.9z M-6599.4-1285.3
			c-2.5,0-4.6,2.1-4.6,4.6c0,2.5,2.1,4.6,4.6,4.6h37.6c0.2,0,0.4,0.2,0.5,0.4c2.3,10.3,11.6,17.8,22.2,17.8
			c12.6,0,22.8-10.2,22.8-22.8c0-12.6-10.2-22.8-22.8-22.8c-10.6,0-19.9,7.5-22.2,17.8c-0.1,0.2-0.3,0.4-0.5,0.4H-6599.4z
			 M-6539.1-1263c-9.8,0-17.7-8-17.7-17.7c0-9.8,8-17.7,17.7-17.7l0,0c9.8,0,17.7,8,17.7,17.7S-6529.4-1263-6539.1-1263z
			 M-6539.1-1297.4c-9.2,0-16.7,7.5-16.7,16.7c0,9.2,7.5,16.7,16.7,16.7s16.7-7.5,16.7-16.7S-6529.9-1297.4-6539.1-1297.4
			L-6539.1-1297.4z"/>
	</g>
	<g>
		<circle fill="#FFFFFF" cx="-6539.1" cy="-1280.7" r="17.2"/>
		<path d="M-6539.1-1263c-9.8,0-17.7-8-17.7-17.7c0-9.8,8-17.7,17.7-17.7c9.8,0,17.7,8,17.7,17.7S-6529.4-1263-6539.1-1263z
			 M-6539.1-1297.4c-9.2,0-16.7,7.5-16.7,16.7c0,9.2,7.5,16.7,16.7,16.7s16.7-7.5,16.7-16.7S-6529.9-1297.4-6539.1-1297.4z"/>
	</g>
	<g>
		<path d="M-6710.5-1452.9c1.7-2.3,4.2-3.4,7.4-3.4c3.2,0,5.7,1.1,7.4,3.4c1.5,2,2.3,4.7,2.3,8c0,3.3-0.8,6-2.3,8
			c-1.7,2.2-4.2,3.3-7.4,3.3s-5.7-1.1-7.4-3.3c-1.5-2-2.3-4.7-2.3-8C-6712.7-1448.2-6712-1450.8-6710.5-1452.9z M-6709.7-1437.6
			c1.5,2.1,3.7,3.2,6.6,3.2c2.9,0,5.1-1.1,6.6-3.2c1.3-1.8,2-4.3,2-7.3c0-3-0.7-5.4-2-7.3c-1.5-2.1-3.7-3.2-6.6-3.2
			c-2.9,0-5.1,1.1-6.6,3.2c-1.3,1.9-2,4.3-2,7.3C-6711.7-1441.9-6711-1439.4-6709.7-1437.6z"/>
		<path d="M-6689.4-1455.8h12.7v1h-11.7v9h9.3v0.9h-9.3v10.9h-1V-1455.8z"/>
		<path d="M-6673.5-1455.8h12.7v1h-11.7v9h9.3v0.9h-9.3v10.9h-1V-1455.8z"/>
		<path d="M-6657.5-1455.8h1v21.8h-1V-1455.8z"/>
		<path d="M-6637.4-1435.5c-1.5,1.3-3.5,2-5.9,2c-3.1,0-5.5-1.1-7-3.4c-1.4-2-2-4.6-2-7.8s0.7-5.9,2.1-8c1.6-2.3,4-3.5,7.2-3.5
			c2.2,0,4,0.6,5.5,1.8c1.1,0.8,1.8,1.9,2.3,3.1l-0.9,0.5c-1-3-3.3-4.5-7-4.5c-2.7,0-4.8,1.1-6.2,3.4c-1.2,1.9-1.8,4.3-1.8,7.2
			c0,2.9,0.6,5.3,1.7,7.1c1.4,2.2,3.4,3.3,6.1,3.3c2.2,0,3.9-0.6,5.3-1.8c1.1-0.9,1.7-2.1,2.1-3.5l0.9,0.5
			C-6635.5-1437.8-6636.3-1436.5-6637.4-1435.5z"/>
		<path d="M-6630.8-1455.8h13.3v1h-12.3v9h9.7v0.9h-9.7v9.9h12.6v1h-13.6V-1455.8z"/>
		<path d="M-6605.5-1455.8h1v21.8h-1V-1455.8z"/>
		<path d="M-6585.4-1435.5c-1.5,1.3-3.5,2-5.9,2c-3.1,0-5.5-1.1-7-3.4c-1.4-2-2-4.6-2-7.8s0.7-5.9,2.1-8c1.6-2.3,4-3.5,7.2-3.5
			c2.2,0,4,0.6,5.5,1.8c1.1,0.8,1.8,1.9,2.3,3.1l-0.9,0.5c-1-3-3.3-4.5-7-4.5c-2.7,0-4.8,1.1-6.2,3.4c-1.2,1.9-1.8,4.3-1.8,7.2
			c0,2.9,0.6,5.3,1.7,7.1c1.4,2.2,3.4,3.3,6.1,3.3c2.2,0,3.9-0.6,5.3-1.8c1.1-0.9,1.7-2.1,2.1-3.5l0.9,0.5
			C-6583.6-1437.8-6584.3-1436.5-6585.4-1435.5z"/>
		<path d="M-6577.4-1452.9c1.7-2.3,4.2-3.4,7.4-3.4c3.2,0,5.7,1.1,7.4,3.4c1.5,2,2.3,4.7,2.3,8c0,3.3-0.8,6-2.3,8
			c-1.7,2.2-4.2,3.3-7.4,3.3s-5.7-1.1-7.4-3.3c-1.5-2-2.3-4.7-2.3-8C-6579.7-1448.2-6578.9-1450.8-6577.4-1452.9z M-6576.7-1437.6
			c1.5,2.1,3.7,3.2,6.6,3.2c2.9,0,5.1-1.1,6.6-3.2c1.3-1.8,2-4.3,2-7.3c0-3-0.7-5.4-2-7.3c-1.5-2.1-3.7-3.2-6.6-3.2
			s-5.1,1.1-6.6,3.2c-1.3,1.9-2,4.3-2,7.3C-6578.6-1441.9-6578-1439.4-6576.7-1437.6z"/>
		<path d="M-6556.3-1455.8h1l13.7,20.1v-20.1h1v21.8h-1l-13.7-20v20h-1V-1455.8z"/>
		<path d="M-6535.8-1440.6c0.1,1.9,0.7,3.4,1.9,4.5c1.1,1.1,2.7,1.7,4.6,1.7c1.7,0,3.1-0.4,4.2-1.3c1.3-0.9,1.9-2.2,1.9-3.8
			c0-1.7-0.7-2.9-2-3.8c-0.7-0.4-2.1-1-4.4-1.6c0,0-0.2-0.1-0.4-0.1c-2.5-0.7-4.1-1.4-4.8-2c-1-0.9-1.5-2.1-1.5-3.6
			c0-1.9,0.6-3.3,1.9-4.3c1.2-0.9,2.7-1.4,4.6-1.4c2,0,3.7,0.6,4.9,1.7c1.3,1.1,2,2.7,2.1,4.7h-1c0-1.8-0.6-3.1-1.8-4.1
			c-1.1-0.9-2.5-1.4-4.3-1.4c-1.6,0-2.9,0.4-3.9,1.2c-1.1,0.8-1.6,2.1-1.6,3.6c0,1.1,0.4,2.1,1.3,2.9c0.7,0.6,2.1,1.2,4.3,1.8
			c0,0,0.1,0,0.2,0c0.1,0,0.2,0,0.3,0.1c2.3,0.6,3.9,1.2,4.8,1.8c1.5,1,2.3,2.4,2.3,4.2c0,2-0.7,3.6-2.2,4.7c-1.3,1-3,1.5-5.1,1.5
			c-2.2,0-4-0.6-5.2-1.9c-1.3-1.2-2-3-2.2-5.2H-6535.8z"/>
	</g>
	<g>
		<path d="M-6491.6-1444.2h-18.7c-0.3,0-0.5-0.2-0.5-0.5s0.2-0.5,0.5-0.5h18.7c0.3,0,0.5,0.2,0.5,0.5S-6491.3-1444.2-6491.6-1444.2z
			"/>
	</g>
	<g>
		<path d="M-6725.1-1444.2h-18.7c-0.3,0-0.5-0.2-0.5-0.5s0.2-0.5,0.5-0.5h18.7c0.3,0,0.5,0.2,0.5,0.5S-6724.8-1444.2-6725.1-1444.2z
			"/>
	</g>
	<g>
		<path d="M-6705.8-1418.7h-28.6c-0.3,0-0.5-0.2-0.5-0.5s0.2-0.5,0.5-0.5h28.6c0.3,0,0.5,0.2,0.5,0.5S-6705.5-1418.7-6705.8-1418.7z
			"/>
	</g>
	<g>
		<path d="M-6723.4-1409.5h-27.6c-0.3,0-0.5-0.2-0.5-0.5s0.2-0.5,0.5-0.5h27.6c0.3,0,0.5,0.2,0.5,0.5S-6723.1-1409.5-6723.4-1409.5z
			"/>
	</g>
	<g>
		<path d="M-6735.4-1427.8h-11.4c-0.3,0-0.5-0.2-0.5-0.5s0.2-0.5,0.5-0.5h11.4c0.3,0,0.5,0.2,0.5,0.5S-6735.1-1427.8-6735.4-1427.8z
			"/>
	</g>
	<g>
		<path d="M-6519.5-1421h-18c-0.3,0-0.5-0.2-0.5-0.5s0.2-0.5,0.5-0.5h18c0.3,0,0.5,0.2,0.5,0.5S-6519.2-1421-6519.5-1421z"/>
	</g>
	<g>
		<path d="M-6501.9-1428.8h-4.7c-0.3,0-0.5-0.2-0.5-0.5s0.2-0.5,0.5-0.5h4.7c0.3,0,0.5,0.2,0.5,0.5S-6501.7-1428.8-6501.9-1428.8z"
			/>
	</g>
	<g>
		<path d="M-6501.9-1406h-34c-0.3,0-0.5-0.2-0.5-0.5s0.2-0.5,0.5-0.5h34c0.3,0,0.5,0.2,0.5,0.5S-6501.7-1406-6501.9-1406z"/>
	</g>
	<g>
		<g>
			<path fill="#FFD1C8" d="M-6627.6-1305.3h-48.7c-2.2,0-4,1.8-4,4v33.6c0,2.2,1.8,4,4,4h32.6l12.1,12.1v-12.1h4c2.2,0,4-1.8,4-4
				v-33.6C-6623.6-1303.5-6625.4-1305.3-6627.6-1305.3z"/>
			<path d="M-6631.5-1251.1c-0.1,0-0.3-0.1-0.4-0.1l-12-12h-32.4c-2.5,0-4.5-2-4.5-4.5v-33.6c0-2.5,2-4.5,4.5-4.5h48.7
				c2.5,0,4.5,2,4.5,4.5v33.6c0,2.5-2,4.5-4.5,4.5h-3.5v11.6c0,0.2-0.1,0.4-0.3,0.5C-6631.4-1251.1-6631.5-1251.1-6631.5-1251.1z
				 M-6676.3-1304.8c-1.9,0-3.5,1.6-3.5,3.5v33.6c0,1.9,1.6,3.5,3.5,3.5h32.6c0.1,0,0.3,0.1,0.4,0.1l11.3,11.3v-10.9
				c0-0.3,0.2-0.5,0.5-0.5h4c1.9,0,3.5-1.6,3.5-3.5v-33.6c0-1.9-1.6-3.5-3.5-3.5H-6676.3z"/>
		</g>
		<g>
			<line fill="#FFFFFF" x1="-6673.7" y1="-1295.1" x2="-6664.2" y2="-1295.1"/>
			<path d="M-6664.2-1294.6h-9.5c-0.3,0-0.5-0.2-0.5-0.5s0.2-0.5,0.5-0.5h9.5c0.3,0,0.5,0.2,0.5,0.5S-6663.9-1294.6-6664.2-1294.6z"
				/>
		</g>
		<g>
			<line fill="#FFFFFF" x1="-6654.8" y1="-1295.1" x2="-6630.1" y2="-1295.1"/>
			<path d="M-6630.1-1294.6h-24.7c-0.3,0-0.5-0.2-0.5-0.5s0.2-0.5,0.5-0.5h24.7c0.3,0,0.5,0.2,0.5,0.5S-6629.8-1294.6-6630.1-1294.6
				z"/>
		</g>
		<g>
			<line fill="#FFFFFF" x1="-6673.7" y1="-1287.9" x2="-6659.8" y2="-1287.9"/>
			<path d="M-6659.8-1287.4h-14c-0.3,0-0.5-0.2-0.5-0.5s0.2-0.5,0.5-0.5h14c0.3,0,0.5,0.2,0.5,0.5S-6659.5-1287.4-6659.8-1287.4z"/>
		</g>
		<g>
			<line fill="#FFFFFF" x1="-6654.5" y1="-1287.9" x2="-6648.8" y2="-1287.9"/>
			<path d="M-6648.8-1287.4h-5.8c-0.3,0-0.5-0.2-0.5-0.5s0.2-0.5,0.5-0.5h5.8c0.3,0,0.5,0.2,0.5,0.5S-6648.5-1287.4-6648.8-1287.4z"
				/>
		</g>
		<g>
			<line fill="#FFFFFF" x1="-6643.4" y1="-1287.9" x2="-6630.1" y2="-1287.9"/>
			<path d="M-6630.1-1287.4h-13.3c-0.3,0-0.5-0.2-0.5-0.5s0.2-0.5,0.5-0.5h13.3c0.3,0,0.5,0.2,0.5,0.5S-6629.8-1287.4-6630.1-1287.4
				z"/>
		</g>
		<g>
			<line fill="#FFFFFF" x1="-6651.9" y1="-1280.8" x2="-6630.1" y2="-1280.8"/>
			<path d="M-6630.1-1280.3h-21.8c-0.3,0-0.5-0.2-0.5-0.5s0.2-0.5,0.5-0.5h21.8c0.3,0,0.5,0.2,0.5,0.5S-6629.8-1280.3-6630.1-1280.3
				z"/>
		</g>
		<g>
			<line fill="#FFFFFF" x1="-6673.7" y1="-1280.8" x2="-6668" y2="-1280.8"/>
			<path d="M-6668-1280.3h-5.8c-0.3,0-0.5-0.2-0.5-0.5s0.2-0.5,0.5-0.5h5.8c0.3,0,0.5,0.2,0.5,0.5S-6667.7-1280.3-6668-1280.3z"/>
		</g>
		<g>
			<line fill="#FFFFFF" x1="-6673.7" y1="-1273.7" x2="-6642.4" y2="-1273.7"/>
			<path d="M-6642.4-1273.2h-31.3c-0.3,0-0.5-0.2-0.5-0.5s0.2-0.5,0.5-0.5h31.3c0.3,0,0.5,0.2,0.5,0.5S-6642.2-1273.2-6642.4-1273.2
				z"/>
		</g>
	</g>
	<g>
		<path d="M-6528.4-1278.5c-0.1,0-0.3,0-0.4-0.1l-8.9-8.9c-0.2-0.2-0.2-0.5,0-0.7s0.5-0.2,0.7,0l8.9,8.9c0.2,0.2,0.2,0.5,0,0.7
			C-6528.1-1278.6-6528.3-1278.5-6528.4-1278.5z"/>
	</g>
	<g>
		<path d="M-6533.7-1270.7c-0.1,0-0.3,0-0.4-0.1l-15.8-15.8c-0.2-0.2-0.2-0.5,0-0.7c0.2-0.2,0.5-0.2,0.7,0l15.8,15.8
			c0.2,0.2,0.2,0.5,0,0.7C-6533.4-1270.7-6533.5-1270.7-6533.7-1270.7z"/>
	</g>
</g>
<g>
	<g>
		<g>
			<rect x="0" fill="#FFFFFF" width="1400" height="980"/>
		</g>
	</g>
	<g>
		<path fill="#FFFAD8" d="M712.1,711.5c136.6,0,255-77.3,314.3-190.4c-59.2-113.2-177.7-190.4-314.3-190.4
			c-136.6,0-255,77.3-314.3,190.4C457,634.3,575.5,711.5,712.1,711.5z"/>
		<path d="M712.1,713.4C579,713.4,458,640,396.2,522c-0.3-0.5-0.3-1.2,0-1.7C458,402.2,579,328.8,712.1,328.8
			c133.1,0,254.1,73.3,315.9,191.4c0.3,0.5,0.3,1.2,0,1.7C966.2,640,845.1,713.4,712.1,713.4z M399.9,521.1
			c61.3,116.4,180.8,188.6,312.2,188.6c131.4,0,250.9-72.2,312.2-188.6C963,404.8,843.4,332.5,712.1,332.5
			C580.7,332.5,461.2,404.8,399.9,521.1z"/>
	</g>
	<g>
		<path fill="#FFFFFF" d="M870,521.1c0,87.2-70.7,157.9-157.9,157.9c-87.2,0-157.9-70.7-157.9-157.9c0-87.2,70.7-157.9,157.9-157.9
			C799.3,363.2,870,433.9,870,521.1z"/>
		<path d="M712.1,680.9c-88.1,0-159.8-71.7-159.8-159.8c0-88.1,71.7-159.8,159.8-159.8c88.1,0,159.8,71.7,159.8,159.8
			C871.8,609.2,800.2,680.9,712.1,680.9z M712.1,365C626,365,556,435,556,521.1c0,86.1,70,156.1,156.1,156.1
			c86.1,0,156.1-70,156.1-156.1C868.2,435,798.1,365,712.1,365z"/>
	</g>
	<g>
		<path fill="#3DC3FF" d="M831.6,521.1c0,66-53.5,119.5-119.5,119.5c-66,0-119.5-53.5-119.5-119.5c0-66,53.5-119.5,119.5-119.5
			C778.1,401.6,831.6,455.1,831.6,521.1z"/>
		<path d="M712.1,642.5c-66.9,0-121.4-54.4-121.4-121.4c0-66.9,54.4-121.4,121.4-121.4c66.9,0,121.4,54.4,121.4,121.4
			C833.4,588,779,642.5,712.1,642.5z M712.1,403.4c-64.9,0-117.7,52.8-117.7,117.7c0,64.9,52.8,117.7,117.7,117.7
			c64.9,0,117.7-52.8,117.7-117.7C829.8,456.2,777,403.4,712.1,403.4z"/>
	</g>
	<g>
		<path fill="#FFFFFF" d="M785.2,566.2c0,21.6-17.5,39.1-39.1,39.1c-21.6,0-39.1-17.5-39.1-39.1c0-21.6,17.5-39.1,39.1-39.1
			C767.7,527.1,785.2,544.6,785.2,566.2z"/>
		<path d="M746.1,607.1c-22.6,0-40.9-18.3-40.9-40.9c0-22.6,18.3-40.9,40.9-40.9c22.6,0,40.9,18.3,40.9,40.9
			C787.1,588.7,768.7,607.1,746.1,607.1z M746.1,529c-20.5,0-37.2,16.7-37.2,37.2c0,20.5,16.7,37.2,37.2,37.2
			c20.5,0,37.2-16.7,37.2-37.2C783.4,545.7,766.7,529,746.1,529z"/>
	</g>
	<g>
		<path d="M693.9,591.4c-0.2,0-0.3,0-0.5-0.1c-31.7-8.4-53.9-37.3-53.9-70.2c0-8.2,1.4-16.5,4.3-24.4c0.2-0.5,0.6-1,1.2-1.1
			c0.5-0.2,1.1-0.1,1.6,0.3c6.4,4.5,13.8,6.9,21.5,6.9c20.5,0,37.2-16.7,37.2-37.2c0-4.8-0.9-9.5-2.8-14c-0.2-0.5-0.2-1.1,0.1-1.6
			s0.8-0.8,1.4-0.9c2.9-0.3,5.5-0.5,8.1-0.5c40,0,72.6,32.6,72.6,72.6c0,1-0.8,1.8-1.8,1.8c-1,0-1.8-0.8-1.8-1.8
			c0-38-30.9-68.9-68.9-68.9c-1.7,0-3.5,0.1-5.3,0.2c1.5,4.3,2.2,8.6,2.2,13.1c0,22.6-18.3,40.9-40.9,40.9c-7.6,0-15-2.1-21.5-6.2
			c-2.2,6.9-3.3,13.9-3.3,20.9c0,31.2,21.1,58.6,51.2,66.6c1,0.3,1.6,1.3,1.3,2.3C695.4,590.8,694.7,591.4,693.9,591.4z"/>
	</g>
	<g>
		<path d="M1162.5,522.9h-95.3c-1,0-1.8-0.8-1.8-1.8c0-1,0.8-1.8,1.8-1.8h95.3c1,0,1.8,0.8,1.8,1.8
			C1164.3,522.1,1163.5,522.9,1162.5,522.9z"/>
	</g>
	<g>
		<path d="M356.9,521.8h-95.3c-1,0-1.8-0.8-1.8-1.8c0-1,0.8-1.8,1.8-1.8h95.3c1,0,1.8,0.8,1.8,1.8
			C358.8,520.9,358,521.8,356.9,521.8z"/>
	</g>
	<g>
		<g>
			<g>
				<path fill="#231F20" d="M824.8,838.5c-1,0-1.8-0.8-1.8-1.8v-36.8c0-1,0.8-1.8,1.8-1.8h101.7l78.3-81.9c0.7-0.7,1.7-0.8,2.4-0.2
					l51.1,39l51.5-65c0.3-0.4,0.8-0.6,1.3-0.7c0.5,0,1,0.1,1.4,0.4l51.2,43.2l68-75.6c0.7-0.8,1.8-0.8,2.6-0.1
					c0.8,0.7,0.8,1.8,0.1,2.6l-69.2,76.9c-0.7,0.7-1.8,0.8-2.6,0.2l-51.1-43.1l-51.4,64.9c-0.6,0.8-1.8,0.9-2.6,0.3l-51.3-39.1
					l-77.7,81.3c-0.3,0.4-0.8,0.6-1.3,0.6H826.7v35C826.7,837.7,825.9,838.5,824.8,838.5z"/>
			</g>
			<g>
				<path fill="#231F20" d="M1263.9,838.5H785c-1,0-1.8-0.8-1.8-1.8c0-1,0.8-1.8,1.8-1.8h478.9c1,0,1.8,0.8,1.8,1.8
					C1265.7,837.7,1264.9,838.5,1263.9,838.5z"/>
			</g>
			<g>
				<path fill="#231F20" d="M848.5,838.5c-1,0-1.8-0.8-1.8-1.8v-36.8c0-1,0.8-1.8,1.8-1.8c1,0,1.8,0.8,1.8,1.8v36.8
					C850.3,837.7,849.5,838.5,848.5,838.5z"/>
			</g>
			<g>
				<path fill="#231F20" d="M874.8,838.5c-1,0-1.8-0.8-1.8-1.8v-36.8c0-1,0.8-1.8,1.8-1.8c1,0,1.8,0.8,1.8,1.8v36.8
					C876.6,837.7,875.8,838.5,874.8,838.5z"/>
			</g>
			<g>
				<path fill="#231F20" d="M901.1,838.5c-1,0-1.8-0.8-1.8-1.8v-36.8c0-1,0.8-1.8,1.8-1.8c1,0,1.8,0.8,1.8,1.8v36.8
					C902.9,837.7,902.1,838.5,901.1,838.5z"/>
			</g>
			<g>
				<path fill="#231F20" d="M927.4,838.5c-1,0-1.8-0.8-1.8-1.8v-36.8c0-1,0.8-1.8,1.8-1.8c1,0,1.8,0.8,1.8,1.8v36.8
					C929.2,837.7,928.4,838.5,927.4,838.5z"/>
			</g>
			<g>
				<path fill="#231F20" d="M953.7,838.5c-1,0-1.8-0.8-1.8-1.8v-64.3c0-1,0.8-1.8,1.8-1.8c1,0,1.8,0.8,1.8,1.8v64.3
					C955.5,837.7,954.7,838.5,953.7,838.5z"/>
			</g>
			<g>
				<path fill="#231F20" d="M980,838.5c-1,0-1.8-0.8-1.8-1.8v-91.4c0-1,0.8-1.8,1.8-1.8c1,0,1.8,0.8,1.8,1.8v91.4
					C981.8,837.7,981,838.5,980,838.5z"/>
			</g>
			<g>
				<path fill="#231F20" d="M1006.2,838.5c-1,0-1.8-0.8-1.8-1.8V717.4c0-1,0.8-1.8,1.8-1.8c1,0,1.8,0.8,1.8,1.8v119.3
					C1008.1,837.7,1007.3,838.5,1006.2,838.5z"/>
			</g>
			<g>
				<path fill="#231F20" d="M1032.5,838.5c-1,0-1.8-0.8-1.8-1.8v-99.6c0-1,0.8-1.8,1.8-1.8c1,0,1.8,0.8,1.8,1.8v99.6
					C1034.4,837.7,1033.6,838.5,1032.5,838.5z"/>
			</g>
			<g>
				<path fill="#231F20" d="M1058.8,838.5c-1,0-1.8-0.8-1.8-1.8v-79.2c0-1,0.8-1.8,1.8-1.8c1,0,1.8,0.8,1.8,1.8v79.2
					C1060.7,837.7,1059.8,838.5,1058.8,838.5z"/>
			</g>
			<g>
				<path fill="#231F20" d="M1085.1,838.5c-1,0-1.8-0.8-1.8-1.8V724.3c0-1,0.8-1.8,1.8-1.8c1,0,1.8,0.8,1.8,1.8v112.4
					C1087,837.7,1086.1,838.5,1085.1,838.5z"/>
			</g>
			<g>
				<path fill="#231F20" d="M1111.4,838.5c-1,0-1.8-0.8-1.8-1.8V691.1c0-1,0.8-1.8,1.8-1.8c1,0,1.8,0.8,1.8,1.8v145.6
					C1113.3,837.7,1112.4,838.5,1111.4,838.5z"/>
			</g>
			<g>
				<path fill="#231F20" d="M1137.7,838.5c-1,0-1.8-0.8-1.8-1.8V713.1c0-1,0.8-1.8,1.8-1.8c1,0,1.8,0.8,1.8,1.8v123.6
					C1139.5,837.7,1138.7,838.5,1137.7,838.5z"/>
			</g>
			<g>
				<path fill="#231F20" d="M1164,838.5c-1,0-1.8-0.8-1.8-1.8V735.5c0-1,0.8-1.8,1.8-1.8c1,0,1.8,0.8,1.8,1.8v101.2
					C1165.8,837.7,1165,838.5,1164,838.5z"/>
			</g>
			<g>
				<path fill="#231F20" d="M1190.3,838.5c-1,0-1.8-0.8-1.8-1.8V707.5c0-1,0.8-1.8,1.8-1.8c1,0,1.8,0.8,1.8,1.8v129.2
					C1192.1,837.7,1191.3,838.5,1190.3,838.5z"/>
			</g>
			<g>
				<path fill="#231F20" d="M1216.6,838.5c-1,0-1.8-0.8-1.8-1.8V677.6c0-1,0.8-1.8,1.8-1.8c1,0,1.8,0.8,1.8,1.8v159.1
					C1218.4,837.7,1217.6,838.5,1216.6,838.5z"/>
			</g>
			<g>
				<path fill="#231F20" d="M1235.4,675.9c-0.9,0-1.7-0.7-1.8-1.7l-1.4-14.5l-16.8,1.2c-1,0-1.9-0.7-2-1.7c-0.1-1,0.7-1.9,1.7-2
					l18.6-1.3c1,0,1.9,0.7,2,1.7l1.6,16.3c0.1,1-0.6,1.9-1.6,2C1235.6,675.9,1235.5,675.9,1235.4,675.9z"/>
			</g>
		</g>
		<g>
			<g>
				<path fill="#231F20" d="M1132.7,618.2c-0.5,0-0.9-0.2-1.3-0.5l-30-30c-0.7-0.7-0.7-1.9,0-2.6s1.9-0.7,2.6,0l30,30
					c0.7,0.7,0.7,1.9,0,2.6C1133.6,618,1133.1,618.2,1132.7,618.2z"/>
			</g>
			<g>
				<path fill="#231F20" d="M1102.7,618.2c-0.5,0-0.9-0.2-1.3-0.5c-0.7-0.7-0.7-1.9,0-2.6l30-30c0.7-0.7,1.9-0.7,2.6,0
					s0.7,1.9,0,2.6l-30,30C1103.6,618,1103.2,618.2,1102.7,618.2z"/>
			</g>
		</g>
		<g>
			<path fill="#231F20" d="M1156.8,679.5c-7.4,0-13.5-6.1-13.5-13.5s6.1-13.5,13.5-13.5s13.5,6.1,13.5,13.5
				S1164.2,679.5,1156.8,679.5z M1156.8,656.2c-5.4,0-9.8,4.4-9.8,9.8c0,5.4,4.4,9.8,9.8,9.8c5.4,0,9.8-4.4,9.8-9.8
				C1166.6,660.6,1162.2,656.2,1156.8,656.2z"/>
		</g>
		<g>
			<path fill="#231F20" d="M1029,642.5c-6.1,0-11-4.9-11-11s4.9-11,11-11c6.1,0,11,4.9,11,11S1035.1,642.5,1029,642.5z M1029,624.1
				c-4.1,0-7.4,3.3-7.4,7.3c0,4.1,3.3,7.3,7.4,7.3c4,0,7.3-3.3,7.3-7.3C1036.4,627.4,1033.1,624.1,1029,624.1z"/>
		</g>
		<g>
			<path fill="#231F20" d="M1067,697.8h-18.3c-1,0-1.8-0.8-1.8-1.8c0-1,0.8-1.8,1.8-1.8h18.3c1,0,1.8,0.8,1.8,1.8
				C1068.8,696.9,1068,697.8,1067,697.8z"/>
		</g>
	</g>
	<g>
		<g>
			<path fill="#231F20" d="M385.6,647.6c-13.3,0-24.2-10.9-24.2-24.2s10.9-24.2,24.2-24.2s24.2,10.9,24.2,24.2
				S399,647.6,385.6,647.6z M385.6,602.9c-11.3,0-20.5,9.2-20.5,20.5c0,11.3,9.2,20.5,20.5,20.5c11.3,0,20.5-9.2,20.5-20.5
				C406.2,612.1,397,602.9,385.6,602.9z"/>
		</g>
		<g>
			<path fill="#231F20" d="M385.6,727c-13.3,0-24.2-10.8-24.2-24.2c0-13.3,10.9-24.2,24.2-24.2s24.2,10.9,24.2,24.2
				C409.8,716.1,399,727,385.6,727z M385.6,682.3c-11.3,0-20.5,9.2-20.5,20.5c0,11.3,9.2,20.5,20.5,20.5c11.3,0,20.5-9.2,20.5-20.5
				C406.2,691.5,397,682.3,385.6,682.3z"/>
		</g>
		<g>
			<path fill="#231F20" d="M385.6,806.3c-13.3,0-24.2-10.9-24.2-24.2c0-13.3,10.9-24.2,24.2-24.2s24.2,10.9,24.2,24.2
				C409.8,795.5,399,806.3,385.6,806.3z M385.6,761.6c-11.3,0-20.5,9.2-20.5,20.5c0,11.3,9.2,20.5,20.5,20.5
				c11.3,0,20.5-9.2,20.5-20.5C406.2,770.8,397,761.6,385.6,761.6z"/>
		</g>
		<g>
			<path fill="#231F20" d="M159,647.1h-43.7c-1,0-1.8-0.8-1.8-1.8v-43.7c0-1,0.8-1.8,1.8-1.8H159c1,0,1.8,0.8,1.8,1.8v43.7
				C160.9,646.3,160.1,647.1,159,647.1z M117.2,643.4h40v-40h-40V643.4z"/>
		</g>
		<g>
			<path fill="#231F20" d="M159,726.5h-43.7c-1,0-1.8-0.8-1.8-1.8v-43.7c0-1,0.8-1.8,1.8-1.8H159c1,0,1.8,0.8,1.8,1.8v43.7
				C160.9,725.6,160.1,726.5,159,726.5z M117.2,722.8h40v-40h-40V722.8z"/>
		</g>
		<g>
			<path fill="#231F20" d="M159,805.8h-43.7c-1,0-1.8-0.8-1.8-1.8v-43.7c0-1,0.8-1.8,1.8-1.8H159c1,0,1.8,0.8,1.8,1.8V804
				C160.9,805,160.1,805.8,159,805.8z M117.2,802.1h40v-40h-40V802.1z"/>
		</g>
		<g>
			<path fill="#231F20" d="M273.2,799.9h-24.6c-12.1,0-22-9.9-22-22V627.6c0-12.1,9.8-22,22-22h24.6c12.1,0,22,9.8,22,22V778
				C295.2,790.1,285.3,799.9,273.2,799.9z M248.7,609.3c-10.1,0-18.3,8.2-18.3,18.3V778c0,10.1,8.2,18.3,18.3,18.3h24.6
				c10.1,0,18.3-8.2,18.3-18.3V627.6c0-10.1-8.2-18.3-18.3-18.3H248.7z"/>
		</g>
		<g>
			<path fill="#231F20" d="M229,784h-30.9c-1,0-1.8-0.8-1.8-1.8V625.3H159c-1,0-1.8-0.8-1.8-1.8c0-1,0.8-1.8,1.8-1.8h39
				c1,0,1.8,0.8,1.8,1.8v156.9h29c1,0,1.8,0.8,1.8,1.8C230.8,783.1,230,784,229,784z"/>
		</g>
		<g>
			<path fill="#231F20" d="M228.8,704.6h-69.5c-1,0-1.8-0.8-1.8-1.8c0-1,0.8-1.8,1.8-1.8h69.5c1,0,1.8,0.8,1.8,1.8
				C230.6,703.8,229.8,704.6,228.8,704.6z"/>
		</g>
		<g>
			<path fill="#231F20" d="M187.5,784H159c-1,0-1.8-0.8-1.8-1.8c0-1,0.8-1.8,1.8-1.8h26.6V631.8c0-1,0.8-1.8,1.8-1.8h41.1
				c1,0,1.8,0.8,1.8,1.8c0,1-0.8,1.8-1.8,1.8h-39.2v148.5C189.3,783.1,188.5,784,187.5,784z"/>
		</g>
		<g>
			<path fill="#231F20" d="M363.3,784h-39.1c-1,0-1.8-0.8-1.8-1.8V625.3h-29c-1,0-1.8-0.8-1.8-1.8c0-1,0.8-1.8,1.8-1.8h30.9
				c1,0,1.8,0.8,1.8,1.8v156.9h37.2c1,0,1.8,0.8,1.8,1.8C365.1,783.1,364.3,784,363.3,784z"/>
		</g>
		<g>
			<path fill="#231F20" d="M363.1,704.6h-69.5c-1,0-1.8-0.8-1.8-1.8c0-1,0.8-1.8,1.8-1.8h69.5c1,0,1.8,0.8,1.8,1.8
				C364.9,703.8,364.1,704.6,363.1,704.6z"/>
		</g>
		<g>
			<path fill="#231F20" d="M334.9,775.6h-41.1c-1,0-1.8-0.8-1.8-1.8c0-1,0.8-1.8,1.8-1.8H333V623.4c0-1,0.8-1.8,1.8-1.8h28.4
				c1,0,1.8,0.8,1.8,1.8c0,1-0.8,1.8-1.8,1.8h-26.6v148.5C336.7,774.7,335.9,775.6,334.9,775.6z"/>
		</g>
		<g>
			<g>
				<path fill="#231F20" d="M257.6,776.5c0-1.8,1.5-3.4,3.4-3.4l0,0c1.8,0,3.3,1.5,3.3,3.4l0,0c0,1.8-1.5,3.4-3.3,3.4l0,0
					C259.1,779.9,257.6,778.4,257.6,776.5z M257.6,739.6c0-1.9,1.5-3.4,3.4-3.4l0,0c1.8,0,3.3,1.5,3.3,3.4l0,0
					c0,1.8-1.5,3.3-3.3,3.3l0,0C259.1,743,257.6,741.5,257.6,739.6z M257.6,702.8c0-1.8,1.5-3.4,3.4-3.4l0,0c1.8,0,3.3,1.5,3.3,3.4
					l0,0c0,1.8-1.5,3.4-3.3,3.4l0,0C259.1,706.1,257.6,704.6,257.6,702.8z M257.6,665.9c0-1.9,1.5-3.3,3.4-3.3l0,0
					c1.8,0,3.3,1.5,3.3,3.3l0,0c0,1.9-1.5,3.4-3.3,3.4l0,0C259.1,669.2,257.6,667.8,257.6,665.9z M257.6,629c0-1.9,1.5-3.3,3.4-3.3
					l0,0c1.8,0,3.3,1.5,3.3,3.3l0,0c0,1.8-1.5,3.4-3.3,3.4l0,0C259.1,632.4,257.6,630.9,257.6,629z"/>
			</g>
		</g>
	</g>
	<g>
		<path fill="#231F20" d="M617.8,866.5H482.7c-1,0-1.8-0.8-1.8-1.8V752.1c0-1,0.8-1.8,1.8-1.8h135.1c1,0,1.8,0.8,1.8,1.8v112.5
			C619.7,865.7,618.8,866.5,617.8,866.5z M484.5,862.8H616V754H484.5V862.8z"/>
	</g>
	<g>
		<path fill="#231F20" d="M575.9,904.2h-47.8c-1,0-1.8-0.8-1.8-1.8V785.7c0-1,0.8-1.8,1.8-1.8h47.8c1,0,1.8,0.8,1.8,1.8v116.7
			C577.8,903.4,576.9,904.2,575.9,904.2z M529.9,900.5h44.2v-113h-44.2V900.5z"/>
	</g>
	<g>
		<path fill="#231F20" d="M497.4,779.2h-40.5c-1,0-1.8-0.8-1.8-1.8c0-1,0.8-1.8,1.8-1.8h40.5c1,0,1.8,0.8,1.8,1.8
			C499.3,778.3,498.4,779.2,497.4,779.2z"/>
	</g>
	<g>
		<path fill="#231F20" d="M617.8,885H482.7c-1,0-1.8-0.8-1.8-1.8c0-1,0.8-1.8,1.8-1.8h135.1c1,0,1.8,0.8,1.8,1.8
			C619.7,884.2,618.8,885,617.8,885z"/>
	</g>
	<g>
		<path fill="#231F20" d="M671,828.1H559.1c-1,0-1.8-0.8-1.8-1.8c0-1,0.8-1.8,1.8-1.8H671c1,0,1.8,0.8,1.8,1.8
			C672.8,827.3,672,828.1,671,828.1z"/>
	</g>
	<g>
		<g>
			<path fill="#231F20" d="M193.5,366.3h-49.6c-1,0-1.8-0.8-1.8-1.8v-15.2l-39.8-77c-13.1-15.6-20.4-35.4-20.4-55.9
				c0-47.9,38.9-86.8,86.8-86.8s86.8,38.9,86.8,86.8c0,20.4-7.2,40.3-20.4,55.9l-39.8,77v15.2C195.3,365.5,194.5,366.3,193.5,366.3z
				 M145.8,362.6h45.9v-13.8c0-0.3,0.1-0.6,0.2-0.8l40.1-77.6c0.1-0.1,0.1-0.2,0.2-0.3c12.7-15,19.7-34,19.7-53.7
				c0-45.8-37.3-83.1-83.1-83.1s-83.1,37.3-83.1,83.1c0,19.6,7,38.7,19.7,53.7c0.1,0.1,0.2,0.2,0.2,0.3l40.1,77.6
				c0.1,0.3,0.2,0.6,0.2,0.8V362.6z"/>
		</g>
		<g>
			<path fill="#231F20" d="M410.7,366.3h-49.6c-1,0-1.8-0.8-1.8-1.8v-15.2l-39.8-77c-13.2-15.6-20.4-35.5-20.4-55.9
				c0-47.9,38.9-86.8,86.8-86.8c47.9,0,86.8,38.9,86.8,86.8c0,20.4-7.2,40.3-20.4,55.9l-39.8,77v15.2
				C412.5,365.5,411.7,366.3,410.7,366.3z M363,362.6h45.9v-13.8c0-0.3,0.1-0.6,0.2-0.8l40.1-77.6c0.1-0.1,0.1-0.2,0.2-0.3
				c12.7-15,19.7-34,19.7-53.7c0-45.8-37.3-83.1-83.1-83.1c-45.8,0-83.1,37.3-83.1,83.1c0,19.6,7,38.7,19.7,53.7
				c0.1,0.1,0.2,0.2,0.2,0.3l40.1,77.6c0.1,0.3,0.2,0.6,0.2,0.8V362.6z"/>
		</g>
		<g>
			<path fill="#231F20" d="M313,289.7h-68.8c-1,0-1.8-0.8-1.8-1.8s0.8-1.8,1.8-1.8H313c1,0,1.8,0.8,1.8,1.8S314,289.7,313,289.7z"/>
		</g>
		<g>
			<path fill="#231F20" d="M255.3,300.7c-0.5,0-0.9-0.2-1.3-0.5l-11-11c-0.3-0.3-0.5-0.8-0.5-1.3s0.2-1,0.5-1.3l11-11
				c0.7-0.7,1.9-0.7,2.6,0c0.7,0.7,0.7,1.9,0,2.6l-9.7,9.7l9.7,9.7c0.7,0.7,0.7,1.9,0,2.6C256.2,300.5,255.7,300.7,255.3,300.7z"/>
		</g>
		<g>
			<path fill="#231F20" d="M313,326.4h-68.8c-1,0-1.8-0.8-1.8-1.8s0.8-1.8,1.8-1.8H313c1,0,1.8,0.8,1.8,1.8S314,326.4,313,326.4z"/>
		</g>
		<g>
			<path fill="#231F20" d="M302,337.4c-0.5,0-0.9-0.2-1.3-0.5c-0.7-0.7-0.7-1.9,0-2.6l9.7-9.7l-9.7-9.7c-0.7-0.7-0.7-1.9,0-2.6
				c0.7-0.7,1.9-0.7,2.6,0l11,11c0.7,0.7,0.7,1.9,0,2.6l-11,11C302.9,337.2,302.4,337.4,302,337.4z"/>
		</g>
		<g>
			<path fill="#231F20" d="M168.7,366.3c-1,0-1.8-0.8-1.8-1.8v-51c0-1,0.8-1.8,1.8-1.8c1,0,1.8,0.8,1.8,1.8v51
				C170.6,365.5,169.7,366.3,168.7,366.3z"/>
		</g>
		<g>
			<path fill="#231F20" d="M168.7,315.3c-0.7,0-1.3-0.4-1.6-0.9l-28.8-49.8c-0.3-0.6-0.3-1.3,0-1.8c0.3-0.6,0.9-0.9,1.6-0.9h57.5
				c0.7,0,1.3,0.4,1.6,0.9s0.3,1.3,0,1.8l-28.8,49.8C170,315,169.4,315.3,168.7,315.3z M143.1,265.5l25.6,44.3l25.6-44.3H143.1z"/>
		</g>
		<g>
			<path fill="#231F20" d="M385.9,366.3c-1,0-1.8-0.8-1.8-1.8v-51c0-1,0.8-1.8,1.8-1.8c1,0,1.8,0.8,1.8,1.8v51
				C387.8,365.5,386.9,366.3,385.9,366.3z"/>
		</g>
		<g>
			<path fill="#231F20" d="M385.9,315.3c-0.7,0-1.3-0.4-1.6-0.9l-28.8-49.8c-0.3-0.6-0.3-1.3,0-1.8s0.9-0.9,1.6-0.9h57.5
				c0.7,0,1.3,0.4,1.6,0.9c0.3,0.6,0.3,1.3,0,1.8l-28.8,49.8C387.2,315,386.6,315.3,385.9,315.3z M360.3,265.5l25.6,44.3l25.6-44.3
				H360.3z"/>
		</g>
		<g>
			<path fill="#231F20" d="M214,237.1c-0.5,0-0.9-0.2-1.3-0.5c-11.8-11.8-27.4-18.2-44-18.2c-16.6,0-32.3,6.5-44,18.2
				c-0.7,0.7-1.9,0.7-2.6,0s-0.7-1.9,0-2.6c12.5-12.5,29-19.3,46.6-19.3c17.6,0,34.2,6.9,46.6,19.3c0.7,0.7,0.7,1.9,0,2.6
				C215,236.9,214.5,237.1,214,237.1z"/>
		</g>
		<g>
			<path fill="#231F20" d="M431.2,237.1c-0.5,0-0.9-0.2-1.3-0.5c-11.8-11.8-27.4-18.2-44-18.2s-32.3,6.5-44,18.2
				c-0.7,0.7-1.9,0.7-2.6,0c-0.7-0.7-0.7-1.9,0-2.6c12.5-12.5,29-19.3,46.6-19.3c17.6,0,34.2,6.9,46.6,19.3c0.7,0.7,0.7,1.9,0,2.6
				C432.2,236.9,431.7,237.1,431.2,237.1z"/>
		</g>
		<g>
			<path fill="#231F20" d="M193.5,379.3h-49.6c-1,0-1.8-0.8-1.8-1.8c0-1,0.8-1.8,1.8-1.8h49.6c1,0,1.8,0.8,1.8,1.8
				C195.3,378.5,194.5,379.3,193.5,379.3z"/>
		</g>
		<g>
			<path fill="#231F20" d="M193.5,394.5h-49.6c-1,0-1.8-0.8-1.8-1.8c0-1,0.8-1.8,1.8-1.8h49.6c1,0,1.8,0.8,1.8,1.8
				C195.3,393.7,194.5,394.5,193.5,394.5z"/>
		</g>
		<g>
			<path fill="#231F20" d="M168.7,418.9c-8.8,0-16.4-5.9-18.6-14.4c-0.1-0.5,0-1.1,0.3-1.6c0.3-0.4,0.9-0.7,1.5-0.7h33.6
				c0.6,0,1.1,0.3,1.5,0.7s0.5,1,0.3,1.6C185.1,413,177.5,418.9,168.7,418.9z M154.5,405.9c2.4,5.6,8,9.4,14.2,9.4
				c6.3,0,11.8-3.7,14.2-9.4H154.5z"/>
		</g>
		<g>
			<path fill="#231F20" d="M410.7,379.3h-49.6c-1,0-1.8-0.8-1.8-1.8c0-1,0.8-1.8,1.8-1.8h49.6c1,0,1.8,0.8,1.8,1.8
				C412.5,378.5,411.7,379.3,410.7,379.3z"/>
		</g>
		<g>
			<path fill="#231F20" d="M410.7,394.5h-49.6c-1,0-1.8-0.8-1.8-1.8c0-1,0.8-1.8,1.8-1.8h49.6c1,0,1.8,0.8,1.8,1.8
				C412.5,393.7,411.7,394.5,410.7,394.5z"/>
		</g>
		<g>
			<path fill="#231F20" d="M385.9,418.9c-8.8,0-16.4-5.9-18.6-14.4c-0.1-0.6,0-1.1,0.3-1.6s0.9-0.7,1.5-0.7h33.6
				c0.6,0,1.1,0.3,1.5,0.7c0.3,0.4,0.5,1,0.3,1.6C402.3,413,394.7,418.9,385.9,418.9z M371.7,405.9c2.4,5.6,8,9.4,14.2,9.4
				c6.3,0,11.8-3.7,14.2-9.4H371.7z"/>
		</g>
	</g>
	<g>
		<g>
			<path fill="#231F20" d="M1198.7,391.2h-190.4c-12.1,0-22-9.9-22-22V168.7c0-1,0.8-1.8,1.8-1.8h190.4c1,0,1.8,0.8,1.8,1.8v200.5
				c0,10.1,8.2,18.3,18.3,18.3c1,0,1.8,0.8,1.8,1.8C1200.6,390.3,1199.7,391.2,1198.7,391.2z M990,170.5v198.7
				c0,10.1,8.2,18.3,18.3,18.3h178.3c-5.9-3.9-9.8-10.7-9.8-18.3V170.5H990z"/>
		</g>
		<g>
			<path fill="#231F20" d="M1198.7,391.2c-12.1,0-22-9.9-22-22V190.3c0-1,0.8-1.8,1.8-1.8h60.5c1,0,1.8,0.8,1.8,1.8
				c0,1-0.8,1.8-1.8,1.8c-10.1,0-18.3,8.2-18.3,18.3v158.7C1220.7,381.3,1210.8,391.2,1198.7,391.2z M1180.4,192.2v177
				c0,10.1,8.2,18.3,18.3,18.3c10.1,0,18.3-8.2,18.3-18.3V210.5c0-7.6,3.9-14.4,9.8-18.3H1180.4z"/>
		</g>
		<g>
			<path fill="#231F20" d="M1259.2,433h-185.1c-1,0-1.8-0.8-1.8-1.8v-41.8c0-1,0.8-1.8,1.8-1.8h124.6c10.1,0,18.3-8.2,18.3-18.3
				V210.5c0-12.1,9.9-22,22-22c12.1,0,22,9.9,22,22v220.7C1261,432.2,1260.2,433,1259.2,433z M1076,429.3h181.4V210.5
				c0-10.1-8.2-18.3-18.3-18.3c-10.1,0-18.3,8.2-18.3,18.3v158.7c0,12.1-9.9,22-22,22H1076V429.3z"/>
		</g>
		<g>
			<path fill="#231F20" d="M1149.6,217.4h-133c-1,0-1.8-0.8-1.8-1.8s0.8-1.8,1.8-1.8h133c1,0,1.8,0.8,1.8,1.8
				S1150.6,217.4,1149.6,217.4z"/>
		</g>
		<g>
			<path fill="#231F20" d="M1149.6,249.1h-133c-1,0-1.8-0.8-1.8-1.8s0.8-1.8,1.8-1.8h133c1,0,1.8,0.8,1.8,1.8
				S1150.6,249.1,1149.6,249.1z"/>
		</g>
		<g>
			<path fill="#231F20" d="M1149.6,280.8h-133c-1,0-1.8-0.8-1.8-1.8s0.8-1.8,1.8-1.8h133c1,0,1.8,0.8,1.8,1.8
				S1150.6,280.8,1149.6,280.8z"/>
		</g>
		<g>
			<path fill="#231F20" d="M1149.6,312.6h-133c-1,0-1.8-0.8-1.8-1.8c0-1,0.8-1.8,1.8-1.8h133c1,0,1.8,0.8,1.8,1.8
				C1151.4,311.8,1150.6,312.6,1149.6,312.6z"/>
		</g>
		<g>
			<path fill="#231F20" d="M1149.6,344.3h-133c-1,0-1.8-0.8-1.8-1.8s0.8-1.8,1.8-1.8h133c1,0,1.8,0.8,1.8,1.8
				S1150.6,344.3,1149.6,344.3z"/>
		</g>
	</g>
	<g>
		<path fill="#231F20" d="M742.5,287.5H533c-1,0-1.8-0.8-1.8-1.8V182c0-1,0.8-1.8,1.8-1.8h209.5c1,0,1.8,0.8,1.8,1.8v103.6
			C744.3,286.7,743.5,287.5,742.5,287.5z M534.8,283.8h205.8v-100H534.8V283.8z"/>
	</g>
	<g>
		<path fill="#231F20" d="M666.3,242.7H556.4c-1,0-1.8-0.8-1.8-1.8v-35.2c0-1,0.8-1.8,1.8-1.8h109.9c1,0,1.8,0.8,1.8,1.8v35.2
			C668.1,241.9,667.3,242.7,666.3,242.7z M558.3,239h106.2v-31.5H558.3V239z"/>
	</g>
	<g>
		<g>
			<rect x="625" y="135.8" fill="#FFFFFF" width="269.8" height="149.9"/>
			<path fill="#231F20" d="M894.8,287.5H625c-1,0-1.8-0.8-1.8-1.8V135.8c0-1,0.8-1.8,1.8-1.8h269.8c1,0,1.8,0.8,1.8,1.8v149.9
				C896.7,286.7,895.8,287.5,894.8,287.5z M626.9,283.8H893V137.6H626.9V283.8z"/>
		</g>
		<g>
			<rect x="625" y="105.8" fill="#FFFFFF" width="269.8" height="29.9"/>
			<path fill="#231F20" d="M894.8,137.6H625c-1,0-1.8-0.8-1.8-1.8v-29.9c0-1,0.8-1.8,1.8-1.8h269.8c1,0,1.8,0.8,1.8,1.8v29.9
				C896.7,136.8,895.8,137.6,894.8,137.6z M626.9,133.9H893v-26.2H626.9V133.9z"/>
		</g>
	</g>
	<g>
		<path fill="#231F20" d="M666.3,122.6h-28.6c-1,0-1.8-0.8-1.8-1.8c0-1,0.8-1.8,1.8-1.8h28.6c1,0,1.8,0.8,1.8,1.8
			C668.1,121.8,667.3,122.6,666.3,122.6z"/>
	</g>
	<g>
		<path fill="#231F20" d="M864.2,172.3H652c-1,0-1.8-0.8-1.8-1.8s0.8-1.8,1.8-1.8h212.1c1,0,1.8,0.8,1.8,1.8
			S865.2,172.3,864.2,172.3z"/>
	</g>
	<g>
		<path fill="#231F20" d="M864.2,203.6H652c-1,0-1.8-0.8-1.8-1.8s0.8-1.8,1.8-1.8h212.1c1,0,1.8,0.8,1.8,1.8
			S865.2,203.6,864.2,203.6z"/>
	</g>
	<g>
		<g>
			<g>
				<path fill="#231F20" d="M715.8,250.7c-1.1,0-2.1-0.5-2.9-1.2c-0.8-0.7-1.2-1.8-1.2-2.9c0-1.1,0.4-2.1,1.2-2.9
					c1.5-1.5,4.2-1.5,5.8,0c0.8,0.8,1.2,1.8,1.2,2.9c0,1.1-0.4,2.1-1.2,2.9C717.9,250.3,716.9,250.7,715.8,250.7z"/>
			</g>
		</g>
		<g>
			<g>
				<path fill="#231F20" d="M754,246.6c0-2.2,1.8-4.1,4.1-4.1l0,0c2.2,0,4.1,1.8,4.1,4.1l0,0c0,2.2-1.8,4.1-4.1,4.1l0,0
					C755.8,250.7,754,248.9,754,246.6z"/>
			</g>
		</g>
		<g>
			<g>
				<path fill="#231F20" d="M800.4,250.7c-1.1,0-2.1-0.5-2.9-1.2c-0.8-0.8-1.2-1.8-1.2-2.9c0-1.1,0.4-2.1,1.2-2.9
					c1.5-1.5,4.2-1.5,5.8,0c0.8,0.8,1.2,1.8,1.2,2.9c0,1.1-0.4,2.1-1.2,2.9C802.5,250.3,801.5,250.7,800.4,250.7z"/>
			</g>
		</g>
	</g>
	<g>
		<path fill="#231F20" d="M734.2,845.9h-84.6c-1,0-1.8-0.8-1.8-1.8v-91.9c0-1,0.8-1.8,1.8-1.8h120.8c0.8,0,1.5,0.5,1.8,1.3
			c0.2,0.8,0,1.6-0.7,2.1L736,778.6V844C736,845.1,735.2,845.9,734.2,845.9z M651.4,842.2h81v-64.6c0-0.6,0.3-1.2,0.8-1.5l31.4-22.1
			H651.4V842.2z"/>
	</g>
	<g>
		<path fill="#231F20" d="M691.4,828.1c-15.6,0-28.3-12.7-28.3-28.3s12.7-28.3,28.3-28.3c15.6,0,28.3,12.7,28.3,28.3
			S707,828.1,691.4,828.1z M691.4,775.3c-13.5,0-24.6,11-24.6,24.6s11,24.6,24.6,24.6c13.6,0,24.6-11,24.6-24.6
			S704.9,775.3,691.4,775.3z"/>
	</g>
</g>
</svg>
