<?xml version="1.0" encoding="utf-8"?>
<!-- Generator: Adobe Illustrator 21.0.2, SVG Export Plug-In . SVG Version: 6.00 Build 0)  -->
<svg version="1.0" id="Capa_1" xmlns="http://www.w3.org/2000/svg" xmlns:xlink="http://www.w3.org/1999/xlink" x="0px" y="0px"
	 width="1096px" height="780px" viewBox="0 0 1096 780" enable-background="new 0 0 1096 780" xml:space="preserve">
<g>
	<defs>
		<rect id="SVGID_1_" width="1096" height="780"/>
	</defs>
	<clipPath id="SVGID_2_">
		<use xlink:href="#SVGID_1_"  overflow="visible"/>
	</clipPath>
	<g clip-path="url(#SVGID_2_)">
		<g>
			<polygon fill="#1D1D1B" points="275,1048.1 276,1048.1 276,749.8 275.9,749.6 202.7,676.2 201.9,676.9 275,750.2 			"/>
		</g>
		<g>
			<polygon fill="#1D1D1B" points="281.4,1045.9 282.4,1045.9 282.4,747.7 282.3,747.5 209,674 208.3,674.8 281.4,748.1 			"/>
		</g>
		<g>
			<polygon fill="#1D1D1B" points="287.8,1043.8 288.8,1043.8 288.8,745.5 288.6,745.4 215.4,671.9 214.7,672.6 287.8,746 			"/>
		</g>
		<g>
			<polygon fill="#1D1D1B" points="268.6,1050.1 269.6,1050.1 269.6,751.8 269.4,751.6 196.2,678.2 195.5,678.9 268.6,752.2 			"/>
		</g>
		<g>
			<polygon fill="#1D1D1B" points="262.2,1052.2 263.2,1052.2 263.2,753.9 263.1,753.8 189.8,680.3 189.1,681 262.2,754.3 			"/>
		</g>
		<g>
			<polygon fill="#1D1D1B" points="249.2,1056.2 250.2,1056.2 250.2,757.9 250.1,757.8 176.8,684.3 176.1,685 249.2,758.3 			"/>
		</g>
		<g>
			<polygon fill="#1D1D1B" points="242.8,1058.2 243.8,1058.2 243.8,759.9 243.6,759.8 170.4,686.3 169.7,687 242.8,760.3 			"/>
		</g>
		<g>
			<polygon fill="#1D1D1B" points="326.3,786.3 418.6,878.6 419.3,877.8 327.3,785.8 327.3,733.2 327.2,733 253.9,659.6 
				253.2,660.3 326.3,733.6 			"/>
		</g>
		<g>
			<polygon fill="#1D1D1B" points="332.7,784.1 415.7,867.1 416.4,866.4 333.7,783.7 333.7,731.1 333.5,730.9 260.3,657.4 
				259.6,658.1 332.7,731.5 			"/>
		</g>
		<g>
			<polygon fill="#1D1D1B" points="339,782.3 423.2,866.5 423.9,865.7 340,781.9 340,728.9 339.9,728.8 266.6,655.3 265.9,656 
				339,729.3 			"/>
		</g>
		<g>
			<polygon fill="#1D1D1B" points="338.4,1030.2 339.4,1030.2 339.4,805.7 321.2,787.6 321.2,734.8 321.1,734.6 247.8,661.1 
				247.1,661.9 320.2,735.2 320.2,788 338.4,806.2 			"/>
		</g>
		<g>
			<polygon fill="#1D1D1B" points="324.2,1023.9 325.2,1023.9 325.2,800.2 314.9,789.9 314.9,736.9 314.7,736.7 241.5,663.3 
				240.8,664 313.9,737.3 313.9,790.3 324.2,800.6 			"/>
		</g>
		<g>
			<polygon fill="#1D1D1B" points="306.9,1037.5 307.9,1037.5 307.9,739.2 307.7,739 234.5,665.6 233.8,666.3 306.9,739.6 			"/>
		</g>
		<g>
			<polygon fill="#1D1D1B" points="300.5,1039.6 301.5,1039.6 301.5,741.3 301.4,741.2 228.1,667.7 227.4,668.4 300.5,741.7 			"/>
		</g>
		<g>
			<polygon fill="#1D1D1B" points="294,1041.6 295,1041.6 295,743.3 294.9,743.2 221.6,669.7 220.9,670.4 294,743.7 			"/>
		</g>
		<g>
			<polygon fill="#1D1D1B" points="237.5,670 238.2,669.3 165.1,596 165.1,118.7 164.1,118.7 164.1,596.4 164.3,596.6 			"/>
		</g>
		<g>
			<polygon fill="#1D1D1B" points="231.2,672.2 231.9,671.5 158.8,598.1 158.8,120.8 157.8,120.8 157.8,598.5 157.9,598.7 			"/>
		</g>
		<g>
			<polygon fill="#1D1D1B" points="224.8,674.3 225.5,673.6 152.4,600.2 152.4,122.9 151.4,122.9 151.4,600.7 151.6,600.8 			"/>
		</g>
		<g>
			<polygon fill="#1D1D1B" points="244.2,667.4 244.9,666.7 171.8,593.4 171.8,116 170.8,116 170.8,593.8 171,593.9 			"/>
		</g>
		<g>
			<polygon fill="#1D1D1B" points="250.8,665.5 251.5,664.8 178.4,591.5 178.4,114.1 177.4,114.1 177.4,591.9 177.5,592 			"/>
		</g>
		<g>
			<polygon fill="#1D1D1B" points="257,664 257.7,663.3 184.6,590 184.6,112.7 183.6,112.7 183.6,590.4 183.7,590.6 			"/>
		</g>
		<g>
			<polygon fill="#1D1D1B" points="263.3,661.9 264.1,661.2 190.9,587.9 190.9,110.5 189.9,110.5 189.9,588.3 190.1,588.4 			"/>
		</g>
		<g>
			<polygon fill="#1D1D1B" points="269.8,659.9 270.5,659.2 197.4,585.9 197.4,108.5 196.4,108.5 196.4,586.3 196.6,586.4 			"/>
		</g>
		<g>
			<polygon fill="#1D1D1B" points="199.1,682.5 199.8,681.8 126.7,608.5 126.7,131.2 125.7,131.2 125.7,608.9 125.9,609.1 			"/>
		</g>
		<g>
			<polygon fill="#1D1D1B" points="205.7,680.6 206.4,679.9 133.3,606.6 133.3,129.3 132.3,129.3 132.3,607 132.5,607.2 			"/>
		</g>
		<g>
			<polygon fill="#1D1D1B" points="212.1,678.5 212.8,677.8 139.7,604.5 139.7,127.2 138.7,127.2 138.7,604.9 138.8,605.1 			"/>
		</g>
		<g>
			<polygon fill="#1D1D1B" points="218.6,676.5 219.3,675.8 146.2,602.5 146.2,125.2 145.2,125.2 145.2,602.9 145.3,603 			"/>
		</g>
		<g>
			<polygon fill="#1D1D1B" points="59.1,56 59.2,56.2 132.5,129.6 133.2,128.9 60.1,55.6 			"/>
		</g>
		<g>
			<polygon fill="#1D1D1B" points="65.4,53.9 65.6,54 138.8,127.5 139.5,126.8 66.4,53.5 			"/>
		</g>
		<g>
			<polygon fill="#1D1D1B" points="71.9,51.9 72.1,52 145.3,125.5 146,124.8 72.9,51.5 			"/>
		</g>
		<g>
			<polyline fill="#1D1D1B" points="128.8,26.8 128.8,81 164.1,116.4 164.1,596.4 164.3,596.6 237.5,670 238.2,669.3 165.1,596 
				165.1,116 129.8,80.6 129.8,27.2 			"/>
		</g>
		<g>
			<polyline fill="#1D1D1B" points="122.3,24.7 122.3,82.9 157.8,118.4 157.8,598.5 157.9,598.7 231.2,672.2 231.9,671.5 
				158.8,598.1 158.8,118 123.3,82.5 123.3,25.1 			"/>
		</g>
		<g>
			<polyline fill="#1D1D1B" points="116,33.9 116,85 151.4,120.4 151.4,600.7 151.6,600.8 224.8,674.3 225.5,673.6 152.4,600.2 
				152.4,120 117,84.6 117,34.4 			"/>
		</g>
		<g>
			<polygon fill="#1D1D1B" points="244.2,667.4 244.9,666.7 171.8,593.4 171.8,114.1 170.8,114.1 170.8,593.8 171,593.9 			"/>
		</g>
		<g>
			<polygon fill="#1D1D1B" points="250.8,665.5 251.5,664.8 178.4,591.5 178.4,114.1 177.4,114.1 177.4,591.9 177.5,592 			"/>
		</g>
		<g>
			<polygon fill="#1D1D1B" points="257,664 257.7,663.3 184.6,590 184.6,112.7 183.6,112.7 183.6,590.4 183.7,590.6 			"/>
		</g>
		<g>
			<polygon fill="#1D1D1B" points="263.3,661.9 264.1,661.2 190.9,587.9 190.9,110.5 189.9,110.5 189.9,588.3 190.1,588.4 			"/>
		</g>
		<g>
			<polygon fill="#1D1D1B" points="269.8,659.9 270.5,659.2 197.4,585.9 197.4,105.8 180.2,88.6 180.2,48 179.2,48 179.2,89 
				196.4,106.2 196.4,586.3 196.6,586.4 			"/>
		</g>
		<polygon fill="#1D1D1B" points="25.4,103.2 32.3,96.4 58.9,96.4 113.9,151.3 113.9,612.6 187,686 187,686 256.5,755.7 
			256.6,755.8 256.6,1054.1 255.6,1054.1 255.6,756.2 182.5,682.9 182.5,682.9 113,613.2 112.9,613 112.9,151.7 58.5,97.4 
			32.7,97.4 25.9,104.2 18.7,104.2 18.7,103.2 		"/>
		<g>
			<polygon fill="#1D1D1B" points="179.9,688.8 180.6,688.1 107.5,614.7 107.5,156.3 55,103.7 44.1,103.7 39.3,108.5 40,109.2 
				44.5,104.7 54.6,104.7 106.5,156.7 106.5,615.2 106.7,615.3 			"/>
		</g>
		<g>
			<polygon fill="#1D1D1B" points="173.5,690.9 174.2,690.2 101.1,616.9 101.1,189.3 37.5,125.7 22.6,125.7 15.6,118.6 14.9,119.4 
				22.2,126.7 37.1,126.7 100.1,189.7 100.1,617.3 100.3,617.4 			"/>
		</g>
		<g>
			<polygon fill="#1D1D1B" points="192.8,684.7 193.5,683.9 120.4,610.6 120.4,148.2 70.7,98.6 70.7,90.2 69.7,90.2 69.7,99 
				119.4,148.6 119.4,611 119.5,611.2 			"/>
		</g>
		<g>
			<polygon fill="#1D1D1B" points="199.1,682.5 199.8,681.8 126.7,608.5 126.7,131 72,76.2 60.2,76.2 60.2,77.2 71.6,77.2 
				125.7,131.4 125.7,608.9 125.9,609.1 			"/>
		</g>
		<g>
			<polygon fill="#1D1D1B" points="205.7,680.6 206.4,679.9 133.3,606.6 133.3,129.3 132.3,129.3 132.3,607 132.5,607.2 			"/>
		</g>
		<g>
			<polygon fill="#1D1D1B" points="212.1,678.5 212.8,677.8 139.7,604.5 139.7,127.2 138.7,127.2 138.7,604.9 138.8,605.1 			"/>
		</g>
		<g>
			<polygon fill="#1D1D1B" points="218.6,676.5 219.3,675.8 146.2,602.5 146.2,125.2 145.2,125.2 145.2,602.9 145.3,603 			"/>
		</g>
		<g>
			<polygon fill="#1D1D1B" points="59.1,56 59.2,56.2 132.5,129.6 133.2,128.9 60.1,55.6 			"/>
		</g>
		<g>
			<polygon fill="#1D1D1B" points="65.4,53.9 65.6,54 138.8,127.5 139.5,126.8 66.4,53.5 			"/>
		</g>
		<g>
			<polygon fill="#1D1D1B" points="71.9,51.9 72.1,52 145.3,125.5 146,124.8 72.9,51.5 			"/>
		</g>
		<g>
			<path fill="#1D1D1B" d="M11.5,115.6c1.1-1.1,2.8-1.1,3.9,0c1.1,1.1,1.1,2.8,0,3.9c-1.1,1.1-2.8,1.1-3.9,0
				C10.4,118.4,10.4,116.7,11.5,115.6z M12.2,116.3c-0.7,0.7-0.7,1.8,0,2.5c0.7,0.7,1.8,0.7,2.5,0c0.7-0.7,0.7-1.8,0-2.5
				C14,115.6,12.9,115.6,12.2,116.3z"/>
		</g>
		<g>
			
				<ellipse transform="matrix(0.7071 -0.7071 0.7071 0.7071 -67.7514 43.6092)" fill="#1D1D1B" cx="18.8" cy="103.6" rx="2.3" ry="2.3"/>
			<path fill="#1D1D1B" d="M16.8,101.6c1.1-1.1,2.8-1.1,3.9,0c1.1,1.1,1.1,2.8,0,3.9c-1.1,1.1-2.8,1.1-3.9,0
				C15.7,104.5,15.7,102.7,16.8,101.6z M17.5,102.3c-0.7,0.7-0.7,1.8,0,2.5c0.7,0.7,1.8,0.7,2.5,0c0.7-0.7,0.7-1.8,0-2.5
				C19.3,101.6,18.2,101.6,17.5,102.3z"/>
		</g>
		<g>
			
				<ellipse transform="matrix(0.707 -0.7073 0.7073 0.707 -65.4684 59.8871)" fill="#1D1D1B" cx="39.5" cy="108.9" rx="2.3" ry="2.3"/>
			<path fill="#1D1D1B" d="M37.6,107c1.1-1.1,2.8-1.1,3.9,0c1.1,1.1,1.1,2.8,0,3.9c-1.1,1.1-2.8,1.1-3.9,0
				C36.5,109.8,36.5,108.1,37.6,107z M38.3,107.7c-0.7,0.7-0.7,1.8,0,2.5c0.7,0.7,1.8,0.7,2.5,0c0.7-0.7,0.7-1.8,0-2.5
				C40.1,107,39,107,38.3,107.7z"/>
		</g>
		<g>
			
				<ellipse transform="matrix(0.7071 -0.7071 0.7071 0.7071 -43.1818 76.0742)" fill="#1D1D1B" cx="70.2" cy="90.2" rx="2.3" ry="2.3"/>
			<path fill="#1D1D1B" d="M68.3,88.2c1.1-1.1,2.8-1.1,3.9,0c1.1,1.1,1.1,2.8,0,3.9c-1.1,1.1-2.8,1.1-3.9,0
				C67.2,91,67.2,89.3,68.3,88.2z M69,88.9c-0.7,0.7-0.7,1.8,0,2.5c0.7,0.7,1.8,0.7,2.5,0c0.7-0.7,0.7-1.8,0-2.5S69.7,88.2,69,88.9z
				"/>
		</g>
		<g>
			
				<ellipse transform="matrix(0.7071 -0.7071 0.7071 0.7071 -8.8206 136.7429)" fill="#1D1D1B" cx="160.7" cy="79" rx="2.3" ry="2.3"/>
			<path fill="#1D1D1B" d="M158.7,77.1c1.1-1.1,2.8-1.1,3.9,0c1.1,1.1,1.1,2.8,0,3.9c-1.1,1.1-2.8,1.1-3.9,0
				C157.6,79.9,157.6,78.1,158.7,77.1z M159.4,77.8c-0.7,0.7-0.7,1.8,0,2.5c0.7,0.7,1.8,0.7,2.5,0c0.7-0.7,0.7-1.8,0-2.5
				C161.2,77.1,160.1,77.1,159.4,77.8z"/>
		</g>
		<g>
			
				<ellipse transform="matrix(0.7071 -0.7071 0.7071 0.7071 5.6966 135.7327)" fill="#1D1D1B" cx="166.7" cy="61" rx="2.3" ry="2.3"/>
			<path fill="#1D1D1B" d="M164.7,59c1.1-1.1,2.8-1.1,3.9,0c1.1,1.1,1.1,2.8,0,3.9c-1.1,1.1-2.8,1.1-3.9,0
				C163.6,61.9,163.6,60.1,164.7,59z M165.4,59.7c-0.7,0.7-0.7,1.8,0,2.5c0.7,0.7,1.8,0.7,2.5,0c0.7-0.7,0.7-1.8,0-2.5
				C167.3,59,166.1,59,165.4,59.7z"/>
		</g>
		<g>
			
				<ellipse transform="matrix(0.7071 -0.7071 0.7071 0.7071 18.7192 141.1264)" fill="#1D1D1B" cx="179.7" cy="48" rx="2.3" ry="2.3"/>
			<path fill="#1D1D1B" d="M177.8,46c1.1-1.1,2.8-1.1,3.9,0c1.1,1.1,1.1,2.8,0,3.9c-1.1,1.1-2.8,1.1-3.9,0
				C176.7,48.8,176.7,47.1,177.8,46z M178.5,46.7c-0.7,0.7-0.7,1.8,0,2.5s1.8,0.7,2.5,0c0.7-0.7,0.7-1.8,0-2.5
				C180.3,46,179.2,46,178.5,46.7z"/>
		</g>
		<g>
			<path fill="#1D1D1B" d="M171.1,64.6c1.1-1.1,2.8-1.1,3.9,0c1.1,1.1,1.1,2.8,0,3.9c-1.1,1.1-2.8,1.1-3.9,0
				C170,67.5,170,65.7,171.1,64.6z M171.8,65.3c-0.7,0.7-0.7,1.8,0,2.5c0.7,0.7,1.8,0.7,2.5,0c0.7-0.7,0.7-1.8,0-2.5
				C173.6,64.7,172.5,64.7,171.8,65.3z"/>
		</g>
		<g>
			<polyline fill="#1D1D1B" points="135.1,17.1 135.1,78.6 171,114.4 171.2,114.2 171.8,114.2 171.8,113.8 136.1,78.2 136.1,17.5 
							"/>
		</g>
		<g>
			<polygon fill="#1D1D1B" points="177.4,114.1 178.4,114.1 178.4,111.8 161.2,94.6 161.2,79 160.2,79 160.2,95 177.4,112.2 			"/>
		</g>
		<g>
			<polygon fill="#1D1D1B" points="183.6,112.7 184.6,112.7 184.6,109.9 167.3,92.6 167.1,63.4 166.1,63.4 166.3,93 183.6,110.3 			
				"/>
		</g>
		<g>
			<polygon fill="#1D1D1B" points="189.9,110.5 190.9,110.5 190.9,107.8 173.7,90.5 173.6,68.7 172.6,68.7 172.7,90.9 189.9,108.2 
							"/>
		</g>
		<g>
			<path fill="#1D1D1B" d="M55.5,54.3c0-0.7,0.3-1.4,0.8-2c0.5-0.5,1.2-0.8,2-0.8c1.5,0,2.8,1.3,2.8,2.8c0,1.5-1.2,2.8-2.8,2.8
				c-0.7,0-1.4-0.3-2-0.8C55.8,55.8,55.5,55.1,55.5,54.3z M58.3,52.6c-0.5,0-0.9,0.2-1.3,0.5c-0.3,0.3-0.5,0.8-0.5,1.3
				c0,0.9,0.8,1.8,1.8,1.8c1,0,1.8-0.8,1.8-1.8c0-0.5-0.2-0.9-0.5-1.3C59.2,52.7,58.8,52.6,58.3,52.6z"/>
		</g>
		<g>
			<path fill="#1D1D1B" d="M61.7,52.3c0-0.7,0.3-1.4,0.8-2c0.5-0.5,1.2-0.8,2-0.8c1.5,0,2.8,1.3,2.8,2.8c0,1.5-1.2,2.8-2.8,2.8
				c-0.7,0-1.4-0.3-2-0.8C62,53.8,61.7,53.1,61.7,52.3z M64.5,50.5c-0.5,0-0.9,0.2-1.3,0.5c-0.3,0.3-0.5,0.8-0.5,1.3
				c0,0.9,0.8,1.8,1.8,1.8c1,0,1.8-0.8,1.8-1.8c0-0.5-0.2-0.9-0.5-1.3C65.4,50.7,64.9,50.5,64.5,50.5z"/>
		</g>
		<g>
			<path fill="#1D1D1B" d="M68.1,50.3c0-0.7,0.3-1.4,0.8-2c0.5-0.5,1.2-0.8,2-0.8c1.5,0,2.8,1.3,2.8,2.8c0,1.5-1.2,2.8-2.8,2.8
				c-0.7,0-1.4-0.3-2-0.8C68.4,51.7,68.1,51,68.1,50.3z M70.9,48.5c-0.5,0-0.9,0.2-1.3,0.5c-0.3,0.3-0.5,0.8-0.5,1.3
				c0,0.9,0.8,1.8,1.8,1.8c1,0,1.8-0.8,1.8-1.8c0-0.5-0.2-0.9-0.5-1.3C71.8,48.7,71.4,48.5,70.9,48.5z"/>
		</g>
		<g>
			<path fill="#1D1D1B" d="M55.6,76.6c0-0.7,0.3-1.4,0.8-2c0.5-0.5,1.2-0.8,2-0.8c1.5,0,2.8,1.3,2.8,2.8c0,1.5-1.2,2.8-2.8,2.8
				c-0.7,0-1.4-0.3-2-0.8C55.8,78,55.6,77.3,55.6,76.6z M58.3,74.8c-0.5,0-0.9,0.2-1.3,0.5c-0.3,0.3-0.5,0.8-0.5,1.3
				c0,0.9,0.8,1.8,1.8,1.8c1,0,1.8-0.8,1.8-1.8c0-0.5-0.2-0.9-0.5-1.3C59.3,75,58.8,74.8,58.3,74.8z"/>
		</g>
		<g>
			
				<ellipse transform="matrix(0.7071 -0.7071 0.7071 0.7071 28.3203 100.5965)" fill="#1D1D1B" cx="135.6" cy="16.1" rx="2.3" ry="2.3"/>
			<path fill="#1D1D1B" d="M133.6,14.1c1.1-1.1,2.8-1.1,3.9,0c1.1,1.1,1.1,2.8,0,3.9c-1.1,1.1-2.8,1.1-3.9,0
				C132.5,17,132.5,15.2,133.6,14.1z M134.3,14.9c-0.7,0.7-0.7,1.8,0,2.5c0.7,0.7,1.8,0.7,2.5,0c0.7-0.7,0.7-1.8,0-2.5
				C136.2,14.2,135,14.2,134.3,14.9z"/>
		</g>
		<g>
			
				<ellipse transform="matrix(0.7071 -0.7071 0.7071 0.7071 19.5041 93.6446)" fill="#1D1D1B" cx="122.8" cy="23.3" rx="2.3" ry="2.3"/>
			<path fill="#1D1D1B" d="M120.8,21.3c1.1-1.1,2.8-1.1,3.9,0c1.1,1.1,1.1,2.8,0,3.9c-1.1,1.1-2.8,1.1-3.9,0
				C119.7,24.2,119.7,22.4,120.8,21.3z M121.5,22c-0.7,0.7-0.7,1.8,0,2.5s1.8,0.7,2.5,0c0.7-0.7,0.7-1.8,0-2.5
				C123.4,21.3,122.2,21.3,121.5,22z"/>
		</g>
		<g>
			<path fill="#1D1D1B" d="M127.3,23.1c1.1-1.1,2.8-1.1,3.9,0c1.1,1.1,1.1,2.8,0,3.9c-1.1,1.1-2.8,1.1-3.9,0
				C126.2,25.9,126.2,24.2,127.3,23.1z M128,23.8c-0.7,0.7-0.7,1.8,0,2.5c0.7,0.7,1.8,0.7,2.5,0c0.7-0.7,0.7-1.8,0-2.5
				C129.8,23.1,128.7,23.1,128,23.8z"/>
		</g>
		<g>
			<path fill="#1D1D1B" d="M114.6,30.2c1.1-1.1,2.8-1.1,3.9,0c1.1,1.1,1.1,2.8,0,3.9c-1.1,1.1-2.8,1.1-3.9,0
				C113.5,33,113.5,31.3,114.6,30.2z M115.3,30.9c-0.7,0.7-0.7,1.8,0,2.5c0.7,0.7,1.8,0.7,2.5,0c0.7-0.7,0.7-1.8,0-2.5
				C117.1,30.2,116,30.2,115.3,30.9z"/>
		</g>
	</g>
	<g clip-path="url(#SVGID_2_)">
		<g>
			<g>
				<polygon fill="#1D1D1B" points="636.9,1127.2 636.2,1127.9 425.2,917 425.2,916.8 425.1,813 426.1,813 426.2,916.6 				"/>
			</g>
			<g>
				<polygon fill="#1D1D1B" points="630.9,1130.2 630.2,1130.9 419.2,920 419.2,919.8 419.1,816 420.1,816 420.2,919.6 				"/>
			</g>
			<g>
				<polygon fill="#1D1D1B" points="624.9,1133.2 624.2,1133.9 413.2,923 413.2,922.8 413.1,819 414.1,819 414.2,922.6 				"/>
			</g>
			<g>
				<polygon fill="#1D1D1B" points="642.9,1124 642.2,1124.7 431.2,913.8 431.2,913.6 431.1,809.9 432.1,809.9 432.2,913.4 				"/>
			</g>
			<g>
				<polygon fill="#1D1D1B" points="648.9,1121 648.2,1121.7 437.2,910.8 437.2,910.6 437.1,806.9 438.1,806.9 438.2,910.4 				"/>
			</g>
			<g>
				<polygon fill="#1D1D1B" points="660.9,1114.7 660.2,1115.4 449.2,904.5 449.2,904.3 449.1,800.5 450.1,800.5 450.2,904.1 				
					"/>
			</g>
			<g>
				<polygon fill="#1D1D1B" points="666.9,1111.5 666.2,1112.2 455.2,901.3 455.2,901.1 455.1,797.4 456.1,797.4 456.2,900.9 				
					"/>
			</g>
			<g>
				<polygon fill="#1D1D1B" points="415.5,978.3 415.5,1108.8 414.5,1108.8 414.5,978.7 377.2,941.5 377.2,941.3 377.1,837.5 
					378.1,837.5 378.2,941.1 				"/>
			</g>
			<g>
				<polygon fill="#1D1D1B" points="409.5,981.3 409.5,1098.7 408.5,1098.7 408.5,981.7 371.2,944.5 371.2,944.3 371.1,840.5 
					372.1,840.5 372.2,944.1 				"/>
			</g>
			<g>
				<polygon fill="#1D1D1B" points="403.7,984.6 403.7,1103.5 402.7,1103.5 402.7,985 365.2,947.5 365.2,947.3 365.1,843.5 
					366.1,843.5 366.2,947.1 				"/>
			</g>
			<g>
				<polygon fill="#1D1D1B" points="579.4,1159.4 578.7,1160.1 420,1001.4 420,975.7 382.7,938.3 382.7,938.1 382.5,834.4 
					383.5,834.4 383.7,937.9 421,975.2 421,1001 				"/>
			</g>
			<g>
				<polygon fill="#1D1D1B" points="585,1144.8 584.3,1145.5 426.2,987.4 426.2,972.8 388.7,935.3 388.7,935.1 388.5,831.4 
					389.5,831.4 389.7,934.9 427.2,972.4 427.2,987 				"/>
			</g>
			<g>
				<polygon fill="#1D1D1B" points="606.9,1142.2 606.2,1142.9 395.2,932 395.2,931.8 395.1,828 396.1,828 396.2,931.6 				"/>
			</g>
			<g>
				<polygon fill="#1D1D1B" points="612.9,1139.2 612.2,1139.9 401.2,929 401.2,928.8 401.1,825 402.1,825 402.2,928.6 				"/>
			</g>
			<g>
				<polygon fill="#1D1D1B" points="618.9,1136 618.2,1136.7 407.2,925.8 407.2,925.6 407.1,821.9 408.1,821.9 408.2,925.4 				"/>
			</g>
			<g>
				<polygon fill="#1D1D1B" points="396.1,833.4 395.1,833.4 394.9,729.8 266.8,601.7 267.5,601 395.9,729.4 395.9,729.6 				"/>
			</g>
			<g>
				<polygon fill="#1D1D1B" points="402.1,830.4 401.1,830.4 400.9,726.8 272.8,598.7 273.5,598 401.9,726.4 401.9,726.6 				"/>
			</g>
			<g>
				<polygon fill="#1D1D1B" points="408.1,827.4 407.1,827.4 406.9,723.8 278.8,595.7 279.5,595 407.9,723.4 407.9,723.6 				"/>
			</g>
			<g>
				<polygon fill="#1D1D1B" points="389.5,836.2 388.5,836.2 388.4,732.7 260.3,604.6 261,603.9 389.4,732.3 389.4,732.5 				"/>
			</g>
			<g>
				<polygon fill="#1D1D1B" points="383.5,839.5 382.5,839.5 382.4,736 254.3,607.9 255,607.2 383.4,735.6 383.4,735.8 				"/>
			</g>
			<g>
				<polygon fill="#1D1D1B" points="378.1,842.9 377.1,842.9 376.9,739.3 248.8,611.2 249.5,610.5 377.9,738.9 377.9,739.1 				"/>
			</g>
			<g>
				<polygon fill="#1D1D1B" points="372.1,845.9 371.1,845.9 370.9,742.3 242.8,614.2 243.5,613.5 371.9,741.9 371.9,742.1 				"/>
			</g>
			<g>
				<polygon fill="#1D1D1B" points="366.1,849 365.1,849 364.9,745.5 236.8,617.4 237.5,616.7 365.9,745.1 365.9,745.3 				"/>
			</g>
			<g>
				<polygon fill="#1D1D1B" points="432.1,815 431.1,815 430.9,711.5 302.8,583.4 303.5,582.7 431.9,711.1 431.9,711.3 				"/>
			</g>
			<g>
				<polygon fill="#1D1D1B" points="426.1,818.4 425.1,818.4 424.9,714.8 296.8,586.7 297.5,586 425.9,714.4 425.9,714.6 				"/>
			</g>
			<g>
				<polygon fill="#1D1D1B" points="420.1,821.4 419.1,821.4 418.9,717.8 290.8,589.7 291.5,589 419.9,717.4 419.9,717.6 				"/>
			</g>
			<g>
				<polygon fill="#1D1D1B" points="414.1,824.5 413.1,824.5 412.9,721 284.8,592.9 285.5,592.2 413.9,720.6 413.9,720.8 				"/>
			</g>
			<g>
				<polygon fill="#1D1D1B" points="297.5,52.5 297.5,52.7 297.7,586.4 296.7,586.4 296.5,52.9 				"/>
			</g>
			<g>
				<polygon fill="#1D1D1B" points="291.5,55.5 291.5,55.7 291.7,589.4 290.7,589.4 290.5,55.9 				"/>
			</g>
			<g>
				<polygon fill="#1D1D1B" points="285.5,58.6 285.5,58.8 285.7,592.5 284.7,592.5 284.5,59.1 				"/>
			</g>
			<g>
				<polyline fill="#1D1D1B" points="265.9,105.2 265.9,599.4 395.9,729.4 395.9,729.6 396.1,833.4 395.1,833.4 394.9,729.8 
					264.9,599.8 264.9,105.6 				"/>
			</g>
			<g>
				<polyline fill="#1D1D1B" points="271.9,100.7 271.9,596.3 401.9,726.4 401.9,726.6 402.1,830.4 401.1,830.4 400.9,726.8 
					270.9,596.8 270.8,101.1 				"/>
			</g>
			<g>
				<polyline fill="#1D1D1B" points="277.7,106 277.7,593.2 407.9,723.4 407.9,723.6 408.1,827.4 407.1,827.4 406.9,723.8 
					276.7,593.6 276.7,106.5 				"/>
			</g>
			<g>
				<polygon fill="#1D1D1B" points="389.5,836.2 388.5,836.2 388.4,732.7 258.8,603.2 259.5,602.5 389.4,732.3 389.4,732.5 				"/>
			</g>
			<g>
				<polygon fill="#1D1D1B" points="383.5,839.5 382.5,839.5 382.4,736 254.3,607.9 255,607.2 383.4,735.6 383.4,735.8 				"/>
			</g>
			<g>
				<polygon fill="#1D1D1B" points="378.1,842.9 377.1,842.9 376.9,739.3 248.8,611.2 249.5,610.5 377.9,738.9 377.9,739.1 				"/>
			</g>
			<g>
				<polygon fill="#1D1D1B" points="372.1,845.9 371.1,845.9 370.9,742.3 242.8,614.2 243.5,613.5 371.9,741.9 371.9,742.1 				"/>
			</g>
			<g>
				<polygon fill="#1D1D1B" points="366.1,849 365.1,849 364.9,745.5 234.9,615.5 234.9,591.1 206.2,562.4 206.9,561.7 235.9,590.7 
					235.9,615 365.9,745.1 365.9,745.3 				"/>
			</g>
			<polygon fill="#1D1D1B" points="354.7,62.1 345,62.1 326.2,80.9 326.2,588.6 442.9,705.3 443.1,808.9 443.1,808.9 443.2,907.3 
				443.2,907.5 654.2,1118.4 654.9,1117.7 444.2,907.1 444.1,803.5 444.1,803.5 443.9,705.1 443.9,704.9 327.2,588.1 327.2,81.3 
				345.4,63.1 355.1,63.1 360.2,58 359.5,57.3 			"/>
			<g>
				<polygon fill="#1D1D1B" points="450.1,805.9 449.1,805.9 448.9,702.3 334.2,587.6 334.2,83.3 341.9,75.6 348.6,75.6 348.6,76.6 
					342.3,76.6 335.2,83.7 335.2,587.1 449.9,701.9 449.9,702.1 				"/>
			</g>
			<g>
				<polygon fill="#1D1D1B" points="456.1,802.9 455.1,802.9 454.9,699.3 362,606.4 362,86.5 372.6,75.9 372.6,66 373.6,66 
					373.6,76.4 363,86.9 363,606 455.9,698.9 455.9,699.1 				"/>
			</g>
			<g>
				<polygon fill="#1D1D1B" points="438.1,812 437.1,812 436.9,708.5 319.3,590.9 319.3,90.8 313.4,84.9 314.1,84.2 320.3,90.4 
					320.3,590.5 437.9,708.1 437.9,708.3 				"/>
			</g>
			<g>
				<polygon fill="#1D1D1B" points="432.1,815 431.1,815 430.9,711.5 302.7,583.2 302.7,75.9 311,67.6 311.7,68.3 303.7,76.3 
					303.7,582.8 431.9,711.1 431.9,711.3 				"/>
			</g>
			<g>
				<polygon fill="#1D1D1B" points="426.1,818.4 425.1,818.4 424.9,714.8 296.8,586.7 297.5,586 425.9,714.4 425.9,714.6 				"/>
			</g>
			<g>
				<polygon fill="#1D1D1B" points="420.1,821.4 419.1,821.4 418.9,717.8 290.8,589.7 291.5,589 419.9,717.4 419.9,717.6 				"/>
			</g>
			<g>
				<polygon fill="#1D1D1B" points="414.1,824.5 413.1,824.5 412.9,721 284.8,592.9 285.5,592.2 413.9,720.6 413.9,720.8 				"/>
			</g>
			<g>
				<polygon fill="#1D1D1B" points="297.5,52.5 297.5,52.7 297.7,586.4 296.7,586.4 296.5,52.9 				"/>
			</g>
			<g>
				<polygon fill="#1D1D1B" points="291.5,55.5 291.5,55.7 291.7,589.4 290.7,589.4 290.5,55.9 				"/>
			</g>
			<g>
				<polygon fill="#1D1D1B" points="285.5,58.6 285.5,58.8 285.7,592.5 284.7,592.5 284.5,59.1 				"/>
			</g>
			<g>
				<path fill="#1D1D1B" d="M376,63.7c0,1.5-1.2,2.8-2.8,2.8c-1.5,0-2.8-1.2-2.8-2.8c0-1.5,1.2-2.8,2.8-2.8
					C374.8,61,376,62.2,376,63.7z M371.5,63.7c0,1,0.8,1.8,1.8,1.8c1,0,1.8-0.8,1.8-1.8c0-1-0.8-1.8-1.8-1.8
					C372.3,62,371.5,62.8,371.5,63.7z"/>
			</g>
			<g>
				<circle fill="#1D1D1B" cx="359.7" cy="57.6" r="2.3"/>
				<path fill="#1D1D1B" d="M362.4,57.6c0,1.5-1.2,2.8-2.8,2.8c-1.5,0-2.8-1.2-2.8-2.8c0-1.5,1.2-2.8,2.8-2.8
					C361.2,54.8,362.4,56.1,362.4,57.6z M357.9,57.6c0,1,0.8,1.8,1.8,1.8c1,0,1.8-0.8,1.8-1.8c0-1-0.8-1.8-1.8-1.8
					C358.7,55.8,357.9,56.6,357.9,57.6z"/>
			</g>
			<g>
				<circle fill="#1D1D1B" cx="348.8" cy="76.1" r="2.3"/>
				<path fill="#1D1D1B" d="M351.5,76.1c0,1.5-1.2,2.8-2.8,2.8c-1.5,0-2.8-1.2-2.8-2.8c0-1.5,1.2-2.8,2.8-2.8
					C350.3,73.3,351.5,74.6,351.5,76.1z M347,76.1c0,1,0.8,1.8,1.8,1.8c1,0,1.8-0.8,1.8-1.8c0-1-0.8-1.8-1.8-1.8
					C347.8,74.3,347,75.1,347,76.1z"/>
			</g>
			<g>
				<circle fill="#1D1D1B" cx="313.8" cy="84.5" r="2.3"/>
				<path fill="#1D1D1B" d="M316.5,84.5c0,1.5-1.2,2.8-2.8,2.8c-1.5,0-2.8-1.2-2.8-2.8c0-1.5,1.2-2.8,2.8-2.8
					C315.3,81.7,316.5,83,316.5,84.5z M312,84.5c0,1,0.8,1.8,1.8,1.8c1,0,1.8-0.8,1.8-1.8s-0.8-1.8-1.8-1.8
					C312.8,82.7,312,83.5,312,84.5z"/>
			</g>
			<g>
				<polyline fill="#1D1D1B" points="259.7,108 259.7,602.8 259.4,602.8 258.9,603.3 258.7,603 258.7,108.4 				"/>
			</g>
			<g>
				<polygon fill="#1D1D1B" points="255,607.2 254.3,607.9 252.6,606.2 252.6,581.9 241.6,570.9 242.3,570.2 253.6,581.5 
					253.6,605.8 				"/>
			</g>
			<g>
				<polygon fill="#1D1D1B" points="249.5,610.5 248.8,611.2 246.9,609.3 246.9,584.8 230.6,568.3 231.3,567.6 247.9,584.4 
					247.9,608.9 				"/>
			</g>
			<g>
				<polygon fill="#1D1D1B" points="243.5,613.5 242.8,614.2 240.9,612.3 240.9,587.8 218.8,565.7 219.5,564.9 241.9,587.4 
					241.9,611.9 				"/>
			</g>
			<g>
				<path fill="#1D1D1B" d="M299.7,50.7c0,0.7-0.3,1.4-0.8,2c-1.1,1.1-2.8,1.1-3.9,0c-1-1-1-2.9,0-3.9c0.5-0.5,1.2-0.8,2-0.8
					c0.7,0,1.4,0.3,2,0.8C299.4,49.3,299.7,50,299.7,50.7z M295.1,50.7c0,0.5,0.2,0.9,0.5,1.3c0.7,0.7,1.8,0.7,2.5,0
					c0.7-0.7,0.7-1.8,0-2.5c-0.3-0.3-0.8-0.5-1.3-0.5c-0.5,0-0.9,0.2-1.3,0.5C295.3,49.8,295.1,50.3,295.1,50.7z"/>
			</g>
			<g>
				<path fill="#1D1D1B" d="M293.9,53.7c0,0.7-0.3,1.4-0.8,2c-1.1,1.1-2.8,1.1-3.9,0c-1-1-1-2.9,0-3.9c0.5-0.5,1.2-0.8,2-0.8
					c0.7,0,1.4,0.3,2,0.8C293.6,52.2,293.9,52.9,293.9,53.7z M289.3,53.7c0,0.5,0.2,0.9,0.5,1.3c0.7,0.7,1.8,0.7,2.5,0
					c0.7-0.7,0.7-1.8,0-2.5c-0.3-0.3-0.8-0.5-1.3-0.5c-0.5,0-0.9,0.2-1.3,0.5C289.5,52.8,289.3,53.2,289.3,53.7z"/>
			</g>
			<g>
				<path fill="#1D1D1B" d="M287.9,56.8c0,0.7-0.3,1.4-0.8,2c-1.1,1.1-2.8,1.1-3.9,0c-1-1-1-2.9,0-3.9c0.5-0.5,1.2-0.8,2-0.8
					c0.7,0,1.4,0.3,2,0.8C287.6,55.4,287.9,56.1,287.9,56.8z M283.3,56.8c0,0.5,0.2,0.9,0.5,1.3c0.7,0.7,1.8,0.7,2.5,0
					c0.7-0.7,0.7-1.8,0-2.5c-0.3-0.3-0.8-0.5-1.3-0.5c-0.5,0-0.9,0.2-1.3,0.5C283.5,55.9,283.3,56.3,283.3,56.8z"/>
			</g>
			<g>
				<path fill="#1D1D1B" d="M315.4,66.5c0,0.7-0.3,1.4-0.8,2c-1.1,1.1-2.8,1.1-3.9,0c-1-1-1.1-2.9,0-3.9c0.5-0.5,1.2-0.8,2-0.8
					c0.7,0,1.4,0.3,2,0.8C315.1,65.1,315.4,65.8,315.4,66.5z M310.8,66.5c0,0.5,0.2,0.9,0.5,1.3c0.7,0.7,1.8,0.7,2.5,0
					c0.7-0.7,0.7-1.8,0-2.5c-0.3-0.3-0.8-0.5-1.3-0.5c-0.5,0-0.9,0.2-1.3,0.5C311,65.6,310.8,66,310.8,66.5z"/>
			</g>
		</g>
		<polygon fill="#1D1D1B" points="218.8,565.7 218.8,165 219.8,164.6 219.8,565.2 		"/>
		<polygon fill="#1D1D1B" points="230.6,568.3 230.6,180.2 231.6,179.8 231.6,567.9 		"/>
		<polygon fill="#1D1D1B" points="241.6,570.9 241.6,170.2 242.6,169.7 242.6,570.4 		"/>
		<polygon fill="#1D1D1B" points="206.2,562.4 206.2,188 207.2,187.6 207.2,562.2 		"/>
		<g>
			<path fill="#1D1D1B" d="M244.9,168.1c0,0.7-0.3,1.4-0.8,2c-1.1,1.1-2.8,1.1-3.9,0c-1-1-1-2.9,0-3.9c0.5-0.5,1.2-0.8,2-0.8
				c0.7,0,1.4,0.3,2,0.8C244.6,166.6,244.9,167.3,244.9,168.1z M240.3,168.1c0,0.5,0.2,0.9,0.5,1.3c0.7,0.7,1.8,0.7,2.5,0
				c0.7-0.7,0.7-1.8,0-2.5c-0.3-0.3-0.8-0.5-1.3-0.5c-0.5,0-0.9,0.2-1.3,0.5C240.5,167.1,240.3,167.6,240.3,168.1z"/>
		</g>
		<g>
			<circle fill="#1D1D1B" cx="231.1" cy="178.2" r="2.3"/>
			<path fill="#1D1D1B" d="M233.8,178.2c0,1.5-1.2,2.8-2.8,2.8c-1.5,0-2.8-1.2-2.8-2.8c0-1.5,1.2-2.8,2.8-2.8
				C232.6,175.5,233.8,176.7,233.8,178.2z M229.3,178.2c0,1,0.8,1.8,1.8,1.8c1,0,1.8-0.8,1.8-1.8s-0.8-1.8-1.8-1.8
				C230.1,176.5,229.3,177.3,229.3,178.2z"/>
		</g>
		<g>
			<circle fill="#1D1D1B" cx="206.7" cy="186.6" r="2.3"/>
			<path fill="#1D1D1B" d="M209.4,186.6c0,1.5-1.2,2.8-2.8,2.8c-1.5,0-2.8-1.2-2.8-2.8c0-1.5,1.2-2.8,2.8-2.8
				C208.2,183.8,209.4,185,209.4,186.6z M204.9,186.6c0,1,0.8,1.8,1.8,1.8c1,0,1.8-0.8,1.8-1.8s-0.8-1.8-1.8-1.8
				C205.7,184.8,204.9,185.6,204.9,186.6z"/>
		</g>
		<g>
			<path fill="#1D1D1B" d="M222.1,162.3c0,0.7-0.3,1.4-0.8,2c-1.1,1.1-2.8,1.1-3.9,0c-1-1-1-2.9,0-3.9c0.5-0.5,1.2-0.8,2-0.8
				c0.7,0,1.4,0.3,2,0.8C221.8,160.8,222.1,161.5,222.1,162.3z M217.5,162.3c0,0.5,0.2,0.9,0.5,1.3c0.7,0.7,1.8,0.7,2.5,0
				c0.7-0.7,0.7-1.8,0-2.5c-0.3-0.3-0.8-0.5-1.3-0.5c-0.5,0-0.9,0.2-1.3,0.5C217.7,161.4,217.5,161.8,217.5,162.3z"/>
		</g>
		<g>
			<circle fill="#1D1D1B" cx="277.1" cy="105.1" r="2.3"/>
			<path fill="#1D1D1B" d="M279.9,105.1c0,1.5-1.2,2.8-2.8,2.8c-1.5,0-2.8-1.2-2.8-2.8c0-1.5,1.2-2.8,2.8-2.8
				C278.6,102.3,279.9,103.5,279.9,105.1z M275.3,105.1c0,1,0.8,1.8,1.8,1.8c1,0,1.8-0.8,1.8-1.8c0-1-0.8-1.8-1.8-1.8
				C276.1,103.3,275.3,104.1,275.3,105.1z"/>
		</g>
		<g>
			<path fill="#1D1D1B" d="M274,98.5c0,0.7-0.3,1.4-0.8,2c-1.1,1.1-2.8,1.1-3.9,0c-1-1-1-2.9,0-3.9c0.5-0.5,1.2-0.8,2-0.8
				c0.7,0,1.4,0.3,2,0.8C273.7,97.1,274,97.8,274,98.5z M269.4,98.5c0,0.5,0.2,0.9,0.5,1.3c0.7,0.7,1.8,0.7,2.5,0
				c0.7-0.7,0.7-1.8,0-2.5c-0.3-0.3-0.8-0.5-1.3-0.5c-0.5,0-0.9,0.2-1.3,0.5C269.6,97.6,269.4,98,269.4,98.5z"/>
		</g>
		<g>
			<path fill="#1D1D1B" d="M262,106.3c0,0.7-0.3,1.4-0.8,2c-1.1,1.1-2.8,1.1-3.9,0c-1-1-1-2.9,0-3.9c0.5-0.5,1.2-0.8,2-0.8
				c0.7,0,1.4,0.3,2,0.8C261.7,104.9,262,105.6,262,106.3z M257.4,106.3c0,0.5,0.2,0.9,0.5,1.3c0.7,0.7,1.8,0.7,2.5,0
				c0.7-0.7,0.7-1.8,0-2.5c-0.3-0.3-0.8-0.5-1.3-0.5c-0.5,0-0.9,0.2-1.3,0.5C257.6,105.4,257.4,105.9,257.4,106.3z"/>
		</g>
		<g>
			<circle fill="#1D1D1B" cx="265.3" cy="104.1" r="2.3"/>
			<path fill="#1D1D1B" d="M268.1,104.1c0,1.5-1.2,2.8-2.8,2.8c-1.5,0-2.8-1.2-2.8-2.8c0-1.5,1.2-2.8,2.8-2.8
				C266.9,101.3,268.1,102.5,268.1,104.1z M263.6,104.1c0,1,0.8,1.8,1.8,1.8c1,0,1.8-0.8,1.8-1.8c0-1-0.8-1.8-1.8-1.8
				C264.4,102.3,263.6,103.1,263.6,104.1z"/>
		</g>
	</g>
	<g clip-path="url(#SVGID_2_)">
		<polyline fill="#1D1D1B" points="176.4,926.8 176.4,745.6 175.4,745.6 175.4,927.2 		"/>
		<polyline fill="#1D1D1B" points="170.1,928.9 170.1,747.7 169.1,747.7 169.1,929.3 		"/>
		<polyline fill="#1D1D1B" points="163.7,931 163.7,749.8 162.7,749.8 162.7,931.4 		"/>
		<polyline fill="#1D1D1B" points="183.1,924.1 183.1,743 182.1,743 182.1,924.5 		"/>
		<polyline fill="#1D1D1B" points="189.7,922.2 189.7,741.1 188.7,741.1 188.7,922.6 		"/>
		<polyline fill="#1D1D1B" points="195.9,920.7 195.9,739.6 194.9,739.6 194.9,921.2 		"/>
		<polyline fill="#1D1D1B" points="202.2,918.6 202.2,737.5 201.2,737.5 201.2,919 		"/>
		<polyline fill="#1D1D1B" points="208.7,916.6 208.7,735.5 207.7,735.5 207.7,917 		"/>
		<polyline fill="#1D1D1B" points="138,939.2 138,758.1 137,758.1 137,939.7 		"/>
		<polyline fill="#1D1D1B" points="144.6,937.4 144.6,756.2 143.6,756.2 143.6,937.8 		"/>
		<polyline fill="#1D1D1B" points="151,935.2 151,754.1 150,754.1 150,935.7 		"/>
		<polyline fill="#1D1D1B" points="157.5,933.2 157.5,752.1 156.5,752.1 156.5,933.6 		"/>
		<g>
			<polygon fill="#1D1D1B" points="8.5,621.1 8.6,621.2 143.8,756.5 144.5,755.8 9.5,620.6 			"/>
		</g>
		<g>
			<polygon fill="#1D1D1B" points="14.9,618.9 15,619.1 150.1,754.4 150.8,753.7 15.9,618.5 			"/>
		</g>
		<g>
			<polygon fill="#1D1D1B" points="21.3,616.9 21.5,617.1 156.6,752.4 157.3,751.7 22.3,616.5 			"/>
		</g>
		<polyline fill="#1D1D1B" points="42.4,201.9 42.4,610.3 175.4,743.3 175.4,927.2 176.4,926.8 176.4,742.9 43.4,609.9 43.4,202.3 
					"/>
		<polyline fill="#1D1D1B" points="36,199.7 36,612.2 169.1,745.3 169.1,929.3 170.1,928.9 170.1,744.9 37,611.8 37,200.1 		"/>
		<polyline fill="#1D1D1B" points="30.7,209.4 30.7,613.9 163.7,746.9 163.7,931 162.7,931.4 162.7,747.3 29.7,614.3 29.7,209 		"/>
		<polyline fill="#1D1D1B" points="183.1,924.1 183.1,741 182.1,741 182.1,924.5 		"/>
		<polyline fill="#1D1D1B" points="189.7,922.2 189.7,741.1 188.7,741.1 188.7,922.6 		"/>
		<polyline fill="#1D1D1B" points="195.9,920.7 195.9,739.6 194.9,739.6 194.9,921.2 		"/>
		<polyline fill="#1D1D1B" points="202.2,918.6 202.2,737.5 201.2,737.5 201.2,919 		"/>
		<polyline fill="#1D1D1B" points="208.7,916.6 208.7,732.7 93.9,617.8 93.9,199.3 92.9,199.3 92.9,618.3 207.7,733.1 207.7,917 		
			"/>
		<polyline fill="#1D1D1B" points="124.2,943.8 124.2,778.6 50,704.5 24.2,704.5 17.4,711.3 10.2,711.3 10.2,710.3 16.9,710.3 
			23.8,703.5 50.4,703.5 125.2,778.2 125.2,943.4 		"/>
		<polyline fill="#1D1D1B" points="118.8,945.5 118.8,783.2 46.5,710.8 35.6,710.8 30.8,715.6 31.5,716.3 36,711.8 46.1,711.8 
			117.8,783.6 117.8,945.9 		"/>
		<polyline fill="#1D1D1B" points="112.4,947.6 112.4,816.2 41.2,745 26.3,745 19.3,738 18.6,738.7 25.9,746 40.8,746 111.4,816.6 
			111.4,948 		"/>
		<polyline fill="#1D1D1B" points="131.6,941.4 131.6,775.1 62.2,705.7 62.2,697.3 61.2,697.3 61.2,706.1 130.6,775.5 130.6,941.8 
					"/>
		<polyline fill="#1D1D1B" points="138,939.2 138,757.9 21.4,641.3 9.7,641.3 9.7,642.3 21,642.3 137,758.3 137,939.7 		"/>
		<polyline fill="#1D1D1B" points="144.6,937.4 144.6,756.2 143.6,756.2 143.6,937.8 		"/>
		<polyline fill="#1D1D1B" points="151,935.2 151,754.1 150,754.1 150,935.7 		"/>
		<polyline fill="#1D1D1B" points="157.5,933.2 157.5,752.1 156.5,752.1 156.5,933.6 		"/>
		<g>
			<polygon fill="#1D1D1B" points="8.5,621.1 8.6,621.2 143.8,756.5 144.5,755.8 9.5,620.6 			"/>
		</g>
		<g>
			<polygon fill="#1D1D1B" points="14.9,618.9 15,619.1 150.1,754.4 150.8,753.7 15.9,618.5 			"/>
		</g>
		<g>
			<polygon fill="#1D1D1B" points="21.3,616.9 21.5,617.1 156.6,752.4 157.3,751.7 22.3,616.5 			"/>
		</g>
		<g>
			<path fill="#1D1D1B" d="M15.2,734.9c1.1-1.1,2.8-1.1,3.9,0c1.1,1.1,1.1,2.8,0,3.9c-1.1,1.1-2.8,1.1-3.9,0
				C14.1,737.7,14.1,736,15.2,734.9z M15.9,735.6c-0.7,0.7-0.7,1.8,0,2.5c0.7,0.7,1.8,0.7,2.5,0c0.7-0.7,0.7-1.8,0-2.5
				C17.7,734.9,16.6,734.9,15.9,735.6z"/>
		</g>
		<g>
			
				<ellipse transform="matrix(0.7071 -0.7071 0.7071 0.7071 -499.5403 215.4255)" fill="#1D1D1B" cx="10.3" cy="710.7" rx="2.3" ry="2.3"/>
			<path fill="#1D1D1B" d="M8.3,708.7c1.1-1.1,2.8-1.1,3.9,0c1.1,1.1,1.1,2.8,0,3.9c-1.1,1.1-2.8,1.1-3.9,0
				C7.2,711.6,7.2,709.8,8.3,708.7z M9,709.5c-0.7,0.7-0.7,1.8,0,2.5c0.7,0.7,1.8,0.7,2.5,0c0.7-0.7,0.7-1.8,0-2.5
				C10.8,708.8,9.7,708.8,9,709.5z"/>
		</g>
		<g>
			
				<ellipse transform="matrix(0.707 -0.7073 0.7073 0.707 -497.3528 231.7962)" fill="#1D1D1B" cx="31" cy="716.1" rx="2.3" ry="2.3"/>
			<path fill="#1D1D1B" d="M29.1,714.1c1.1-1.1,2.8-1.1,3.9,0c1.1,1.1,1.1,2.8,0,3.9c-1.1,1.1-2.8,1.1-3.9,0
				C28,717,28,715.2,29.1,714.1z M29.8,714.8c-0.7,0.7-0.7,1.8,0,2.5c0.7,0.7,1.8,0.7,2.5,0c0.7-0.7,0.7-1.8,0-2.5
				C31.6,714.1,30.5,714.1,29.8,714.8z"/>
		</g>
		<g>
			
				<ellipse transform="matrix(0.7071 -0.7071 0.7071 0.7071 -474.9706 247.8904)" fill="#1D1D1B" cx="61.7" cy="697.3" rx="2.3" ry="2.3"/>
			<path fill="#1D1D1B" d="M59.8,695.3c1.1-1.1,2.8-1.1,3.9,0c1.1,1.1,1.1,2.8,0,3.9c-1.1,1.1-2.8,1.1-3.9,0
				C58.7,698.2,58.7,696.4,59.8,695.3z M60.5,696c-0.7,0.7-0.7,1.8,0,2.5c0.7,0.7,1.8,0.7,2.5,0c0.7-0.7,0.7-1.8,0-2.5
				S61.2,695.3,60.5,696z"/>
		</g>
		<g>
			
				<ellipse transform="matrix(0.7071 -0.7071 0.7071 0.7071 -134.2866 117.1852)" fill="#1D1D1B" cx="74.3" cy="220.7" rx="2.3" ry="2.3"/>
			<path fill="#1D1D1B" d="M72.3,218.7c1.1-1.1,2.8-1.1,3.9,0c1.1,1.1,1.1,2.8,0,3.9c-1.1,1.1-2.8,1.1-3.9,0
				C71.3,221.6,71.3,219.8,72.3,218.7z M73.1,219.4c-0.7,0.7-0.7,1.8,0,2.5c0.7,0.7,1.8,0.7,2.5,0c0.7-0.7,0.7-1.8,0-2.5
				C74.9,218.7,73.7,218.7,73.1,219.4z"/>
		</g>
		<g>
			
				<ellipse transform="matrix(0.7071 -0.7071 0.7071 0.7071 -126.583 118.9973)" fill="#1D1D1B" cx="80.4" cy="212.3" rx="2.3" ry="2.3"/>
			<path fill="#1D1D1B" d="M78.4,210.3c1.1-1.1,2.8-1.1,3.9,0c1.1,1.1,1.1,2.8,0,3.9c-1.1,1.1-2.8,1.1-3.9,0
				C77.3,213.2,77.3,211.4,78.4,210.3z M79.1,211c-0.7,0.7-0.7,1.8,0,2.5s1.8,0.7,2.5,0c0.7-0.7,0.7-1.8,0-2.5
				C80.9,210.3,79.8,210.3,79.1,211z"/>
		</g>
		<g>
			
				<ellipse transform="matrix(0.7071 -0.7071 0.7071 0.7071 -113.5604 124.391)" fill="#1D1D1B" cx="93.4" cy="199.3" rx="2.3" ry="2.3"/>
			<path fill="#1D1D1B" d="M91.4,197.3c1.1-1.1,2.8-1.1,3.9,0c1.1,1.1,1.1,2.8,0,3.9c-1.1,1.1-2.8,1.1-3.9,0
				C90.3,200.2,90.3,198.4,91.4,197.3z M92.1,198c-0.7,0.7-0.7,1.8,0,2.5s1.8,0.7,2.5,0c0.7-0.7,0.7-1.8,0-2.5S92.8,197.3,92.1,198z
				"/>
		</g>
		<g>
			<path fill="#1D1D1B" d="M84.8,215.9c1.1-1.1,2.8-1.1,3.9,0c1.1,1.1,1.1,2.8,0,3.9c-1.1,1.1-2.8,1.1-3.9,0
				C83.7,218.8,83.7,217,84.8,215.9z M85.5,216.7c-0.7,0.7-0.7,1.8,0,2.5c0.7,0.7,1.8,0.7,2.5,0c0.7-0.7,0.7-1.8,0-2.5
				C87.3,216,86.2,216,85.5,216.7z"/>
		</g>
		<g>
			<polyline fill="#1D1D1B" points="48.8,192.1 48.8,607.9 182.2,741.3 182.5,741.1 183.1,741.1 183.1,740.8 49.8,607.4 49.8,192.5 
							"/>
		</g>
		<g>
			<polygon fill="#1D1D1B" points="188.7,741.1 189.7,741.1 189.7,738.7 74.8,623.9 74.8,220.7 73.8,220.7 73.8,624.3 188.7,739.1 
							"/>
		</g>
		<g>
			<polygon fill="#1D1D1B" points="194.9,739.6 195.9,739.6 195.9,736.8 81,621.9 80.8,214.7 79.8,214.7 80,622.3 194.9,737.2 			
				"/>
		</g>
		<g>
			<polygon fill="#1D1D1B" points="201.2,737.5 202.2,737.5 202.2,734.7 87.3,619.8 87.2,220 86.2,220 86.3,620.2 201.2,735.1 			
				"/>
		</g>
		<g>
			<path fill="#1D1D1B" d="M4.9,619.4c0-0.7,0.3-1.4,0.8-2c0.5-0.5,1.2-0.8,2-0.8c1.5,0,2.8,1.3,2.8,2.8c0,1.5-1.2,2.8-2.8,2.8
				c-0.7,0-1.4-0.3-2-0.8C5.2,620.8,4.9,620.1,4.9,619.4z M7.7,617.6c-0.5,0-0.9,0.2-1.3,0.5c-0.3,0.3-0.5,0.8-0.5,1.3
				c0,0.9,0.8,1.8,1.8,1.8c1,0,1.8-0.8,1.8-1.8c0-0.5-0.2-0.9-0.5-1.3C8.6,617.8,8.2,617.6,7.7,617.6z"/>
		</g>
		<g>
			<path fill="#1D1D1B" d="M11.1,617.4c0-0.7,0.3-1.4,0.8-2c0.5-0.5,1.2-0.8,2-0.8c1.5,0,2.8,1.3,2.8,2.8c0,1.5-1.2,2.8-2.8,2.8
				c-0.7,0-1.4-0.3-2-0.8C11.4,618.8,11.1,618.1,11.1,617.4z M13.9,615.6c-0.5,0-0.9,0.2-1.3,0.5c-0.3,0.3-0.5,0.8-0.5,1.3
				c0,0.9,0.8,1.8,1.8,1.8c1,0,1.8-0.8,1.8-1.8c0-0.5-0.2-0.9-0.5-1.3C14.8,615.8,14.4,615.6,13.9,615.6z"/>
		</g>
		<g>
			<path fill="#1D1D1B" d="M17.6,615.3c0-0.7,0.3-1.4,0.8-2c0.5-0.5,1.2-0.8,2-0.8c1.5,0,2.8,1.3,2.8,2.8c0,1.5-1.2,2.8-2.8,2.8
				c-0.7,0-1.4-0.3-2-0.8C17.9,616.8,17.6,616.1,17.6,615.3z M20.3,613.5c-0.5,0-0.9,0.2-1.3,0.5c-0.3,0.3-0.5,0.8-0.5,1.3
				c0,0.9,0.8,1.8,1.8,1.8c1,0,1.8-0.8,1.8-1.8c0-0.5-0.2-0.9-0.5-1.3C21.3,613.7,20.8,613.5,20.3,613.5z"/>
		</g>
		<g>
			<path fill="#1D1D1B" d="M5,641.6c0-0.7,0.3-1.4,0.8-2c0.5-0.5,1.2-0.8,2-0.8c1.5,0,2.8,1.3,2.8,2.8c0,1.5-1.2,2.8-2.8,2.8
				c-0.7,0-1.4-0.3-2-0.8C5.3,643.1,5,642.4,5,641.6z M7.8,639.9c-0.5,0-0.9,0.2-1.3,0.5c-0.3,0.3-0.5,0.8-0.5,1.3
				c0,0.9,0.8,1.8,1.8,1.8c1,0,1.8-0.8,1.8-1.8c0-0.5-0.2-0.9-0.5-1.3C8.7,640.1,8.2,639.9,7.8,639.9z"/>
		</g>
		<g>
			
				<ellipse transform="matrix(0.7071 -0.7071 0.7071 0.7071 -120.7404 90.812)" fill="#1D1D1B" cx="49.2" cy="191.2" rx="2.3" ry="2.3"/>
			<path fill="#1D1D1B" d="M47.3,189.2c1.1-1.1,2.8-1.1,3.9,0c1.1,1.1,1.1,2.8,0,3.9c-1.1,1.1-2.8,1.1-3.9,0
				C46.2,192,46.2,190.3,47.3,189.2z M48,189.9c-0.7,0.7-0.7,1.8,0,2.5c0.7,0.7,1.8,0.7,2.5,0c0.7-0.7,0.7-1.8,0-2.5
				C49.8,189.2,48.7,189.2,48,189.9z"/>
		</g>
		<g>
			
				<ellipse transform="matrix(0.7071 -0.7071 0.7071 0.7071 -129.5567 83.8601)" fill="#1D1D1B" cx="36.4" cy="198.3" rx="2.3" ry="2.3"/>
			<path fill="#1D1D1B" d="M34.5,196.4c1.1-1.1,2.8-1.1,3.9,0c1.1,1.1,1.1,2.8,0,3.9c-1.1,1.1-2.8,1.1-3.9,0
				C33.4,199.2,33.4,197.4,34.5,196.4z M35.2,197.1c-0.7,0.7-0.7,1.8,0,2.5c0.7,0.7,1.8,0.7,2.5,0c0.7-0.7,0.7-1.8,0-2.5
				C37,196.4,35.9,196.4,35.2,197.1z"/>
		</g>
		<g>
			<path fill="#1D1D1B" d="M40.9,198.1c1.1-1.1,2.8-1.1,3.9,0c1.1,1.1,1.1,2.8,0,3.9c-1.1,1.1-2.8,1.1-3.9,0
				C39.8,201,39.8,199.2,40.9,198.1z M41.6,198.8c-0.7,0.7-0.7,1.8,0,2.5c0.7,0.7,1.8,0.7,2.5,0c0.7-0.7,0.7-1.8,0-2.5
				C43.5,198.1,42.3,198.1,41.6,198.8z"/>
		</g>
		<g>
			<path fill="#1D1D1B" d="M28.3,205.2c1.1-1.1,2.8-1.1,3.9,0c1.1,1.1,1.1,2.8,0,3.9c-1.1,1.1-2.8,1.1-3.9,0
				C27.2,208.1,27.2,206.3,28.3,205.2z M29,205.9c-0.7,0.7-0.7,1.8,0,2.5c0.7,0.7,1.8,0.7,2.5,0c0.7-0.7,0.7-1.8,0-2.5
				C30.8,205.3,29.7,205.3,29,205.9z"/>
		</g>
		<polyline fill="#1D1D1B" points="119.6,943 119.6,811.6 36.2,728.2 21.3,728.2 14.3,721.2 13.6,721.9 20.9,729.2 35.8,729.2 
			118.6,812 118.6,943.4 		"/>
		<g>
			<path fill="#1D1D1B" d="M10.2,718.1c1.1-1.1,2.8-1.1,3.9,0c1.1,1.1,1.1,2.8,0,3.9c-1.1,1.1-2.8,1.1-3.9,0
				C9.1,721,9.1,719.2,10.2,718.1z M10.9,718.8c-0.7,0.7-0.7,1.8,0,2.5c0.7,0.7,1.8,0.7,2.5,0c0.7-0.7,0.7-1.8,0-2.5
				C12.7,718.1,11.6,718.1,10.9,718.8z"/>
		</g>
	</g>
	<g clip-path="url(#SVGID_2_)">
		<g>
			<polygon fill="#1D1D1B" points="815.3,1048.1 814.3,1048.1 814.3,749.8 814.5,749.6 887.7,676.2 888.4,676.9 815.3,750.2 			"/>
		</g>
		<g>
			<polygon fill="#1D1D1B" points="809,1045.9 808,1045.9 808,747.7 808.1,747.5 881.4,674 882.1,674.8 809,748.1 			"/>
		</g>
		<g>
			<polygon fill="#1D1D1B" points="802.6,1043.8 801.6,1043.8 801.6,745.5 801.8,745.4 875,671.9 875.7,672.6 802.6,746 			"/>
		</g>
		<g>
			<polygon fill="#1D1D1B" points="821.8,1050.1 820.8,1050.1 820.8,751.8 821,751.6 894.2,678.2 894.9,678.9 821.8,752.2 			"/>
		</g>
		<g>
			<polygon fill="#1D1D1B" points="828.2,1052.2 827.2,1052.2 827.2,753.9 827.3,753.8 900.6,680.3 901.3,681 828.2,754.3 			"/>
		</g>
		<g>
			<polygon fill="#1D1D1B" points="841.1,1056.2 840.1,1056.2 840.1,757.9 840.3,757.8 913.5,684.3 914.2,685 841.1,758.3 			"/>
		</g>
		<g>
			<polygon fill="#1D1D1B" points="847.6,1058.2 846.6,1058.2 846.6,759.9 846.8,759.8 920,686.3 920.7,687 847.6,760.3 			"/>
		</g>
		<g>
			<polygon fill="#1D1D1B" points="764.1,786.3 671.8,878.6 671.1,877.8 763.1,785.8 763.1,733.2 763.2,733 836.5,659.6 
				837.2,660.3 764.1,733.6 			"/>
		</g>
		<g>
			<polygon fill="#1D1D1B" points="757.7,784.1 674.7,867.1 674,866.4 756.7,783.7 756.7,731.1 756.8,730.9 830.1,657.4 
				830.8,658.1 757.7,731.5 			"/>
		</g>
		<g>
			<polygon fill="#1D1D1B" points="751.3,782.3 667.2,866.5 666.5,865.7 750.3,781.9 750.3,728.9 750.5,728.8 823.7,655.3 
				824.4,656 751.3,729.3 			"/>
		</g>
		<g>
			<polygon fill="#1D1D1B" points="752,1030.2 751,1030.2 751,805.7 769.1,787.6 769.1,734.8 769.3,734.6 842.5,661.1 843.2,661.9 
				770.1,735.2 770.1,788 752,806.2 			"/>
		</g>
		<g>
			<polygon fill="#1D1D1B" points="766.2,1023.9 765.2,1023.9 765.2,800.2 775.5,789.9 775.5,736.9 775.7,736.7 848.9,663.3 
				849.6,664 776.5,737.3 776.5,790.3 766.2,800.6 			"/>
		</g>
		<g>
			<polygon fill="#1D1D1B" points="783.5,1037.5 782.5,1037.5 782.5,739.2 782.7,739 855.9,665.6 856.6,666.3 783.5,739.6 			"/>
		</g>
		<g>
			<polygon fill="#1D1D1B" points="789.9,1039.6 788.9,1039.6 788.9,741.3 789,741.2 862.3,667.7 863,668.4 789.9,741.7 			"/>
		</g>
		<g>
			<polygon fill="#1D1D1B" points="796.4,1041.6 795.4,1041.6 795.4,743.3 795.5,743.2 868.8,669.7 869.5,670.4 796.4,743.7 			"/>
		</g>
		<g>
			<polygon fill="#1D1D1B" points="852.8,670 852.1,669.3 925.2,596 925.2,118.7 926.2,118.7 926.2,596.4 926.1,596.6 			"/>
		</g>
		<g>
			<polygon fill="#1D1D1B" points="859.2,672.2 858.5,671.5 931.6,598.1 931.6,120.8 932.6,120.8 932.6,598.5 932.5,598.7 			"/>
		</g>
		<g>
			<polygon fill="#1D1D1B" points="865.6,674.3 864.9,673.6 938,600.2 938,122.9 939,122.9 939,600.7 938.8,600.8 			"/>
		</g>
		<g>
			<polygon fill="#1D1D1B" points="846.2,667.4 845.5,666.7 918.6,593.4 918.6,116 919.6,116 919.6,593.8 919.4,593.9 			"/>
		</g>
		<g>
			<polygon fill="#1D1D1B" points="839.6,665.5 838.9,664.8 912,591.5 912,114.1 913,114.1 913,591.9 912.8,592 			"/>
		</g>
		<g>
			<polygon fill="#1D1D1B" points="833.4,664 832.7,663.3 905.8,590 905.8,112.7 906.8,112.7 906.8,590.4 906.7,590.6 			"/>
		</g>
		<g>
			<polygon fill="#1D1D1B" points="827,661.9 826.3,661.2 899.4,587.9 899.4,110.5 900.4,110.5 900.4,588.3 900.3,588.4 			"/>
		</g>
		<g>
			<polygon fill="#1D1D1B" points="820.6,659.9 819.8,659.2 893,585.9 893,108.5 894,108.5 894,586.3 893.8,586.4 			"/>
		</g>
		<g>
			<polygon fill="#1D1D1B" points="891.3,682.5 890.6,681.8 963.7,608.5 963.7,131.2 964.7,131.2 964.7,608.9 964.5,609.1 			"/>
		</g>
		<g>
			<polygon fill="#1D1D1B" points="884.7,680.6 884,679.9 957.1,606.6 957.1,129.3 958.1,129.3 958.1,607 957.9,607.2 			"/>
		</g>
		<g>
			<polygon fill="#1D1D1B" points="878.3,678.5 877.6,677.8 950.7,604.5 950.7,127.2 951.7,127.2 951.7,604.9 951.6,605.1 			"/>
		</g>
		<g>
			<polygon fill="#1D1D1B" points="871.8,676.5 871.1,675.8 944.2,602.5 944.2,125.2 945.2,125.2 945.2,602.9 945.1,603 			"/>
		</g>
		<g>
			<polygon fill="#1D1D1B" points="1031.3,56 1031.2,56.2 957.9,129.6 957.2,128.9 1030.3,55.6 			"/>
		</g>
		<g>
			<polygon fill="#1D1D1B" points="1025,53.9 1024.8,54 951.6,127.5 950.8,126.8 1024,53.5 			"/>
		</g>
		<g>
			<polygon fill="#1D1D1B" points="1018.5,51.9 1018.3,52 945.1,125.5 944.4,124.8 1017.5,51.5 			"/>
		</g>
		<g>
			<polyline fill="#1D1D1B" points="961.6,26.8 961.6,81 926.2,116.4 926.2,596.4 926.1,596.6 852.8,670 852.1,669.3 925.2,596 
				925.2,116 960.6,80.6 960.6,27.2 			"/>
		</g>
		<g>
			<polyline fill="#1D1D1B" points="968.1,24.7 968.1,82.9 932.6,118.4 932.6,598.5 932.5,598.7 859.2,672.2 858.5,671.5 
				931.6,598.1 931.6,118 967.1,82.5 967.1,25.1 			"/>
		</g>
		<g>
			<polyline fill="#1D1D1B" points="974.3,33.9 974.3,85 939,120.4 939,600.7 938.8,600.8 865.6,674.3 864.9,673.6 938,600.2 
				938,120 973.3,84.6 973.3,34.4 			"/>
		</g>
		<g>
			<polygon fill="#1D1D1B" points="846.2,667.4 845.5,666.7 918.6,593.4 918.6,114.1 919.6,114.1 919.6,593.8 919.4,593.9 			"/>
		</g>
		<g>
			<polygon fill="#1D1D1B" points="839.6,665.5 838.9,664.8 912,591.5 912,114.1 913,114.1 913,591.9 912.8,592 			"/>
		</g>
		<g>
			<polygon fill="#1D1D1B" points="833.4,664 832.7,663.3 905.8,590 905.8,112.7 906.8,112.7 906.8,590.4 906.7,590.6 			"/>
		</g>
		<g>
			<polygon fill="#1D1D1B" points="827,661.9 826.3,661.2 899.4,587.9 899.4,110.5 900.4,110.5 900.4,588.3 900.3,588.4 			"/>
		</g>
		<g>
			<polygon fill="#1D1D1B" points="820.6,659.9 819.8,659.2 893,585.9 893,105.8 910.2,88.6 910.2,48 911.2,48 911.2,89 894,106.2 
				894,586.3 893.8,586.4 			"/>
		</g>
		<polygon fill="#1D1D1B" points="1064.9,103.2 1058.1,96.4 1031.5,96.4 976.5,151.3 976.5,612.6 903.4,686 903.4,686 833.9,755.7 
			833.8,755.8 833.8,1054.1 834.8,1054.1 834.8,756.2 907.9,682.9 907.9,682.9 977.4,613.2 977.5,613 977.5,151.7 1031.9,97.4 
			1057.7,97.4 1064.5,104.2 1071.7,104.2 1071.7,103.2 		"/>
		<g>
			<polygon fill="#1D1D1B" points="910.5,688.8 909.8,688.1 982.9,614.7 982.9,156.3 1035.4,103.7 1046.3,103.7 1051.1,108.5 
				1050.4,109.2 1045.9,104.7 1035.8,104.7 983.9,156.7 983.9,615.2 983.7,615.3 			"/>
		</g>
		<g>
			<polygon fill="#1D1D1B" points="916.8,690.9 916.1,690.2 989.2,616.9 989.2,189.3 1052.9,125.7 1067.8,125.7 1074.8,118.6 
				1075.5,119.4 1068.2,126.7 1053.3,126.7 990.2,189.7 990.2,617.3 990.1,617.4 			"/>
		</g>
		<g>
			<polygon fill="#1D1D1B" points="897.6,684.7 896.9,683.9 970,610.6 970,148.2 1019.6,98.6 1019.6,90.2 1020.6,90.2 1020.6,99 
				971,148.6 971,611 970.9,611.2 			"/>
		</g>
		<g>
			<polygon fill="#1D1D1B" points="891.3,682.5 890.6,681.8 963.7,608.5 963.7,131 1018.4,76.2 1030.2,76.2 1030.2,77.2 
				1018.8,77.2 964.7,131.4 964.7,608.9 964.5,609.1 			"/>
		</g>
		<g>
			<polygon fill="#1D1D1B" points="884.7,680.6 884,679.9 957.1,606.6 957.1,129.3 958.1,129.3 958.1,607 957.9,607.2 			"/>
		</g>
		<g>
			<polygon fill="#1D1D1B" points="878.3,678.5 877.6,677.8 950.7,604.5 950.7,127.2 951.7,127.2 951.7,604.9 951.6,605.1 			"/>
		</g>
		<g>
			<polygon fill="#1D1D1B" points="871.8,676.5 871.1,675.8 944.2,602.5 944.2,125.2 945.2,125.2 945.2,602.9 945.1,603 			"/>
		</g>
		<g>
			<polygon fill="#1D1D1B" points="1031.3,56 1031.2,56.2 957.9,129.6 957.2,128.9 1030.3,55.6 			"/>
		</g>
		<g>
			<polygon fill="#1D1D1B" points="1025,53.9 1024.8,54 951.6,127.5 950.8,126.8 1024,53.5 			"/>
		</g>
		<g>
			<polygon fill="#1D1D1B" points="1018.5,51.9 1018.3,52 945.1,125.5 944.4,124.8 1017.5,51.5 			"/>
		</g>
		<g>
			<path fill="#1D1D1B" d="M1078.9,119.5c-1.1,1.1-2.8,1.1-3.9,0c-1.1-1.1-1.1-2.8,0-3.9c1.1-1.1,2.8-1.1,3.9,0
				C1080,116.7,1080,118.4,1078.9,119.5z M1075.6,116.3c-0.7,0.7-0.7,1.8,0,2.5c0.7,0.7,1.8,0.7,2.5,0c0.7-0.7,0.7-1.8,0-2.5
				C1077.5,115.6,1076.3,115.6,1075.6,116.3z"/>
		</g>
		<g>
			
				<ellipse transform="matrix(0.7071 -0.7071 0.7071 0.7071 240.6209 788.0859)" fill="#1D1D1B" cx="1071.6" cy="103.6" rx="2.3" ry="2.3"/>
			<path fill="#1D1D1B" d="M1073.6,105.6c-1.1,1.1-2.8,1.1-3.9,0c-1.1-1.1-1.1-2.8,0-3.9c1.1-1.1,2.8-1.1,3.9,0
				C1074.7,102.7,1074.7,104.5,1073.6,105.6z M1070.4,102.3c-0.7,0.7-0.7,1.8,0,2.5c0.7,0.7,1.8,0.7,2.5,0c0.7-0.7,0.7-1.8,0-2.5
				C1072.2,101.6,1071.1,101.6,1070.4,102.3z"/>
		</g>
		<g>
			
				<ellipse transform="matrix(0.7073 -0.707 0.707 0.7073 230.6028 774.7901)" fill="#1D1D1B" cx="1050.8" cy="108.9" rx="2.3" ry="2.3"/>
			<path fill="#1D1D1B" d="M1052.8,110.9c-1.1,1.1-2.8,1.1-3.9,0c-1.1-1.1-1.1-2.8,0-3.9c1.1-1.1,2.8-1.1,3.9,0
				C1053.9,108.1,1053.9,109.8,1052.8,110.9z M1049.6,107.7c-0.7,0.7-0.7,1.8,0,2.5c0.7,0.7,1.8,0.7,2.5,0c0.7-0.7,0.7-1.8,0-2.5
				C1051.4,107,1050.3,107,1049.6,107.7z"/>
		</g>
		<g>
			
				<ellipse transform="matrix(0.7071 -0.7071 0.7071 0.7071 235.0381 747.7564)" fill="#1D1D1B" cx="1020.1" cy="90.2" rx="2.3" ry="2.3"/>
			<path fill="#1D1D1B" d="M1022.1,92.1c-1.1,1.1-2.8,1.1-3.9,0c-1.1-1.1-1.1-2.8,0-3.9c1.1-1.1,2.8-1.1,3.9,0
				C1023.2,89.3,1023.2,91,1022.1,92.1z M1018.9,88.9c-0.7,0.7-0.7,1.8,0,2.5c0.7,0.7,1.8,0.7,2.5,0c0.7-0.7,0.7-1.8,0-2.5
				C1020.7,88.2,1019.6,88.2,1018.9,88.9z"/>
		</g>
		<g>
			
				<ellipse transform="matrix(0.7071 -0.7071 0.7071 0.7071 216.4359 680.5601)" fill="#1D1D1B" cx="929.7" cy="79" rx="2.3" ry="2.3"/>
			<path fill="#1D1D1B" d="M931.7,81c-1.1,1.1-2.8,1.1-3.9,0c-1.1-1.1-1.1-2.8,0-3.9c1.1-1.1,2.8-1.1,3.9,0
				C932.8,78.1,932.8,79.9,931.7,81z M928.5,77.8c-0.7,0.7-0.7,1.8,0,2.5c0.7,0.7,1.8,0.7,2.5,0c0.7-0.7,0.7-1.8,0-2.5
				C930.3,77.1,929.2,77.1,928.5,77.8z"/>
		</g>
		<g>
			
				<ellipse transform="matrix(0.7071 -0.7071 0.7071 0.7071 227.4154 671.0092)" fill="#1D1D1B" cx="923.7" cy="61" rx="2.3" ry="2.3"/>
			<path fill="#1D1D1B" d="M925.7,63c-1.1,1.1-2.8,1.1-3.9,0c-1.1-1.1-1.1-2.8,0-3.9c1.1-1.1,2.8-1.1,3.9,0
				C926.7,60.1,926.7,61.9,925.7,63z M922.4,59.7c-0.7,0.7-0.7,1.8,0,2.5c0.7,0.7,1.8,0.7,2.5,0c0.7-0.7,0.7-1.8,0-2.5
				C924.3,59,923.1,59,922.4,59.7z"/>
		</g>
		<g>
			
				<ellipse transform="matrix(0.7071 -0.7071 0.7071 0.7071 232.8098 657.9869)" fill="#1D1D1B" cx="910.7" cy="48" rx="2.3" ry="2.3"/>
			<path fill="#1D1D1B" d="M912.6,49.9c-1.1,1.1-2.8,1.1-3.9,0c-1.1-1.1-1.1-2.8,0-3.9c1.1-1.1,2.8-1.1,3.9,0
				C913.7,47.1,913.7,48.8,912.6,49.9z M909.4,46.7c-0.7,0.7-0.7,1.8,0,2.5c0.7,0.7,1.8,0.7,2.5,0s0.7-1.8,0-2.5
				C911.2,46,910.1,46,909.4,46.7z"/>
		</g>
		<g>
			<path fill="#1D1D1B" d="M919.3,68.6c-1.1,1.1-2.8,1.1-3.9,0c-1.1-1.1-1.1-2.8,0-3.9c1.1-1.1,2.8-1.1,3.9,0
				C920.4,65.7,920.4,67.5,919.3,68.6z M916.1,65.3c-0.7,0.7-0.7,1.8,0,2.5c0.7,0.7,1.8,0.7,2.5,0c0.7-0.7,0.7-1.8,0-2.5
				C917.9,64.7,916.7,64.7,916.1,65.3z"/>
		</g>
		<g>
			<polyline fill="#1D1D1B" points="955.3,17.1 955.3,78.6 919.4,114.4 919.2,114.2 918.6,114.2 918.6,113.8 954.3,78.2 954.3,17.5 
							"/>
		</g>
		<g>
			<polygon fill="#1D1D1B" points="913,114.1 912,114.1 912,111.8 929.2,94.6 929.2,79 930.2,79 930.2,95 913,112.2 			"/>
		</g>
		<g>
			<polygon fill="#1D1D1B" points="906.8,112.7 905.8,112.7 905.8,109.9 923.1,92.6 923.3,63.4 924.3,63.4 924.1,93 906.8,110.3 			
				"/>
		</g>
		<g>
			<polygon fill="#1D1D1B" points="900.4,110.5 899.4,110.5 899.4,107.8 916.7,90.5 916.8,68.7 917.8,68.7 917.7,90.9 900.4,108.2 
							"/>
		</g>
		<g>
			<path fill="#1D1D1B" d="M1034.1,56.3c-0.5,0.5-1.2,0.8-2,0.8c-1.5,0-2.8-1.2-2.8-2.8c0-1.5,1.3-2.8,2.8-2.8c0.7,0,1.4,0.3,2,0.8
				c0.5,0.5,0.8,1.2,0.8,2C1034.9,55.1,1034.6,55.8,1034.1,56.3z M1030.8,53.1c-0.3,0.3-0.5,0.8-0.5,1.3c0,1,0.8,1.8,1.8,1.8
				c0.9,0,1.8-0.8,1.8-1.8c0-0.5-0.2-0.9-0.5-1.3c-0.3-0.3-0.8-0.5-1.3-0.5C1031.6,52.6,1031.2,52.7,1030.8,53.1z"/>
		</g>
		<g>
			<path fill="#1D1D1B" d="M1027.9,54.3c-0.5,0.5-1.2,0.8-2,0.8c-1.5,0-2.8-1.2-2.8-2.8c0-1.5,1.3-2.8,2.8-2.8c0.7,0,1.4,0.3,2,0.8
				c0.5,0.5,0.8,1.2,0.8,2C1028.7,53.1,1028.4,53.8,1027.9,54.3z M1024.7,51.1c-0.3,0.3-0.5,0.8-0.5,1.3c0,1,0.8,1.8,1.8,1.8
				c0.9,0,1.8-0.8,1.8-1.8c0-0.5-0.2-0.9-0.5-1.3c-0.3-0.3-0.8-0.5-1.3-0.5C1025.4,50.5,1025,50.7,1024.7,51.1z"/>
		</g>
		<g>
			<path fill="#1D1D1B" d="M1021.4,52.2c-0.5,0.5-1.2,0.8-2,0.8c-1.5,0-2.8-1.2-2.8-2.8c0-1.5,1.3-2.8,2.8-2.8c0.7,0,1.4,0.3,2,0.8
				c0.5,0.5,0.8,1.2,0.8,2C1022.2,51,1022,51.7,1021.4,52.2z M1018.2,49c-0.3,0.3-0.5,0.8-0.5,1.3c0,1,0.8,1.8,1.8,1.8
				c0.9,0,1.8-0.8,1.8-1.8c0-0.5-0.2-0.9-0.5-1.3c-0.3-0.3-0.8-0.5-1.3-0.5C1019,48.5,1018.5,48.7,1018.2,49z"/>
		</g>
		<g>
			<path fill="#1D1D1B" d="M1034,78.6c-0.5,0.5-1.2,0.8-2,0.8c-1.5,0-2.8-1.2-2.8-2.8c0-1.5,1.3-2.8,2.8-2.8c0.7,0,1.4,0.3,2,0.8
				c0.5,0.5,0.8,1.2,0.8,2C1034.8,77.3,1034.5,78,1034,78.6z M1030.8,75.3c-0.3,0.3-0.5,0.8-0.5,1.3c0,1,0.8,1.8,1.8,1.8
				c0.9,0,1.8-0.8,1.8-1.8c0-0.5-0.2-0.9-0.5-1.3c-0.3-0.3-0.8-0.5-1.3-0.5C1031.6,74.8,1031.1,75,1030.8,75.3z"/>
		</g>
		<g>
			
				<ellipse transform="matrix(0.7071 -0.7071 0.7071 0.7071 268.2578 679.8569)" fill="#1D1D1B" cx="954.8" cy="16.1" rx="2.3" ry="2.3"/>
			<path fill="#1D1D1B" d="M956.8,18.1c-1.1,1.1-2.8,1.1-3.9,0c-1.1-1.1-1.1-2.8,0-3.9c1.1-1.1,2.8-1.1,3.9,0
				C957.8,15.2,957.8,17,956.8,18.1z M953.5,14.9c-0.7,0.7-0.7,1.8,0,2.5c0.7,0.7,1.8,0.7,2.5,0c0.7-0.7,0.7-1.8,0-2.5
				C955.4,14.2,954.2,14.2,953.5,14.9z"/>
		</g>
		<g>
			
				<ellipse transform="matrix(0.7071 -0.7071 0.7071 0.7071 266.9395 691.0067)" fill="#1D1D1B" cx="967.6" cy="23.3" rx="2.3" ry="2.3"/>
			<path fill="#1D1D1B" d="M969.6,25.2c-1.1,1.1-2.8,1.1-3.9,0c-1.1-1.1-1.1-2.8,0-3.9c1.1-1.1,2.8-1.1,3.9,0
				C970.6,22.4,970.6,24.2,969.6,25.2z M966.3,22c-0.7,0.7-0.7,1.8,0,2.5c0.7,0.7,1.8,0.7,2.5,0s0.7-1.8,0-2.5
				C968.2,21.3,967,21.3,966.3,22z"/>
		</g>
		<g>
			<path fill="#1D1D1B" d="M963.1,27c-1.1,1.1-2.8,1.1-3.9,0c-1.1-1.1-1.1-2.8,0-3.9c1.1-1.1,2.8-1.1,3.9,0
				C964.2,24.2,964.2,25.9,963.1,27z M959.9,23.8c-0.7,0.7-0.7,1.8,0,2.5c0.7,0.7,1.8,0.7,2.5,0c0.7-0.7,0.7-1.8,0-2.5
				C961.7,23.1,960.6,23.1,959.9,23.8z"/>
		</g>
		<g>
			<path fill="#1D1D1B" d="M975.8,34.1c-1.1,1.1-2.8,1.1-3.9,0c-1.1-1.1-1.1-2.8,0-3.9c1.1-1.1,2.8-1.1,3.9,0
				C976.9,31.3,976.9,33,975.8,34.1z M972.6,30.9c-0.7,0.7-0.7,1.8,0,2.5c0.7,0.7,1.8,0.7,2.5,0c0.7-0.7,0.7-1.8,0-2.5
				C974.4,30.2,973.2,30.2,972.6,30.9z"/>
		</g>
	</g>
	<g clip-path="url(#SVGID_2_)">
		<g>
			<g>
				<polygon fill="#1D1D1B" points="453.5,1127.2 454.2,1127.9 665.1,917 665.1,916.8 665.3,813 664.3,813 664.1,916.6 				"/>
			</g>
			<g>
				<polygon fill="#1D1D1B" points="459.5,1130.2 460.2,1130.9 671.1,920 671.1,919.8 671.3,816 670.3,816 670.1,919.6 				"/>
			</g>
			<g>
				<polygon fill="#1D1D1B" points="465.5,1133.2 466.2,1133.9 677.1,923 677.1,922.8 677.3,819 676.3,819 676.1,922.6 				"/>
			</g>
			<g>
				<polygon fill="#1D1D1B" points="447.5,1124 448.2,1124.7 659.1,913.8 659.1,913.6 659.3,809.9 658.3,809.9 658.1,913.4 				"/>
			</g>
			<g>
				<polygon fill="#1D1D1B" points="441.5,1121 442.2,1121.7 653.1,910.8 653.1,910.6 653.3,806.9 652.3,806.9 652.1,910.4 				"/>
			</g>
			<g>
				<polygon fill="#1D1D1B" points="429.5,1114.7 430.2,1115.4 641.1,904.5 641.1,904.3 641.3,800.5 640.3,800.5 640.1,904.1 				
					"/>
			</g>
			<g>
				<polygon fill="#1D1D1B" points="423.5,1111.5 424.2,1112.2 635.1,901.3 635.1,901.1 635.3,797.4 634.3,797.4 634.1,900.9 				
					"/>
			</g>
			<g>
				<polygon fill="#1D1D1B" points="674.9,978.3 674.9,1108.8 675.9,1108.8 675.9,978.7 713.1,941.5 713.1,941.3 713.3,837.5 
					712.3,837.5 712.1,941.1 				"/>
			</g>
			<g>
				<polygon fill="#1D1D1B" points="680.9,981.3 680.9,1098.7 681.9,1098.7 681.9,981.7 719.1,944.5 719.1,944.3 719.3,840.5 
					718.3,840.5 718.1,944.1 				"/>
			</g>
			<g>
				<polygon fill="#1D1D1B" points="686.7,984.6 686.7,1103.5 687.7,1103.5 687.7,985 725.1,947.5 725.1,947.3 725.3,843.5 
					724.3,843.5 724.1,947.1 				"/>
			</g>
			<g>
				<polygon fill="#1D1D1B" points="511,1159.4 511.7,1160.1 670.4,1001.4 670.4,975.7 707.7,938.3 707.7,938.1 707.9,834.4 
					706.9,834.4 706.7,937.9 669.4,975.2 669.4,1001 				"/>
			</g>
			<g>
				<polygon fill="#1D1D1B" points="505.4,1144.8 506.1,1145.5 664.2,987.4 664.2,972.8 701.7,935.3 701.7,935.1 701.9,831.4 
					700.9,831.4 700.7,934.9 663.2,972.4 663.2,987 				"/>
			</g>
			<g>
				<polygon fill="#1D1D1B" points="483.5,1142.2 484.2,1142.9 695.1,932 695.1,931.8 695.3,828 694.3,828 694.1,931.6 				"/>
			</g>
			<g>
				<polygon fill="#1D1D1B" points="477.5,1139.2 478.2,1139.9 689.1,929 689.1,928.8 689.3,825 688.3,825 688.1,928.6 				"/>
			</g>
			<g>
				<polygon fill="#1D1D1B" points="471.5,1136 472.2,1136.7 683.1,925.8 683.1,925.6 683.3,821.9 682.3,821.9 682.1,925.4 				"/>
			</g>
			<g>
				<polygon fill="#1D1D1B" points="694.3,833.4 695.3,833.4 695.4,729.8 823.6,601.7 822.8,601 694.4,729.4 694.4,729.6 				"/>
			</g>
			<g>
				<polygon fill="#1D1D1B" points="688.3,830.4 689.3,830.4 689.4,726.8 817.6,598.7 816.8,598 688.4,726.4 688.5,726.6 				"/>
			</g>
			<g>
				<polygon fill="#1D1D1B" points="682.3,827.4 683.3,827.4 683.4,723.8 811.6,595.7 810.8,595 682.4,723.4 682.4,723.6 				"/>
			</g>
			<g>
				<polygon fill="#1D1D1B" points="700.9,836.2 701.9,836.2 702,732.7 830.1,604.6 829.4,603.9 701,732.3 701,732.5 				"/>
			</g>
			<g>
				<polygon fill="#1D1D1B" points="706.9,839.5 707.9,839.5 708,736 836.1,607.9 835.4,607.2 707,735.6 707,735.8 				"/>
			</g>
			<g>
				<polygon fill="#1D1D1B" points="712.3,842.9 713.3,842.9 713.4,739.3 841.6,611.2 840.8,610.5 712.4,738.9 712.4,739.1 				"/>
			</g>
			<g>
				<polygon fill="#1D1D1B" points="718.3,845.9 719.3,845.9 719.4,742.3 847.6,614.2 846.8,613.5 718.4,741.9 718.4,742.1 				"/>
			</g>
			<g>
				<polygon fill="#1D1D1B" points="724.3,849 725.3,849 725.5,745.5 853.6,617.4 852.8,616.7 724.4,745.1 724.4,745.3 				"/>
			</g>
			<g>
				<polygon fill="#1D1D1B" points="658.3,815 659.3,815 659.4,711.5 787.6,583.4 786.8,582.7 658.4,711.1 658.4,711.3 				"/>
			</g>
			<g>
				<polygon fill="#1D1D1B" points="664.3,818.4 665.3,818.4 665.4,714.8 793.6,586.7 792.8,586 664.4,714.4 664.4,714.6 				"/>
			</g>
			<g>
				<polygon fill="#1D1D1B" points="670.3,821.4 671.3,821.4 671.4,717.8 799.6,589.7 798.8,589 670.4,717.4 670.4,717.6 				"/>
			</g>
			<g>
				<polygon fill="#1D1D1B" points="676.3,824.5 677.3,824.5 677.4,721 805.6,592.9 804.8,592.2 676.4,720.6 676.4,720.8 				"/>
			</g>
			<g>
				<polygon fill="#1D1D1B" points="792.9,52.5 792.9,52.7 792.7,586.4 793.7,586.4 793.9,52.9 				"/>
			</g>
			<g>
				<polygon fill="#1D1D1B" points="798.9,55.5 798.9,55.7 798.7,589.4 799.7,589.4 799.9,55.9 				"/>
			</g>
			<g>
				<polygon fill="#1D1D1B" points="804.9,58.6 804.9,58.8 804.7,592.5 805.7,592.5 805.9,59.1 				"/>
			</g>
			<g>
				<polyline fill="#1D1D1B" points="824.5,105.2 824.5,599.4 694.4,729.4 694.4,729.6 694.3,833.4 695.3,833.4 695.4,729.8 
					825.5,599.8 825.5,105.6 				"/>
			</g>
			<g>
				<polyline fill="#1D1D1B" points="818.5,100.7 818.5,596.3 688.4,726.4 688.5,726.6 688.3,830.4 689.3,830.4 689.4,726.8 
					819.5,596.8 819.5,101.1 				"/>
			</g>
			<g>
				<polyline fill="#1D1D1B" points="812.6,106 812.6,593.2 682.4,723.4 682.4,723.6 682.3,827.4 683.3,827.4 683.4,723.8 
					813.6,593.6 813.6,106.5 				"/>
			</g>
			<g>
				<polygon fill="#1D1D1B" points="700.9,836.2 701.9,836.2 702,732.7 831.5,603.2 830.8,602.5 701,732.3 701,732.5 				"/>
			</g>
			<g>
				<polygon fill="#1D1D1B" points="706.9,839.5 707.9,839.5 708,736 836.1,607.9 835.4,607.2 707,735.6 707,735.8 				"/>
			</g>
			<g>
				<polygon fill="#1D1D1B" points="712.3,842.9 713.3,842.9 713.4,739.3 841.6,611.2 840.8,610.5 712.4,738.9 712.4,739.1 				"/>
			</g>
			<g>
				<polygon fill="#1D1D1B" points="718.3,845.9 719.3,845.9 719.4,742.3 847.6,614.2 846.8,613.5 718.4,741.9 718.4,742.1 				"/>
			</g>
			<g>
				<polygon fill="#1D1D1B" points="724.3,849 725.3,849 725.5,745.5 855.5,615.5 855.5,591.1 884.2,562.4 883.5,561.7 854.5,590.7 
					854.5,615 724.4,745.1 724.4,745.3 				"/>
			</g>
			<polygon fill="#1D1D1B" points="735.7,62.1 745.4,62.1 764.2,80.9 764.2,588.6 647.4,705.3 647.3,808.9 647.3,808.9 647.1,907.3 
				647.1,907.5 436.2,1118.4 435.5,1117.7 646.1,907.1 646.3,803.5 646.3,803.5 646.4,705.1 646.4,704.9 763.2,588.1 763.2,81.3 
				745,63.1 735.3,63.1 730.2,58 730.9,57.3 			"/>
			<g>
				<polygon fill="#1D1D1B" points="640.3,805.9 641.3,805.9 641.4,702.3 756.2,587.6 756.2,83.3 748.5,75.6 741.8,75.6 741.8,76.6 
					748.1,76.6 755.2,83.7 755.2,587.1 640.4,701.9 640.4,702.1 				"/>
			</g>
			<g>
				<polygon fill="#1D1D1B" points="634.3,802.9 635.3,802.9 635.4,699.3 728.4,606.4 728.4,86.5 717.8,75.9 717.8,66 716.8,66 
					716.8,76.4 727.4,86.9 727.4,606 634.5,698.9 634.4,699.1 				"/>
			</g>
			<g>
				<polygon fill="#1D1D1B" points="652.3,812 653.3,812 653.4,708.5 771,590.9 771,90.8 777,84.9 776.3,84.2 770,90.4 770,590.5 
					652.4,708.1 652.4,708.3 				"/>
			</g>
			<g>
				<polygon fill="#1D1D1B" points="658.3,815 659.3,815 659.4,711.5 787.7,583.2 787.7,75.9 779.4,67.6 778.7,68.3 786.7,76.3 
					786.7,582.8 658.4,711.1 658.4,711.3 				"/>
			</g>
			<g>
				<polygon fill="#1D1D1B" points="664.3,818.4 665.3,818.4 665.4,714.8 793.6,586.7 792.8,586 664.4,714.4 664.4,714.6 				"/>
			</g>
			<g>
				<polygon fill="#1D1D1B" points="670.3,821.4 671.3,821.4 671.4,717.8 799.6,589.7 798.8,589 670.4,717.4 670.4,717.6 				"/>
			</g>
			<g>
				<polygon fill="#1D1D1B" points="676.3,824.5 677.3,824.5 677.4,721 805.6,592.9 804.8,592.2 676.4,720.6 676.4,720.8 				"/>
			</g>
			<g>
				<polygon fill="#1D1D1B" points="792.9,52.5 792.9,52.7 792.7,586.4 793.7,586.4 793.9,52.9 				"/>
			</g>
			<g>
				<polygon fill="#1D1D1B" points="798.9,55.5 798.9,55.7 798.7,589.4 799.7,589.4 799.9,55.9 				"/>
			</g>
			<g>
				<polygon fill="#1D1D1B" points="804.9,58.6 804.9,58.8 804.7,592.5 805.7,592.5 805.9,59.1 				"/>
			</g>
			<g>
				<path fill="#1D1D1B" d="M717.1,61c1.5,0,2.8,1.2,2.8,2.8c0,1.5-1.2,2.8-2.8,2.8c-1.5,0-2.8-1.2-2.8-2.8
					C714.3,62.2,715.6,61,717.1,61z M717.1,62c-1,0-1.8,0.8-1.8,1.8c0,1,0.8,1.8,1.8,1.8c1,0,1.8-0.8,1.8-1.8
					C718.9,62.8,718.1,62,717.1,62z"/>
			</g>
			<g>
				<circle fill="#1D1D1B" cx="730.7" cy="57.6" r="2.3"/>
				<path fill="#1D1D1B" d="M730.7,54.8c1.5,0,2.8,1.2,2.8,2.8c0,1.5-1.2,2.8-2.8,2.8c-1.5,0-2.8-1.2-2.8-2.8
					C727.9,56.1,729.2,54.8,730.7,54.8z M730.7,55.8c-1,0-1.8,0.8-1.8,1.8c0,1,0.8,1.8,1.8,1.8c1,0,1.8-0.8,1.8-1.8
					C732.5,56.6,731.7,55.8,730.7,55.8z"/>
			</g>
			<g>
				<circle fill="#1D1D1B" cx="741.6" cy="76.1" r="2.3"/>
				<path fill="#1D1D1B" d="M741.6,73.3c1.5,0,2.8,1.2,2.8,2.8c0,1.5-1.2,2.8-2.8,2.8c-1.5,0-2.8-1.2-2.8-2.8
					C738.8,74.6,740.1,73.3,741.6,73.3z M741.6,74.3c-1,0-1.8,0.8-1.8,1.8c0,1,0.8,1.8,1.8,1.8c1,0,1.8-0.8,1.8-1.8
					C743.4,75.1,742.6,74.3,741.6,74.3z"/>
			</g>
			<g>
				<circle fill="#1D1D1B" cx="776.6" cy="84.5" r="2.3"/>
				<path fill="#1D1D1B" d="M776.6,81.7c1.5,0,2.8,1.2,2.8,2.8c0,1.5-1.2,2.8-2.8,2.8c-1.5,0-2.8-1.2-2.8-2.8
					C773.8,83,775.1,81.7,776.6,81.7z M776.6,82.7c-1,0-1.8,0.8-1.8,1.8s0.8,1.8,1.8,1.8c1,0,1.8-0.8,1.8-1.8
					C778.4,83.5,777.6,82.7,776.6,82.7z"/>
			</g>
			<g>
				<polyline fill="#1D1D1B" points="830.7,108 830.7,602.8 831,602.8 831.5,603.3 831.7,603 831.7,108.4 				"/>
			</g>
			<g>
				<polygon fill="#1D1D1B" points="835.4,607.2 836.1,607.9 837.8,606.2 837.8,581.9 848.8,570.9 848.1,570.2 836.8,581.5 
					836.8,605.8 				"/>
			</g>
			<g>
				<polygon fill="#1D1D1B" points="840.8,610.5 841.6,611.2 843.5,609.3 843.5,584.8 859.8,568.3 859.1,567.6 842.5,584.4 
					842.5,608.9 				"/>
			</g>
			<g>
				<polygon fill="#1D1D1B" points="846.8,613.5 847.6,614.2 849.5,612.3 849.5,587.8 871.5,565.7 870.8,564.9 848.5,587.4 
					848.5,611.9 				"/>
			</g>
			<g>
				<path fill="#1D1D1B" d="M791.5,48.8c0.5-0.5,1.2-0.8,2-0.8c0.7,0,1.4,0.3,2,0.8c1,1,1,2.9,0,3.9c-1.1,1.1-2.8,1.1-3.9,0
					c-0.5-0.5-0.8-1.2-0.8-2C790.7,50,791,49.3,791.5,48.8z M794.7,49.5c-0.3-0.3-0.8-0.5-1.3-0.5c-0.5,0-0.9,0.2-1.3,0.5
					c-0.7,0.7-0.7,1.8,0,2.5c0.7,0.7,1.8,0.7,2.5,0c0.3-0.3,0.5-0.8,0.5-1.3C795.3,50.3,795.1,49.8,794.7,49.5z"/>
			</g>
			<g>
				<path fill="#1D1D1B" d="M797.3,51.7c0.5-0.5,1.2-0.8,2-0.8c0.7,0,1.4,0.3,2,0.8c1.1,1.1,1.1,2.9,0,3.9c-1.1,1.1-2.8,1.1-3.9,0
					c-0.5-0.5-0.8-1.2-0.8-2C796.5,52.9,796.8,52.2,797.3,51.7z M800.5,52.4c-0.3-0.3-0.8-0.5-1.3-0.5c-0.5,0-0.9,0.2-1.3,0.5
					c-0.7,0.7-0.7,1.8,0,2.5c0.7,0.7,1.8,0.7,2.5,0c0.3-0.3,0.5-0.8,0.5-1.3C801.1,53.2,800.9,52.8,800.5,52.4z"/>
			</g>
			<g>
				<path fill="#1D1D1B" d="M803.3,54.8c0.5-0.5,1.2-0.8,2-0.8c0.7,0,1.4,0.3,2,0.8c1.1,1.1,1.1,2.9,0,3.9c-1.1,1.1-2.8,1.1-3.9,0
					c-0.5-0.5-0.8-1.2-0.8-2C802.5,56.1,802.8,55.4,803.3,54.8z M806.5,55.5c-0.3-0.3-0.8-0.5-1.3-0.5c-0.5,0-0.9,0.2-1.3,0.5
					c-0.7,0.7-0.7,1.8,0,2.5c0.7,0.7,1.8,0.7,2.5,0c0.3-0.3,0.5-0.8,0.5-1.3C807.1,56.3,806.9,55.9,806.5,55.5z"/>
			</g>
			<g>
				<path fill="#1D1D1B" d="M775.8,64.6c0.5-0.5,1.2-0.8,2-0.8c0.7,0,1.4,0.3,2,0.8c1.1,1.1,1.1,2.9,0,3.9c-1.1,1.1-2.8,1.1-3.9,0
					c-0.5-0.5-0.8-1.2-0.8-2C775,65.8,775.3,65.1,775.8,64.6z M779,65.3c-0.3-0.3-0.8-0.5-1.3-0.5c-0.5,0-0.9,0.2-1.3,0.5
					c-0.7,0.7-0.7,1.8,0,2.5c0.7,0.7,1.8,0.7,2.5,0c0.3-0.3,0.5-0.8,0.5-1.3C779.6,66,779.4,65.6,779,65.3z"/>
			</g>
		</g>
		<polygon fill="#1D1D1B" points="871.5,565.7 871.5,165 870.5,164.6 870.5,565.2 		"/>
		<polygon fill="#1D1D1B" points="859.8,568.3 859.8,180.2 858.8,179.8 858.8,567.9 		"/>
		<polygon fill="#1D1D1B" points="848.8,570.9 848.8,170.2 847.8,169.7 847.8,570.4 		"/>
		<polygon fill="#1D1D1B" points="884.2,562.4 884.2,188 883.2,187.6 883.2,562.2 		"/>
		<g>
			<path fill="#1D1D1B" d="M846.3,166.1c0.5-0.5,1.2-0.8,2-0.8c0.7,0,1.4,0.3,2,0.8c1,1,1,2.9,0,3.9c-1.1,1.1-2.8,1.1-3.9,0
				c-0.5-0.5-0.8-1.2-0.8-2C845.5,167.3,845.8,166.6,846.3,166.1z M849.5,166.8c-0.3-0.3-0.8-0.5-1.3-0.5c-0.5,0-0.9,0.2-1.3,0.5
				c-0.7,0.7-0.7,1.8,0,2.5c0.7,0.7,1.8,0.7,2.5,0c0.3-0.3,0.5-0.8,0.5-1.3C850.1,167.6,849.9,167.1,849.5,166.8z"/>
		</g>
		<g>
			<circle fill="#1D1D1B" cx="859.3" cy="178.2" r="2.3"/>
			<path fill="#1D1D1B" d="M859.3,175.5c1.5,0,2.8,1.2,2.8,2.8c0,1.5-1.2,2.8-2.8,2.8c-1.5,0-2.8-1.2-2.8-2.8
				C856.5,176.7,857.8,175.5,859.3,175.5z M859.3,176.5c-1,0-1.8,0.8-1.8,1.8s0.8,1.8,1.8,1.8c1,0,1.8-0.8,1.8-1.8
				C861.1,177.3,860.3,176.5,859.3,176.5z"/>
		</g>
		<g>
			<circle fill="#1D1D1B" cx="883.7" cy="186.6" r="2.3"/>
			<path fill="#1D1D1B" d="M883.7,183.8c1.5,0,2.8,1.2,2.8,2.8c0,1.5-1.2,2.8-2.8,2.8c-1.5,0-2.8-1.2-2.8-2.8
				C880.9,185,882.2,183.8,883.7,183.8z M883.7,184.8c-1,0-1.8,0.8-1.8,1.8s0.8,1.8,1.8,1.8c1,0,1.8-0.8,1.8-1.8
				S884.7,184.8,883.7,184.8z"/>
		</g>
		<g>
			<path fill="#1D1D1B" d="M869.1,160.3c0.5-0.5,1.2-0.8,2-0.8c0.7,0,1.4,0.3,2,0.8c1,1,1,2.9,0,3.9c-1.1,1.1-2.8,1.1-3.9,0
				c-0.5-0.5-0.8-1.2-0.8-2C868.3,161.5,868.6,160.8,869.1,160.3z M872.3,161c-0.3-0.3-0.8-0.5-1.3-0.5c-0.5,0-0.9,0.2-1.3,0.5
				c-0.7,0.7-0.7,1.8,0,2.5c0.7,0.7,1.8,0.7,2.5,0c0.3-0.3,0.5-0.8,0.5-1.3C872.8,161.8,872.7,161.4,872.3,161z"/>
		</g>
		<g>
			<circle fill="#1D1D1B" cx="813.3" cy="105.1" r="2.3"/>
			<path fill="#1D1D1B" d="M813.3,102.3c1.5,0,2.8,1.2,2.8,2.8c0,1.5-1.2,2.8-2.8,2.8c-1.5,0-2.8-1.2-2.8-2.8
				C810.5,103.5,811.7,102.3,813.3,102.3z M813.3,103.3c-1,0-1.8,0.8-1.8,1.8c0,1,0.8,1.8,1.8,1.8c1,0,1.8-0.8,1.8-1.8
				S814.3,103.3,813.3,103.3z"/>
		</g>
		<g>
			<path fill="#1D1D1B" d="M817.2,96.5c0.5-0.5,1.2-0.8,2-0.8c0.7,0,1.4,0.3,2,0.8c1,1,1,2.9,0,3.9c-1.1,1.1-2.8,1.1-3.9,0
				c-0.5-0.5-0.8-1.2-0.8-2C816.4,97.8,816.7,97.1,817.2,96.5z M820.4,97.3c-0.3-0.3-0.8-0.5-1.3-0.5c-0.5,0-0.9,0.2-1.3,0.5
				c-0.7,0.7-0.7,1.8,0,2.5c0.7,0.7,1.8,0.7,2.5,0c0.3-0.3,0.5-0.8,0.5-1.3C820.9,98,820.8,97.6,820.4,97.3z"/>
		</g>
		<g>
			<path fill="#1D1D1B" d="M829.2,104.4c0.5-0.5,1.2-0.8,2-0.8c0.7,0,1.4,0.3,2,0.8c1,1,1,2.9,0,3.9c-1.1,1.1-2.8,1.1-3.9,0
				c-0.5-0.5-0.8-1.2-0.8-2C828.4,105.6,828.7,104.9,829.2,104.4z M832.5,105.1c-0.3-0.3-0.8-0.5-1.3-0.5c-0.5,0-0.9,0.2-1.3,0.5
				c-0.7,0.7-0.7,1.8,0,2.5c0.7,0.7,1.8,0.7,2.5,0c0.3-0.3,0.5-0.8,0.5-1.3C833,105.9,832.8,105.4,832.5,105.1z"/>
		</g>
		<g>
			<circle fill="#1D1D1B" cx="825" cy="104.1" r="2.3"/>
			<path fill="#1D1D1B" d="M825,101.3c1.5,0,2.8,1.2,2.8,2.8c0,1.5-1.2,2.8-2.8,2.8c-1.5,0-2.8-1.2-2.8-2.8
				C822.3,102.5,823.5,101.3,825,101.3z M825,102.3c-1,0-1.8,0.8-1.8,1.8c0,1,0.8,1.8,1.8,1.8c1,0,1.8-0.8,1.8-1.8
				S826,102.3,825,102.3z"/>
		</g>
	</g>
	<g clip-path="url(#SVGID_2_)">
		<polyline fill="#1D1D1B" points="913.9,926.8 913.9,745.6 914.9,745.6 914.9,927.2 		"/>
		<polyline fill="#1D1D1B" points="920.3,928.9 920.3,747.7 921.3,747.7 921.3,929.3 		"/>
		<polyline fill="#1D1D1B" points="926.7,931 926.7,749.8 927.7,749.8 927.7,931.4 		"/>
		<polyline fill="#1D1D1B" points="907.3,924.1 907.3,743 908.3,743 908.3,924.5 		"/>
		<polyline fill="#1D1D1B" points="900.7,922.2 900.7,741.1 901.7,741.1 901.7,922.6 		"/>
		<polyline fill="#1D1D1B" points="894.5,920.7 894.5,739.6 895.5,739.6 895.5,921.2 		"/>
		<polyline fill="#1D1D1B" points="888.1,918.6 888.1,737.5 889.1,737.5 889.1,919 		"/>
		<polyline fill="#1D1D1B" points="881.7,916.6 881.7,735.5 882.7,735.5 882.7,917 		"/>
		<polyline fill="#1D1D1B" points="952.4,939.2 952.4,758.1 953.4,758.1 953.4,939.7 		"/>
		<polyline fill="#1D1D1B" points="945.8,937.4 945.8,756.2 946.8,756.2 946.8,937.8 		"/>
		<polyline fill="#1D1D1B" points="939.4,935.2 939.4,754.1 940.4,754.1 940.4,935.7 		"/>
		<polyline fill="#1D1D1B" points="932.9,933.2 932.9,752.1 933.9,752.1 933.9,933.6 		"/>
		<g>
			<polygon fill="#1D1D1B" points="1081.9,621.1 1081.7,621.2 946.6,756.5 945.9,755.8 1080.9,620.6 			"/>
		</g>
		<g>
			<polygon fill="#1D1D1B" points="1075.5,618.9 1075.4,619.1 940.3,754.4 939.6,753.7 1074.5,618.5 			"/>
		</g>
		<g>
			<polygon fill="#1D1D1B" points="1069,616.9 1068.9,617.1 933.8,752.4 933.1,751.7 1068,616.5 			"/>
		</g>
		<polyline fill="#1D1D1B" points="1047.9,201.9 1047.9,610.3 914.9,743.3 914.9,927.2 913.9,926.8 913.9,742.9 1046.9,609.9 
			1046.9,202.3 		"/>
		<polyline fill="#1D1D1B" points="1054.4,199.7 1054.4,612.2 921.3,745.3 921.3,929.3 920.3,928.9 920.3,744.9 1053.4,611.8 
			1053.4,200.1 		"/>
		<polyline fill="#1D1D1B" points="1059.7,209.4 1059.7,613.9 926.7,746.9 926.7,931 927.7,931.4 927.7,747.3 1060.7,614.3 
			1060.7,209 		"/>
		<polyline fill="#1D1D1B" points="907.3,924.1 907.3,741 908.3,741 908.3,924.5 		"/>
		<polyline fill="#1D1D1B" points="900.7,922.2 900.7,741.1 901.7,741.1 901.7,922.6 		"/>
		<polyline fill="#1D1D1B" points="894.5,920.7 894.5,739.6 895.5,739.6 895.5,921.2 		"/>
		<polyline fill="#1D1D1B" points="888.1,918.6 888.1,737.5 889.1,737.5 889.1,919 		"/>
		<polyline fill="#1D1D1B" points="881.7,916.6 881.7,732.7 996.5,617.8 996.5,199.3 997.5,199.3 997.5,618.3 882.7,733.1 
			882.7,917 		"/>
		<polyline fill="#1D1D1B" points="966.2,943.8 966.2,778.6 1040.4,704.5 1066.2,704.5 1073,711.3 1080.2,711.3 1080.2,710.3 
			1073.4,710.3 1066.6,703.5 1039.9,703.5 965.2,778.2 965.2,943.4 		"/>
		<polyline fill="#1D1D1B" points="971.6,945.5 971.6,783.2 1043.9,710.8 1054.8,710.8 1059.6,715.6 1058.9,716.3 1054.4,711.8 
			1044.3,711.8 972.6,783.6 972.6,945.9 		"/>
		<polyline fill="#1D1D1B" points="977.9,947.6 977.9,816.2 1049.2,745 1064.1,745 1071.1,738 1071.8,738.7 1064.5,746 1049.6,746 
			978.9,816.6 978.9,948 		"/>
		<polyline fill="#1D1D1B" points="958.7,941.4 958.7,775.1 1028.1,705.7 1028.1,697.3 1029.1,697.3 1029.1,706.1 959.7,775.5 
			959.7,941.8 		"/>
		<polyline fill="#1D1D1B" points="952.4,939.2 952.4,757.9 1069,641.3 1080.7,641.3 1080.7,642.3 1069.4,642.3 953.4,758.3 
			953.4,939.7 		"/>
		<polyline fill="#1D1D1B" points="945.8,937.4 945.8,756.2 946.8,756.2 946.8,937.8 		"/>
		<polyline fill="#1D1D1B" points="939.4,935.2 939.4,754.1 940.4,754.1 940.4,935.7 		"/>
		<polyline fill="#1D1D1B" points="932.9,933.2 932.9,752.1 933.9,752.1 933.9,933.6 		"/>
		<g>
			<polygon fill="#1D1D1B" points="1081.9,621.1 1081.7,621.2 946.6,756.5 945.9,755.8 1080.9,620.6 			"/>
		</g>
		<g>
			<polygon fill="#1D1D1B" points="1075.5,618.9 1075.4,619.1 940.3,754.4 939.6,753.7 1074.5,618.5 			"/>
		</g>
		<g>
			<polygon fill="#1D1D1B" points="1069,616.9 1068.9,617.1 933.8,752.4 933.1,751.7 1068,616.5 			"/>
		</g>
		<g>
			<path fill="#1D1D1B" d="M1075.2,738.8c-1.1,1.1-2.8,1.1-3.9,0c-1.1-1.1-1.1-2.8,0-3.9c1.1-1.1,2.8-1.1,3.9,0
				C1076.2,736,1076.2,737.7,1075.2,738.8z M1071.9,735.6c-0.7,0.7-0.7,1.8,0,2.5c0.7,0.7,1.8,0.7,2.5,0c0.7-0.7,0.7-1.8,0-2.5
				C1073.8,734.9,1072.6,734.9,1071.9,735.6z"/>
		</g>
		<g>
			
				<ellipse transform="matrix(0.7071 -0.7071 0.7071 0.7071 -186.1923 971.9143)" fill="#1D1D1B" cx="1080.1" cy="710.7" rx="2.3" ry="2.3"/>
			<path fill="#1D1D1B" d="M1082.1,712.7c-1.1,1.1-2.8,1.1-3.9,0c-1.1-1.1-1.1-2.8,0-3.9c1.1-1.1,2.8-1.1,3.9,0
				C1083.2,709.8,1083.2,711.6,1082.1,712.7z M1078.9,709.5c-0.7,0.7-0.7,1.8,0,2.5c0.7,0.7,1.8,0.7,2.5,0c0.7-0.7,0.7-1.8,0-2.5
				S1079.5,708.8,1078.9,709.5z"/>
		</g>
		<g>
			
				<ellipse transform="matrix(0.7073 -0.707 0.707 0.7073 -196.1175 958.5229)" fill="#1D1D1B" cx="1059.3" cy="716.1" rx="2.3" ry="2.3"/>
			<path fill="#1D1D1B" d="M1061.3,718c-1.1,1.1-2.8,1.1-3.9,0c-1.1-1.1-1.1-2.8,0-3.9c1.1-1.1,2.8-1.1,3.9,0
				C1062.4,715.2,1062.4,717,1061.3,718z M1058.1,714.8c-0.7,0.7-0.7,1.8,0,2.5c0.7,0.7,1.8,0.7,2.5,0s0.7-1.8,0-2.5
				C1059.9,714.1,1058.8,714.1,1058.1,714.8z"/>
		</g>
		<g>
			
				<ellipse transform="matrix(0.7071 -0.7071 0.7071 0.7071 -191.7752 931.5848)" fill="#1D1D1B" cx="1028.6" cy="697.3" rx="2.3" ry="2.3"/>
			<path fill="#1D1D1B" d="M1030.6,699.2c-1.1,1.1-2.8,1.1-3.9,0c-1.1-1.1-1.1-2.8,0-3.9c1.1-1.1,2.8-1.1,3.9,0
				C1031.7,696.4,1031.7,698.2,1030.6,699.2z M1027.4,696c-0.7,0.7-0.7,1.8,0,2.5c0.7,0.7,1.8,0.7,2.5,0c0.7-0.7,0.7-1.8,0-2.5
				C1029.2,695.3,1028.1,695.3,1027.4,696z"/>
		</g>
		<g>
			
				<ellipse transform="matrix(0.7071 -0.7071 0.7071 0.7071 141.5473 783.1074)" fill="#1D1D1B" cx="1016.1" cy="220.7" rx="2.3" ry="2.3"/>
			<path fill="#1D1D1B" d="M1018,222.7c-1.1,1.1-2.8,1.1-3.9,0c-1.1-1.1-1.1-2.8,0-3.9c1.1-1.1,2.8-1.1,3.9,0
				C1019.1,219.8,1019.1,221.6,1018,222.7z M1014.8,219.4c-0.7,0.7-0.7,1.8,0,2.5c0.7,0.7,1.8,0.7,2.5,0c0.7-0.7,0.7-1.8,0-2.5
				C1016.6,218.7,1015.5,218.7,1014.8,219.4z"/>
		</g>
		<g>
			
				<ellipse transform="matrix(0.7071 -0.7071 0.7071 0.7071 145.7133 776.3787)" fill="#1D1D1B" cx="1010" cy="212.3" rx="2.3" ry="2.3"/>
			<path fill="#1D1D1B" d="M1012,214.3c-1.1,1.1-2.8,1.1-3.9,0c-1.1-1.1-1.1-2.8,0-3.9c1.1-1.1,2.8-1.1,3.9,0
				C1013.1,211.4,1013.1,213.2,1012,214.3z M1008.8,211c-0.7,0.7-0.7,1.8,0,2.5c0.7,0.7,1.8,0.7,2.5,0s0.7-1.8,0-2.5
				C1010.6,210.3,1009.5,210.3,1008.8,211z"/>
		</g>
		<g>
			
				<ellipse transform="matrix(0.7071 -0.7071 0.7071 0.7071 151.1077 763.3564)" fill="#1D1D1B" cx="997" cy="199.3" rx="2.3" ry="2.3"/>
			<path fill="#1D1D1B" d="M999,201.2c-1.1,1.1-2.8,1.1-3.9,0c-1.1-1.1-1.1-2.8,0-3.9c1.1-1.1,2.8-1.1,3.9,0
				C1000.1,198.4,1000.1,200.2,999,201.2z M995.7,198c-0.7,0.7-0.7,1.8,0,2.5c0.7,0.7,1.8,0.7,2.5,0s0.7-1.8,0-2.5
				C997.6,197.3,996.4,197.3,995.7,198z"/>
		</g>
		<g>
			<path fill="#1D1D1B" d="M1005.6,219.9c-1.1,1.1-2.8,1.1-3.9,0c-1.1-1.1-1.1-2.8,0-3.9c1.1-1.1,2.8-1.1,3.9,0
				C1006.7,217,1006.7,218.8,1005.6,219.9z M1002.4,216.7c-0.7,0.7-0.7,1.8,0,2.5c0.7,0.7,1.8,0.7,2.5,0c0.7-0.7,0.7-1.8,0-2.5
				C1004.2,216,1003.1,216,1002.4,216.7z"/>
		</g>
		<g>
			<polyline fill="#1D1D1B" points="1041.6,192.1 1041.6,607.9 908.1,741.3 907.9,741.1 907.3,741.1 907.3,740.8 1040.6,607.4 
				1040.6,192.5 			"/>
		</g>
		<g>
			<polygon fill="#1D1D1B" points="901.7,741.1 900.7,741.1 900.7,738.7 1015.6,623.9 1015.6,220.7 1016.6,220.7 1016.6,624.3 
				901.7,739.1 			"/>
		</g>
		<g>
			<polygon fill="#1D1D1B" points="895.5,739.6 894.5,739.6 894.5,736.8 1009.4,621.9 1009.6,214.7 1010.6,214.7 1010.4,622.3 
				895.5,737.2 			"/>
		</g>
		<g>
			<polygon fill="#1D1D1B" points="889.1,737.5 888.1,737.5 888.1,734.7 1003.1,619.8 1003.2,220 1004.2,220 1004.1,620.2 
				889.1,735.1 			"/>
		</g>
		<g>
			<path fill="#1D1D1B" d="M1084.6,621.3c-0.5,0.5-1.2,0.8-2,0.8c-1.5,0-2.8-1.2-2.8-2.8c0-1.5,1.3-2.8,2.8-2.8c0.7,0,1.4,0.3,2,0.8
				c0.5,0.5,0.8,1.2,0.8,2C1085.4,620.1,1085.2,620.8,1084.6,621.3z M1081.4,618.1c-0.3,0.3-0.5,0.8-0.5,1.3c0,1,0.8,1.8,1.8,1.8
				c0.9,0,1.8-0.8,1.8-1.8c0-0.5-0.2-0.9-0.5-1.3c-0.3-0.3-0.8-0.5-1.3-0.5C1082.2,617.6,1081.7,617.8,1081.4,618.1z"/>
		</g>
		<g>
			<path fill="#1D1D1B" d="M1078.4,619.3c-0.5,0.5-1.2,0.8-2,0.8c-1.5,0-2.8-1.2-2.8-2.8c0-1.5,1.3-2.8,2.8-2.8c0.7,0,1.4,0.3,2,0.8
				c0.5,0.5,0.8,1.2,0.8,2C1079.3,618.1,1079,618.8,1078.4,619.3z M1075.2,616.1c-0.3,0.3-0.5,0.8-0.5,1.3c0,1,0.8,1.8,1.8,1.8
				c0.9,0,1.8-0.8,1.8-1.8c0-0.5-0.2-0.9-0.5-1.3c-0.3-0.3-0.8-0.5-1.3-0.5C1076,615.6,1075.6,615.8,1075.2,616.1z"/>
		</g>
		<g>
			<path fill="#1D1D1B" d="M1072,617.3c-0.5,0.5-1.2,0.8-2,0.8c-1.5,0-2.8-1.2-2.8-2.8c0-1.5,1.3-2.8,2.8-2.8c0.7,0,1.4,0.3,2,0.8
				c0.5,0.5,0.8,1.2,0.8,2C1072.8,616.1,1072.5,616.8,1072,617.3z M1068.8,614.1c-0.3,0.3-0.5,0.8-0.5,1.3c0,1,0.8,1.8,1.8,1.8
				c0.9,0,1.8-0.8,1.8-1.8c0-0.5-0.2-0.9-0.5-1.3c-0.3-0.3-0.8-0.5-1.3-0.5C1069.6,613.5,1069.1,613.7,1068.8,614.1z"/>
		</g>
		<g>
			<path fill="#1D1D1B" d="M1084.6,643.6c-0.5,0.5-1.2,0.8-2,0.8c-1.5,0-2.8-1.2-2.8-2.8c0-1.5,1.3-2.8,2.8-2.8c0.7,0,1.4,0.3,2,0.8
				c0.5,0.5,0.8,1.2,0.8,2C1085.4,642.4,1085.1,643.1,1084.6,643.6z M1081.4,640.4c-0.3,0.3-0.5,0.8-0.5,1.3c0,1,0.8,1.8,1.8,1.8
				c0.9,0,1.8-0.8,1.8-1.8c0-0.5-0.2-0.9-0.5-1.3c-0.3-0.3-0.8-0.5-1.3-0.5C1082.1,639.9,1081.7,640.1,1081.4,640.4z"/>
		</g>
		<g>
			
				<ellipse transform="matrix(0.7071 -0.7071 0.7071 0.7071 169.7746 792.1774)" fill="#1D1D1B" cx="1041.1" cy="191.2" rx="2.3" ry="2.3"/>
			<path fill="#1D1D1B" d="M1043.1,193.1c-1.1,1.1-2.8,1.1-3.9,0c-1.1-1.1-1.1-2.8,0-3.9c1.1-1.1,2.8-1.1,3.9,0
				C1044.2,190.3,1044.2,192,1043.1,193.1z M1039.9,189.9c-0.7,0.7-0.7,1.8,0,2.5c0.7,0.7,1.8,0.7,2.5,0c0.7-0.7,0.7-1.8,0-2.5
				C1041.7,189.2,1040.6,189.2,1039.9,189.9z"/>
		</g>
		<g>
			
				<ellipse transform="matrix(0.7071 -0.7071 0.7071 0.7071 168.4563 803.3271)" fill="#1D1D1B" cx="1053.9" cy="198.3" rx="2.3" ry="2.3"/>
			<path fill="#1D1D1B" d="M1055.9,200.3c-1.1,1.1-2.8,1.1-3.9,0c-1.1-1.1-1.1-2.8,0-3.9c1.1-1.1,2.8-1.1,3.9,0
				C1057,197.4,1057,199.2,1055.9,200.3z M1052.7,197.1c-0.7,0.7-0.7,1.8,0,2.5c0.7,0.7,1.8,0.7,2.5,0c0.7-0.7,0.7-1.8,0-2.5
				C1054.5,196.4,1053.4,196.4,1052.7,197.1z"/>
		</g>
		<g>
			<path fill="#1D1D1B" d="M1049.5,202.1c-1.1,1.1-2.8,1.1-3.9,0c-1.1-1.1-1.1-2.8,0-3.9c1.1-1.1,2.8-1.1,3.9,0
				C1050.5,199.2,1050.5,201,1049.5,202.1z M1046.2,198.8c-0.7,0.7-0.7,1.8,0,2.5c0.7,0.7,1.8,0.7,2.5,0c0.7-0.7,0.7-1.8,0-2.5
				C1048.1,198.1,1046.9,198.1,1046.2,198.8z"/>
		</g>
		<g>
			<path fill="#1D1D1B" d="M1062.1,209.2c-1.1,1.1-2.8,1.1-3.9,0c-1.1-1.1-1.1-2.8,0-3.9c1.1-1.1,2.8-1.1,3.9,0
				C1063.2,206.3,1063.2,208.1,1062.1,209.2z M1058.9,205.9c-0.7,0.7-0.7,1.8,0,2.5c0.7,0.7,1.8,0.7,2.5,0c0.7-0.7,0.7-1.8,0-2.5
				C1060.7,205.3,1059.6,205.3,1058.9,205.9z"/>
		</g>
		<polyline fill="#1D1D1B" points="970.7,943 970.7,811.6 1054.2,728.2 1069.1,728.2 1076.1,721.2 1076.8,721.9 1069.5,729.2 
			1054.6,729.2 971.7,812 971.7,943.4 		"/>
		<g>
			<path fill="#1D1D1B" d="M1080.2,722c-1.1,1.1-2.8,1.1-3.9,0c-1.1-1.1-1.1-2.8,0-3.9c1.1-1.1,2.8-1.1,3.9,0
				C1081.2,719.2,1081.2,721,1080.2,722z M1076.9,718.8c-0.7,0.7-0.7,1.8,0,2.5c0.7,0.7,1.8,0.7,2.5,0c0.7-0.7,0.7-1.8,0-2.5
				C1078.8,718.1,1077.6,718.1,1076.9,718.8z"/>
		</g>
	</g>
	<g clip-path="url(#SVGID_2_)">
		<g>
			
				<ellipse transform="matrix(0.7072 -0.707 0.707 0.7072 -154.1469 370.9652)" fill="#1D1D1B" cx="370.8" cy="371.6" rx="2.3" ry="2.3"/>
			<path fill="#1D1D1B" d="M373.6,371.6c0,0.7-0.3,1.4-0.8,2c-0.5,0.5-1.2,0.8-2,0.8c-0.7,0-1.4-0.3-2-0.8c-1.1-1-1-2.9,0-3.9
				c1.1-1.1,2.8-1.1,3.9,0C373.3,370.2,373.6,370.9,373.6,371.6z M369,371.6c0,0.5,0.2,0.9,0.5,1.3c0.3,0.3,0.8,0.5,1.3,0.5
				c0.5,0,0.9-0.2,1.3-0.5c0.7-0.7,0.7-1.8,0-2.5c-0.7-0.7-1.8-0.7-2.5,0C369.2,370.7,369,371.1,369,371.6z"/>
		</g>
		<g>
			
				<ellipse transform="matrix(0.7071 -0.7071 0.7071 0.7071 -148.0711 381.1601)" fill="#1D1D1B" cx="386.1" cy="369.3" rx="2.3" ry="2.3"/>
			<path fill="#1D1D1B" d="M388.8,369.3c0,0.7-0.3,1.4-0.8,2c-0.5,0.5-1.2,0.8-2,0.8c-0.7,0-1.4-0.3-2-0.8c-1-1-1.1-2.9,0-3.9
				c1.1-1.1,2.8-1.1,3.9,0C388.6,367.9,388.8,368.6,388.8,369.3z M384.3,369.3c0,0.5,0.2,0.9,0.5,1.3c0.3,0.3,0.8,0.5,1.3,0.5
				c0.5,0,0.9-0.2,1.3-0.5c0.7-0.7,0.7-1.8,0-2.5c-0.7-0.7-1.8-0.7-2.5,0C384.5,368.4,384.3,368.8,384.3,369.3z"/>
		</g>
		<g>
			
				<ellipse transform="matrix(0.7071 -0.7071 0.7071 0.7071 -154.4005 377.3972)" fill="#1D1D1B" cx="378.4" cy="375.1" rx="2.3" ry="2.3"/>
			<path fill="#1D1D1B" d="M381.1,375.1c0,0.7-0.3,1.4-0.8,2c-1.1,1.1-2.8,1.1-3.9,0c-1-1-1.1-2.9,0-3.9c0.5-0.5,1.2-0.8,2-0.8
				c0.7,0,1.4,0.3,2,0.8C380.8,373.6,381.1,374.3,381.1,375.1z M376.6,375.1c0,0.5,0.2,0.9,0.5,1.3c0.7,0.7,1.8,0.7,2.5,0
				c0.7-0.7,0.7-1.8,0-2.5c-0.3-0.3-0.8-0.5-1.3-0.5c-0.5,0-0.9,0.2-1.3,0.5C376.8,374.2,376.6,374.6,376.6,375.1z"/>
		</g>
		<g>
			<polygon fill="#1D1D1B" points="476.4,891.3 475.7,892.1 460.2,876.6 460.2,696.6 370,606.3 370,371.6 371,371.6 371,605.9 
				461.2,696.2 461.2,876.1 			"/>
		</g>
		<g>
			<polygon fill="#1D1D1B" points="494.9,893.8 494.2,894.6 470.2,870.6 470.2,690.6 385.6,605.9 385.6,369.8 386.6,369.8 
				386.6,605.5 471.2,690.2 471.2,870.1 			"/>
		</g>
		<g>
			<polygon fill="#1D1D1B" points="485.7,892.7 485,893.4 465.2,873.6 465.2,693.6 377.9,606.2 377.9,375.2 378.9,375.2 
				378.9,605.8 466.2,693.2 466.2,873.1 			"/>
		</g>
		<g>
			<path fill="#1D1D1B" d="M480.1,893.4c0,1.5-1.2,2.8-2.8,2.8c-1.5,0-2.8-1.2-2.8-2.8c0-1.5,1.2-2.8,2.8-2.8
				C478.8,890.6,480.1,891.9,480.1,893.4z M475.5,893.4c0,1,0.8,1.8,1.8,1.8c1,0,1.8-0.8,1.8-1.8c0-1-0.8-1.8-1.8-1.8
				C476.3,891.6,475.5,892.4,475.5,893.4z"/>
		</g>
		<g>
			<path fill="#1D1D1B" d="M489.5,894.4c0,1.5-1.2,2.8-2.8,2.8c-1.5,0-2.8-1.2-2.8-2.8c0-1.5,1.2-2.8,2.8-2.8
				C488.2,891.6,489.5,892.8,489.5,894.4z M484.9,894.4c0,1,0.8,1.8,1.8,1.8c1,0,1.8-0.8,1.8-1.8c0-1-0.8-1.8-1.8-1.8
				C485.7,892.6,484.9,893.4,484.9,894.4z"/>
		</g>
		<g>
			<path fill="#1D1D1B" d="M498.7,895.7c0,1.5-1.2,2.8-2.8,2.8c-1.5,0-2.8-1.2-2.8-2.8c0-1.5,1.2-2.8,2.8-2.8
				C497.5,892.9,498.7,894.2,498.7,895.7z M494.2,895.7c0,1,0.8,1.8,1.8,1.8c1,0,1.8-0.8,1.8-1.8c0-1-0.8-1.8-1.8-1.8
				C495,893.9,494.2,894.7,494.2,895.7z"/>
		</g>
		<g>
			<path fill="#1D1D1B" d="M508,896.9c0,1.5-1.2,2.8-2.8,2.8c-1.5,0-2.8-1.2-2.8-2.8s1.2-2.8,2.8-2.8
				C506.7,894.2,508,895.4,508,896.9z M503.4,896.9c0,1,0.8,1.8,1.8,1.8c1,0,1.8-0.8,1.8-1.8c0-1-0.8-1.8-1.8-1.8
				C504.2,895.2,503.4,896,503.4,896.9z"/>
		</g>
	</g>
	<g clip-path="url(#SVGID_2_)">
		<g>
			
				<ellipse transform="matrix(0.707 -0.7072 0.7072 0.707 -52.1124 617.4072)" fill="#1D1D1B" cx="719.1" cy="371.6" rx="2.3" ry="2.3"/>
			<path fill="#1D1D1B" d="M717.1,369.6c1.1-1.1,2.8-1.1,3.9,0c1,1,1.1,2.9,0,3.9c-0.5,0.5-1.2,0.8-2,0.8c-0.7,0-1.4-0.3-2-0.8
				c-0.5-0.5-0.8-1.2-0.8-2C716.3,370.9,716.6,370.2,717.1,369.6z M720.3,370.3c-0.7-0.7-1.8-0.7-2.5,0c-0.7,0.7-0.7,1.8,0,2.5
				c0.3,0.3,0.8,0.5,1.3,0.5c0.5,0,0.9-0.2,1.3-0.5c0.3-0.3,0.5-0.8,0.5-1.3C720.8,371.1,720.6,370.7,720.3,370.3z"/>
		</g>
		<g>
			
				<ellipse transform="matrix(0.7071 -0.7071 0.7071 0.7071 -55.0056 605.8401)" fill="#1D1D1B" cx="703.8" cy="369.3" rx="2.3" ry="2.3"/>
			<path fill="#1D1D1B" d="M701.8,367.4c1.1-1.1,2.8-1.1,3.9,0c1.1,1,1,2.9,0,3.9c-0.5,0.5-1.2,0.8-2,0.8c-0.7,0-1.4-0.3-2-0.8
				c-0.5-0.5-0.8-1.2-0.8-2C701,368.6,701.3,367.9,701.8,367.4z M705.1,368.1c-0.7-0.7-1.8-0.7-2.5,0c-0.7,0.7-0.7,1.8,0,2.5
				c0.3,0.3,0.8,0.5,1.3,0.5c0.5,0,0.9-0.2,1.3-0.5c0.3-0.3,0.5-0.8,0.5-1.3C705.6,368.8,705.4,368.4,705.1,368.1z"/>
		</g>
		<g>
			
				<ellipse transform="matrix(0.7071 -0.7071 0.7071 0.7071 -56.8203 612.9766)" fill="#1D1D1B" cx="711.5" cy="375.1" rx="2.3" ry="2.3"/>
			<path fill="#1D1D1B" d="M709.6,373.1c0.5-0.5,1.2-0.8,2-0.8c0.7,0,1.4,0.3,2,0.8c1.1,1,1,2.9,0,3.9c-1.1,1.1-2.8,1.1-3.9,0
				c-0.5-0.5-0.8-1.2-0.8-2C708.7,374.3,709,373.6,709.6,373.1z M712.8,373.8c-0.3-0.3-0.8-0.5-1.3-0.5c-0.5,0-0.9,0.2-1.3,0.5
				c-0.7,0.7-0.7,1.8,0,2.5c0.7,0.7,1.8,0.7,2.5,0c0.3-0.3,0.5-0.8,0.5-1.3C713.3,374.6,713.1,374.2,712.8,373.8z"/>
		</g>
		<g>
			<polygon fill="#1D1D1B" points="613.5,891.3 614.2,892.1 629.7,876.6 629.7,696.6 719.9,606.3 719.9,371.6 718.9,371.6 
				718.9,605.9 628.7,696.2 628.7,876.1 			"/>
		</g>
		<g>
			<polygon fill="#1D1D1B" points="595,893.8 595.7,894.6 619.7,870.6 619.7,690.6 704.3,605.9 704.3,369.8 703.3,369.8 
				703.3,605.5 618.7,690.2 618.7,870.1 			"/>
		</g>
		<g>
			<polygon fill="#1D1D1B" points="604.2,892.7 604.9,893.4 624.7,873.6 624.7,693.6 712,606.2 712,375.2 711,375.2 711,605.8 
				623.7,693.2 623.7,873.1 			"/>
		</g>
		<g>
			<path fill="#1D1D1B" d="M612.6,890.6c1.5,0,2.8,1.2,2.8,2.8c0,1.5-1.2,2.8-2.8,2.8c-1.5,0-2.8-1.2-2.8-2.8
				C609.8,891.9,611.1,890.6,612.6,890.6z M612.6,891.6c-1,0-1.8,0.8-1.8,1.8c0,1,0.8,1.8,1.8,1.8c1,0,1.8-0.8,1.8-1.8
				C614.4,892.4,613.6,891.6,612.6,891.6z"/>
		</g>
		<g>
			<path fill="#1D1D1B" d="M603.2,891.6c1.5,0,2.8,1.2,2.8,2.8c0,1.5-1.2,2.8-2.8,2.8c-1.5,0-2.8-1.2-2.8-2.8
				C600.4,892.8,601.7,891.6,603.2,891.6z M603.2,892.6c-1,0-1.8,0.8-1.8,1.8c0,1,0.8,1.8,1.8,1.8c1,0,1.8-0.8,1.8-1.8
				C605,893.4,604.2,892.6,603.2,892.6z"/>
		</g>
		<g>
			<path fill="#1D1D1B" d="M593.9,892.9c1.5,0,2.8,1.2,2.8,2.8c0,1.5-1.2,2.8-2.8,2.8c-1.5,0-2.8-1.2-2.8-2.8
				C591.1,894.2,592.4,892.9,593.9,892.9z M593.9,893.9c-1,0-1.8,0.8-1.8,1.8c0,1,0.8,1.8,1.8,1.8c1,0,1.8-0.8,1.8-1.8
				C595.7,894.7,594.9,893.9,593.9,893.9z"/>
		</g>
		<g>
			<path fill="#1D1D1B" d="M584.7,894.2c1.5,0,2.8,1.2,2.8,2.8s-1.2,2.8-2.8,2.8c-1.5,0-2.8-1.2-2.8-2.8
				C581.9,895.4,583.2,894.2,584.7,894.2z M584.7,895.2c-1,0-1.8,0.8-1.8,1.8c0,1,0.8,1.8,1.8,1.8c1,0,1.8-0.8,1.8-1.8
				C586.5,896,585.7,895.2,584.7,895.2z"/>
		</g>
	</g>
	<g clip-path="url(#SVGID_2_)">
		
			<text transform="matrix(1 0 0 1 366.0892 360.6198)" fill="#1D1D1B" stroke="#FFFFFF" stroke-miterlimit="10" font-family="'PTMono-Regular'" font-size="59.8481px" letter-spacing="-3">technologic</text>
	</g>
	<g clip-path="url(#SVGID_2_)">
		
			<text transform="matrix(1 0 0 1 393.0139 409.6896)" fill="#1D1D1B" stroke="#FFFFFF" stroke-miterlimit="10" font-family="'PTMono-Regular'" font-size="59.8481px" letter-spacing="-5">background</text>
	</g>
	<line clip-path="url(#SVGID_2_)" fill="none" stroke="#1D1D1B" stroke-miterlimit="10" x1="363" y1="308" x2="727.4" y2="308"/>
	
		<line clip-path="url(#SVGID_2_)" fill="none" stroke="#1D1D1B" stroke-miterlimit="10" x1="386.1" y1="430.7" x2="704.3" y2="430.7"/>
	<g clip-path="url(#SVGID_2_)">
		<rect x="419.1" y="473" fill="none" width="258.7" height="113.6"/>
		<text transform="matrix(1 0 0 1 421.6206 481.5195)"><tspan x="0" y="0" fill="#3C3C3B" font-family="'MyriadPro-Regular'" font-size="12px">Lorem ipsum dolor sit amet, consectetur adipiscing elit, sed </tspan><tspan x="3" y="14.4" fill="#3C3C3B" font-family="'MyriadPro-Regular'" font-size="12px">do eiusmod tempor incididunt ut labore et dolore magna </tspan><tspan x="0.1" y="28.8" fill="#3C3C3B" font-family="'MyriadPro-Regular'" font-size="12px">aliqua. Ut enim ad minim veniam, quis nostrud exercitation </tspan><tspan x="3.6" y="43.2" fill="#3C3C3B" font-family="'MyriadPro-Regular'" font-size="12px">ullamco laboris nisi ut aliquip ex ea commodo consequat. </tspan><tspan x="0.3" y="57.6" fill="#3C3C3B" font-family="'MyriadPro-Regular'" font-size="12px">Duis aute irure dolor in reprehenderit in voluptate velit esse </tspan><tspan x="48.2" y="72" fill="#3C3C3B" font-family="'MyriadPro-Regular'" font-size="12px">cillum dolore eu fugiat nulla pariatur.</tspan></text>
	</g>
	<g clip-path="url(#SVGID_2_)">
		<g>
			<g>
				<path fill="#1D1D1B" d="M571.5,619.3c0.5,0,1,0.5,1,0.5l-8.9,19c-1,0-3.3,0.1-3.9,0.1c-0.5,0-1-0.5-1-0.5l-3-19
					c1.8,0,4.2-0.1,4.8-0.1c0.5,0,1,0.5,1,0.5l0.9,9.3c0.1,0.8,0.1,1.9,0.1,3.1c0.3-1.3,0.6-2.5,1-3.3l3.7-9.4
					C568.8,619.4,570.8,619.3,571.5,619.3L571.5,619.3z"/>
			</g>
			<g>
				<path fill="#1D1D1B" d="M580.6,628.7c0,2.1-1.2,3.4-4,4l-3,0.6c0.2,1.3,1.1,1.9,2.4,1.9c1.7,0,2.8-1.3,2.8-1.3s0.8,0.5,0.8,1.4
					c0,1.7-2.6,3.6-5.7,3.6c-3.1,0-5.2-2-5.2-5.3c0-3.8,2.7-9.1,7.6-9.1C579,624.7,580.6,626.2,580.6,628.7L580.6,628.7z
					 M575.5,630.6c0.6-0.2,0.8-0.7,0.8-1.3c0-0.6-0.2-1.4-0.9-1.4c-1.2,0-1.7,1.9-1.9,3.4L575.5,630.6z"/>
			</g>
			<g>
				<path fill="#1D1D1B" d="M588.8,624.7c2.4,0,4.3,1.3,4.3,3c0,2.1-2.6,2.9-2.6,2.9s-0.7-2.3-2.5-2.3c-1.2,0-1.8,1.2-1.8,3.7
					c0,2.3,0.6,3.3,2.1,3.3c1.5,0,2.5-1,2.5-1s0.9,0.5,0.9,1.4c0,1.7-2.5,3.4-5.5,3.4c-3.2,0-5.1-2-5.1-5.3
					C581,629.9,583.8,624.7,588.8,624.7L588.8,624.7z"/>
			</g>
			<g>
				<path fill="#1D1D1B" d="M600.5,621.6c0.6,0,1,0.5,1,0.5l-0.5,2.9h3.1l-0.7,2.2c-0.2,0.7-0.6,1.1-1.3,1.1h-1.6l-0.9,5.7
					c-0.1,0.9,0.1,1.3,0.7,1.3c0.6,0,1.1-0.3,1.1-0.3s0.9,0.5,0.9,1.4c0,1.4-2,2.8-4.5,2.8c-2.6,0-3.7-1.6-3.3-4.5l1-6.3h-1.7
					l0.7-2.3c0.2-0.6,0.7-1,1.3-1h0.8l1-2.7C598.9,622,600,621.6,600.5,621.6L600.5,621.6z"/>
			</g>
			<g>
				<path fill="#1D1D1B" d="M615.5,628.7c0,2.1-1.2,3.4-4,4l-3,0.6c0.2,1.3,1.1,1.9,2.4,1.9c1.7,0,2.8-1.3,2.8-1.3s0.9,0.5,0.9,1.4
					c0,1.7-2.6,3.6-5.7,3.6c-3.1,0-5.2-2-5.2-5.3c0-3.8,2.7-9.1,7.6-9.1C613.8,624.7,615.5,626.2,615.5,628.7L615.5,628.7z
					 M610.4,630.6c0.6-0.2,0.8-0.7,0.8-1.3c0-0.6-0.2-1.4-0.9-1.4c-1.2,0-1.7,1.9-1.9,3.4L610.4,630.6z"/>
			</g>
			<g>
				<path fill="#1D1D1B" d="M627.8,628.7c0,2.1-1.2,3.4-4,4l-3,0.6c0.2,1.3,1.1,1.9,2.4,1.9c1.7,0,2.8-1.3,2.8-1.3s0.9,0.5,0.9,1.4
					c0,1.7-2.6,3.6-5.7,3.6c-3.1,0-5.2-2-5.2-5.3c0-3.8,2.7-9.1,7.6-9.1C626.1,624.7,627.8,626.2,627.8,628.7L627.8,628.7z
					 M622.7,630.6c0.6-0.2,0.8-0.7,0.8-1.3c0-0.6-0.2-1.4-0.9-1.4c-1.2,0-1.7,1.9-1.9,3.4L622.7,630.6z"/>
			</g>
			<g>
				<path fill="#1D1D1B" d="M637.9,633.8c0,0,1,1,1,2.5c0,2.1-1.8,2.7-3.3,2.7c-2,0-3.4-0.9-4.9-1.4c-0.4,0.5-0.8,1-1.2,1.4
					c0,0-2.2-0.1-2.2-1.6c0-1.8,3.1-5,6.4-8.5c-0.4-0.1-0.7-0.1-1.1-0.1c-1.9,0-2.6,0.9-2.6,0.9s-1-1.1-0.9-2.5c0.1-2,2-2.5,3.5-2.5
					c1.6,0,2.7,0.6,3.9,1.1l0.9-1.1c0,0,2.2,0.1,2.2,1.6c0,1.8-3,4.9-6.2,8.3c0.7,0.2,1.3,0.3,1.9,0.3
					C637.1,634.9,637.9,633.8,637.9,633.8L637.9,633.8z"/>
			</g>
			<g>
				<path fill="#1D1D1B" d="M652.2,637.8c-0.8,4.8-4.1,7.3-8.3,7.3c-2.7,0-4.7-1.4-4.7-3c0-1.1,0.9-1.6,0.9-1.6s0.9,0.8,2.7,0.8
					c1.7,0,4-0.7,4.4-3.3l0.3-2c-1.1,1.6-2.6,3-4.5,3c-2.1,0-3.1-1.7-2.5-5.3l0.6-3.8c0.4-2.3,0.5-4.3,0.5-4.3c1.5-0.3,3.5-1,4.2-1
					c0.5,0,1,0.5,1,0.5l-0.8,4.8l-0.7,4.4c-0.1,0.4,0,0.6,0.4,0.6c1.8,0,2.8-5.1,2.8-5.1c0.4-2.3,0.5-4.3,0.5-4.3
					c1.5-0.3,3.5-1,4.2-1c0.5,0,1,0.5,1,0.5l-0.8,4.8L652.2,637.8z"/>
			</g>
		</g>
		<g>
			<path fill="#1D1D1B" d="M447.5,625.4h4.8c1.1,0,1.9,0.1,2.5,0.2c0.8,0.2,1.4,0.6,1.9,1.2c0.5,0.6,0.9,1.3,1.2,2.1
				c0.3,0.8,0.4,1.8,0.4,3c0,1.1-0.1,2-0.4,2.7c-0.3,0.9-0.8,1.7-1.4,2.3c-0.5,0.4-1.1,0.8-1.8,1c-0.6,0.2-1.3,0.3-2.3,0.3h-4.9
				V625.4z M450.1,627.6v8.5h1.9c0.7,0,1.3,0,1.6-0.1c0.4-0.1,0.8-0.3,1.1-0.5c0.3-0.3,0.5-0.7,0.7-1.2c0.2-0.6,0.3-1.4,0.3-2.4
				c0-1-0.1-1.8-0.3-2.3c-0.2-0.5-0.4-0.9-0.7-1.2c-0.3-0.3-0.7-0.5-1.2-0.6c-0.4-0.1-1.1-0.1-2.1-0.1H450.1z"/>
			<path fill="#1D1D1B" d="M465.5,635.4l2.5,0.4c-0.3,0.9-0.8,1.6-1.5,2.1c-0.7,0.5-1.5,0.7-2.6,0.7c-1.6,0-2.8-0.5-3.6-1.6
				c-0.6-0.8-0.9-1.9-0.9-3.2c0-1.5,0.4-2.8,1.2-3.6c0.8-0.9,1.8-1.3,3.1-1.3c1.4,0,2.5,0.5,3.3,1.4c0.8,0.9,1.2,2.3,1.2,4.2h-6.2
				c0,0.7,0.2,1.3,0.6,1.7c0.4,0.4,0.9,0.6,1.4,0.6c0.4,0,0.7-0.1,1-0.3C465.2,636.2,465.4,635.8,465.5,635.4z M465.6,632.9
				c0-0.7-0.2-1.3-0.6-1.6c-0.4-0.4-0.8-0.6-1.3-0.6c-0.5,0-1,0.2-1.3,0.6c-0.4,0.4-0.5,0.9-0.5,1.6H465.6z"/>
			<path fill="#1D1D1B" d="M468.9,635.7l2.5-0.4c0.1,0.5,0.3,0.8,0.6,1.1c0.3,0.2,0.8,0.4,1.4,0.4c0.6,0,1.1-0.1,1.4-0.4
				c0.2-0.2,0.3-0.4,0.3-0.7c0-0.2-0.1-0.3-0.2-0.5c-0.1-0.1-0.4-0.2-0.8-0.3c-2-0.4-3.3-0.8-3.8-1.2c-0.7-0.5-1.1-1.2-1.1-2.1
				c0-0.8,0.3-1.5,1-2c0.6-0.6,1.6-0.8,3-0.8c1.3,0,2.2,0.2,2.8,0.6c0.6,0.4,1,1,1.3,1.8l-2.3,0.4c-0.1-0.4-0.3-0.6-0.6-0.8
				c-0.3-0.2-0.7-0.3-1.2-0.3c-0.7,0-1.1,0.1-1.4,0.3c-0.2,0.1-0.3,0.3-0.3,0.5c0,0.2,0.1,0.3,0.2,0.4c0.2,0.2,1,0.4,2.3,0.7
				c1.3,0.3,2.2,0.7,2.8,1.1c0.5,0.4,0.8,1.1,0.8,1.8c0,0.9-0.4,1.6-1.1,2.2c-0.7,0.6-1.8,0.9-3.2,0.9c-1.3,0-2.3-0.3-3-0.8
				C469.6,637.2,469.1,636.5,468.9,635.7z"/>
			<path fill="#1D1D1B" d="M479.4,627.7v-2.3h2.5v2.3H479.4z M479.4,638.3V629h2.5v9.3H479.4z"/>
			<path fill="#1D1D1B" d="M483.8,638.9l2.8,0.3c0,0.3,0.2,0.6,0.3,0.7c0.2,0.2,0.6,0.3,1.1,0.3c0.6,0,1.1-0.1,1.5-0.3
				c0.2-0.1,0.4-0.3,0.5-0.6c0.1-0.2,0.1-0.6,0.1-1.1v-1.4c-0.7,1-1.7,1.5-2.8,1.5c-1.3,0-2.2-0.5-3-1.6c-0.6-0.8-0.9-1.9-0.9-3.1
				c0-1.6,0.4-2.8,1.1-3.6c0.8-0.8,1.7-1.2,2.8-1.2c1.2,0,2.1,0.5,2.9,1.5V629h2.3v8.4c0,1.1-0.1,1.9-0.3,2.5
				c-0.2,0.5-0.4,1-0.8,1.3c-0.3,0.3-0.8,0.6-1.3,0.7c-0.5,0.2-1.2,0.3-2.1,0.3c-1.6,0-2.7-0.3-3.4-0.8c-0.7-0.5-1-1.2-1-2.1
				C483.8,639.2,483.8,639.1,483.8,638.9z M486,633.5c0,1,0.2,1.7,0.6,2.2c0.4,0.5,0.9,0.7,1.4,0.7c0.6,0,1.1-0.2,1.5-0.7
				c0.4-0.5,0.6-1.2,0.6-2.1c0-1-0.2-1.7-0.6-2.2c-0.4-0.5-0.9-0.7-1.5-0.7c-0.6,0-1.1,0.2-1.5,0.7C486.2,631.8,486,632.5,486,633.5
				z"/>
			<path fill="#1D1D1B" d="M503.2,638.3h-2.5v-4.8c0-1-0.1-1.7-0.2-2c-0.1-0.3-0.3-0.5-0.5-0.7c-0.2-0.2-0.5-0.2-0.9-0.2
				c-0.4,0-0.8,0.1-1.2,0.4c-0.3,0.2-0.6,0.5-0.7,0.9c-0.1,0.4-0.2,1.1-0.2,2.1v4.2h-2.5V629h2.3v1.4c0.8-1.1,1.8-1.6,3.1-1.6
				c0.5,0,1,0.1,1.5,0.3c0.5,0.2,0.8,0.4,1,0.8c0.2,0.3,0.4,0.7,0.5,1c0.1,0.4,0.1,0.9,0.1,1.7V638.3z"/>
			<path fill="#1D1D1B" d="M510.7,635.4l2.5,0.4c-0.3,0.9-0.8,1.6-1.5,2.1c-0.7,0.5-1.5,0.7-2.6,0.7c-1.6,0-2.8-0.5-3.6-1.6
				c-0.6-0.8-0.9-1.9-0.9-3.2c0-1.5,0.4-2.8,1.2-3.6c0.8-0.9,1.8-1.3,3.1-1.3c1.4,0,2.5,0.5,3.3,1.4c0.8,0.9,1.2,2.3,1.2,4.2h-6.2
				c0,0.7,0.2,1.3,0.6,1.7c0.4,0.4,0.9,0.6,1.4,0.6c0.4,0,0.7-0.1,1-0.3C510.4,636.2,510.6,635.8,510.7,635.4z M510.9,632.9
				c0-0.7-0.2-1.3-0.6-1.6c-0.4-0.4-0.8-0.6-1.3-0.6c-0.5,0-1,0.2-1.3,0.6c-0.4,0.4-0.5,0.9-0.5,1.6H510.9z"/>
			<path fill="#1D1D1B" d="M523.5,638.3h-2.3V637c-0.4,0.5-0.8,0.9-1.3,1.2c-0.5,0.3-1,0.4-1.6,0.4c-1.1,0-2-0.4-2.8-1.3
				c-0.8-0.9-1.1-2.1-1.1-3.6c0-1.6,0.4-2.8,1.1-3.6c0.7-0.8,1.7-1.2,2.8-1.2c1,0,1.9,0.4,2.7,1.3v-4.6h2.5V638.3z M516.9,633.5
				c0,1,0.1,1.7,0.4,2.2c0.4,0.6,1,1,1.7,1c0.6,0,1.1-0.2,1.5-0.7c0.4-0.5,0.6-1.2,0.6-2.2c0-1.1-0.2-1.8-0.6-2.3
				c-0.4-0.5-0.9-0.7-1.5-0.7c-0.6,0-1.1,0.2-1.5,0.7C517.1,631.8,516.9,632.5,516.9,633.5z"/>
			<path fill="#1D1D1B" d="M530.1,638.3v-12.9h2.5v4.6c0.8-0.9,1.7-1.3,2.7-1.3c1.1,0,2.1,0.4,2.8,1.2c0.7,0.8,1.1,2,1.1,3.5
				c0,1.6-0.4,2.8-1.1,3.7c-0.8,0.9-1.7,1.3-2.8,1.3c-0.5,0-1.1-0.1-1.6-0.4c-0.5-0.3-1-0.7-1.3-1.2v1.4H530.1z M532.6,633.5
				c0,1,0.2,1.7,0.5,2.1c0.4,0.7,1,1,1.7,1c0.5,0,1-0.2,1.4-0.7c0.4-0.5,0.6-1.2,0.6-2.2c0-1.1-0.2-1.8-0.6-2.3
				c-0.4-0.5-0.9-0.7-1.5-0.7c-0.6,0-1.1,0.2-1.5,0.7C532.8,631.8,532.6,632.5,532.6,633.5z"/>
			<path fill="#1D1D1B" d="M539.7,629h2.6l2.2,6.6l2.2-6.6h2.6l-3.3,9l-0.6,1.6c-0.2,0.5-0.4,1-0.6,1.2c-0.2,0.3-0.4,0.5-0.7,0.7
				c-0.3,0.2-0.6,0.3-0.9,0.4c-0.4,0.1-0.8,0.1-1.3,0.1c-0.5,0-0.9,0-1.4-0.1l-0.2-1.9c0.4,0.1,0.7,0.1,1,0.1c0.6,0,1-0.2,1.3-0.5
				c0.3-0.3,0.5-0.8,0.6-1.3L539.7,629z"/>
		</g>
	</g>
	
		<radialGradient id="SVGID_3_" cx="548" cy="390" r="1049.9241" gradientTransform="matrix(1 0 0 0.7002 0 116.9384)" gradientUnits="userSpaceOnUse">
		<stop  offset="0.5191" style="stop-color:#000000;stop-opacity:0"/>
		<stop  offset="0.9964" style="stop-color:#000000"/>
	</radialGradient>
	<rect clip-path="url(#SVGID_2_)" fill="url(#SVGID_3_)" width="1096" height="780"/>
</g>
</svg>
